G04 #@! TF.GenerationSoftware,KiCad,Pcbnew,(5.1.10)-1*
G04 #@! TF.CreationDate,2021-09-09T16:44:11+02:00*
G04 #@! TF.ProjectId,Motorrumsstyrning,4d6f746f-7272-4756-9d73-737479726e69,rev?*
G04 #@! TF.SameCoordinates,Original*
G04 #@! TF.FileFunction,Soldermask,Top*
G04 #@! TF.FilePolarity,Negative*
%FSLAX46Y46*%
G04 Gerber Fmt 4.6, Leading zero omitted, Abs format (unit mm)*
G04 Created by KiCad (PCBNEW (5.1.10)-1) date 2021-09-09 16:44:11*
%MOMM*%
%LPD*%
G01*
G04 APERTURE LIST*
%ADD10C,0.100000*%
%ADD11O,2.102000X2.007000*%
%ADD12C,1.752000*%
%ADD13C,2.302000*%
%ADD14C,1.632000*%
%ADD15O,1.802000X1.802000*%
%ADD16C,1.802000*%
%ADD17O,1.702000X1.702000*%
%ADD18C,1.702000*%
%ADD19O,1.152000X1.602000*%
%ADD20C,7.102000*%
G04 APERTURE END LIST*
D10*
G36*
X128993050Y-106718020D02*
G01*
X128983483Y-106715118D01*
X128974666Y-106710405D01*
X128966938Y-106704062D01*
X128960565Y-106696290D01*
X128460565Y-105946290D01*
X128455862Y-105937468D01*
X128452970Y-105927897D01*
X128452000Y-105917947D01*
X128452990Y-105907998D01*
X128455903Y-105898434D01*
X128460565Y-105889710D01*
X128960565Y-105139710D01*
X128966900Y-105131975D01*
X128974622Y-105125625D01*
X128983434Y-105120903D01*
X128992998Y-105117990D01*
X129003000Y-105117000D01*
X130003000Y-105117000D01*
X130012950Y-105117980D01*
X130022517Y-105120882D01*
X130031334Y-105125595D01*
X130039062Y-105131938D01*
X130045405Y-105139666D01*
X130050118Y-105148483D01*
X130053020Y-105158050D01*
X130054000Y-105168000D01*
X130054000Y-106668000D01*
X130053020Y-106677950D01*
X130050118Y-106687517D01*
X130045405Y-106696334D01*
X130039062Y-106704062D01*
X130031334Y-106710405D01*
X130022517Y-106715118D01*
X130012950Y-106718020D01*
X130003000Y-106719000D01*
X129003000Y-106719000D01*
X128993050Y-106718020D01*
G37*
G36*
X127543050Y-106718020D02*
G01*
X127533483Y-106715118D01*
X127524666Y-106710405D01*
X127516938Y-106704062D01*
X127510595Y-106696334D01*
X127505882Y-106687517D01*
X127502980Y-106677950D01*
X127502000Y-106668000D01*
X127502000Y-105168000D01*
X127502980Y-105158050D01*
X127505882Y-105148483D01*
X127510595Y-105139666D01*
X127516938Y-105131938D01*
X127524666Y-105125595D01*
X127533483Y-105120882D01*
X127543050Y-105117980D01*
X127553000Y-105117000D01*
X128703000Y-105117000D01*
X128712950Y-105117980D01*
X128722517Y-105120882D01*
X128731334Y-105125595D01*
X128739062Y-105131938D01*
X128745405Y-105139666D01*
X128750118Y-105148483D01*
X128753020Y-105158050D01*
X128754000Y-105168000D01*
X128753020Y-105177950D01*
X128750118Y-105187517D01*
X128745435Y-105196290D01*
X128264295Y-105918000D01*
X128745435Y-106639710D01*
X128750138Y-106648532D01*
X128753030Y-106658103D01*
X128754000Y-106668053D01*
X128753010Y-106678002D01*
X128750097Y-106687566D01*
X128745375Y-106696378D01*
X128739025Y-106704100D01*
X128731290Y-106710435D01*
X128722468Y-106715138D01*
X128712897Y-106718030D01*
X128703000Y-106719000D01*
X127553000Y-106719000D01*
X127543050Y-106718020D01*
G37*
G36*
X171742020Y-121106950D02*
G01*
X171739118Y-121116517D01*
X171734405Y-121125334D01*
X171728062Y-121133062D01*
X171720290Y-121139435D01*
X170970290Y-121639435D01*
X170961468Y-121644138D01*
X170951897Y-121647030D01*
X170941947Y-121648000D01*
X170931998Y-121647010D01*
X170922434Y-121644097D01*
X170913710Y-121639435D01*
X170163710Y-121139435D01*
X170155975Y-121133100D01*
X170149625Y-121125378D01*
X170144903Y-121116566D01*
X170141990Y-121107002D01*
X170141000Y-121097000D01*
X170141000Y-120097000D01*
X170141980Y-120087050D01*
X170144882Y-120077483D01*
X170149595Y-120068666D01*
X170155938Y-120060938D01*
X170163666Y-120054595D01*
X170172483Y-120049882D01*
X170182050Y-120046980D01*
X170192000Y-120046000D01*
X171692000Y-120046000D01*
X171701950Y-120046980D01*
X171711517Y-120049882D01*
X171720334Y-120054595D01*
X171728062Y-120060938D01*
X171734405Y-120068666D01*
X171739118Y-120077483D01*
X171742020Y-120087050D01*
X171743000Y-120097000D01*
X171743000Y-121097000D01*
X171742020Y-121106950D01*
G37*
G36*
X171742020Y-122556950D02*
G01*
X171739118Y-122566517D01*
X171734405Y-122575334D01*
X171728062Y-122583062D01*
X171720334Y-122589405D01*
X171711517Y-122594118D01*
X171701950Y-122597020D01*
X171692000Y-122598000D01*
X170192000Y-122598000D01*
X170182050Y-122597020D01*
X170172483Y-122594118D01*
X170163666Y-122589405D01*
X170155938Y-122583062D01*
X170149595Y-122575334D01*
X170144882Y-122566517D01*
X170141980Y-122556950D01*
X170141000Y-122547000D01*
X170141000Y-121397000D01*
X170141980Y-121387050D01*
X170144882Y-121377483D01*
X170149595Y-121368666D01*
X170155938Y-121360938D01*
X170163666Y-121354595D01*
X170172483Y-121349882D01*
X170182050Y-121346980D01*
X170192000Y-121346000D01*
X170201950Y-121346980D01*
X170211517Y-121349882D01*
X170220290Y-121354565D01*
X170942000Y-121835705D01*
X171663710Y-121354565D01*
X171672532Y-121349862D01*
X171682103Y-121346970D01*
X171692053Y-121346000D01*
X171702002Y-121346990D01*
X171711566Y-121349903D01*
X171720378Y-121354625D01*
X171728100Y-121360975D01*
X171734435Y-121368710D01*
X171739138Y-121377532D01*
X171742030Y-121387103D01*
X171743000Y-121397000D01*
X171743000Y-122547000D01*
X171742020Y-122556950D01*
G37*
D11*
X135255000Y-75565000D03*
X135255000Y-78105000D03*
G36*
G01*
X136255000Y-81648500D02*
X134255000Y-81648500D01*
G75*
G02*
X134204000Y-81597500I0J51000D01*
G01*
X134204000Y-79692500D01*
G75*
G02*
X134255000Y-79641500I51000J0D01*
G01*
X136255000Y-79641500D01*
G75*
G02*
X136306000Y-79692500I0J-51000D01*
G01*
X136306000Y-81597500D01*
G75*
G02*
X136255000Y-81648500I-51000J0D01*
G01*
G37*
G36*
G01*
X143626000Y-87700000D02*
X143626000Y-89200000D01*
G75*
G02*
X143575000Y-89251000I-51000J0D01*
G01*
X142575000Y-89251000D01*
G75*
G02*
X142524000Y-89200000I0J51000D01*
G01*
X142524000Y-87700000D01*
G75*
G02*
X142575000Y-87649000I51000J0D01*
G01*
X143575000Y-87649000D01*
G75*
G02*
X143626000Y-87700000I0J-51000D01*
G01*
G37*
G36*
G01*
X146126000Y-87700000D02*
X146126000Y-89200000D01*
G75*
G02*
X146075000Y-89251000I-51000J0D01*
G01*
X145075000Y-89251000D01*
G75*
G02*
X145024000Y-89200000I0J51000D01*
G01*
X145024000Y-87700000D01*
G75*
G02*
X145075000Y-87649000I51000J0D01*
G01*
X146075000Y-87649000D01*
G75*
G02*
X146126000Y-87700000I0J-51000D01*
G01*
G37*
G36*
G01*
X148626000Y-87700000D02*
X148626000Y-89200000D01*
G75*
G02*
X148575000Y-89251000I-51000J0D01*
G01*
X147575000Y-89251000D01*
G75*
G02*
X147524000Y-89200000I0J51000D01*
G01*
X147524000Y-87700000D01*
G75*
G02*
X147575000Y-87649000I51000J0D01*
G01*
X148575000Y-87649000D01*
G75*
G02*
X148626000Y-87700000I0J-51000D01*
G01*
G37*
G36*
G01*
X151126000Y-87700000D02*
X151126000Y-89200000D01*
G75*
G02*
X151075000Y-89251000I-51000J0D01*
G01*
X150075000Y-89251000D01*
G75*
G02*
X150024000Y-89200000I0J51000D01*
G01*
X150024000Y-87700000D01*
G75*
G02*
X150075000Y-87649000I51000J0D01*
G01*
X151075000Y-87649000D01*
G75*
G02*
X151126000Y-87700000I0J-51000D01*
G01*
G37*
G36*
G01*
X153626000Y-87700000D02*
X153626000Y-89200000D01*
G75*
G02*
X153575000Y-89251000I-51000J0D01*
G01*
X152575000Y-89251000D01*
G75*
G02*
X152524000Y-89200000I0J51000D01*
G01*
X152524000Y-87700000D01*
G75*
G02*
X152575000Y-87649000I51000J0D01*
G01*
X153575000Y-87649000D01*
G75*
G02*
X153626000Y-87700000I0J-51000D01*
G01*
G37*
G36*
G01*
X156126000Y-87700000D02*
X156126000Y-89200000D01*
G75*
G02*
X156075000Y-89251000I-51000J0D01*
G01*
X155075000Y-89251000D01*
G75*
G02*
X155024000Y-89200000I0J51000D01*
G01*
X155024000Y-87700000D01*
G75*
G02*
X155075000Y-87649000I51000J0D01*
G01*
X156075000Y-87649000D01*
G75*
G02*
X156126000Y-87700000I0J-51000D01*
G01*
G37*
G36*
G01*
X158556000Y-87700000D02*
X158556000Y-89200000D01*
G75*
G02*
X158505000Y-89251000I-51000J0D01*
G01*
X157505000Y-89251000D01*
G75*
G02*
X157454000Y-89200000I0J51000D01*
G01*
X157454000Y-87700000D01*
G75*
G02*
X157505000Y-87649000I51000J0D01*
G01*
X158505000Y-87649000D01*
G75*
G02*
X158556000Y-87700000I0J-51000D01*
G01*
G37*
G36*
G01*
X160256000Y-87700000D02*
X160256000Y-89200000D01*
G75*
G02*
X160205000Y-89251000I-51000J0D01*
G01*
X159205000Y-89251000D01*
G75*
G02*
X159154000Y-89200000I0J51000D01*
G01*
X159154000Y-87700000D01*
G75*
G02*
X159205000Y-87649000I51000J0D01*
G01*
X160205000Y-87649000D01*
G75*
G02*
X160256000Y-87700000I0J-51000D01*
G01*
G37*
G36*
G01*
X141126000Y-87700000D02*
X141126000Y-89200000D01*
G75*
G02*
X141075000Y-89251000I-51000J0D01*
G01*
X140075000Y-89251000D01*
G75*
G02*
X140024000Y-89200000I0J51000D01*
G01*
X140024000Y-87700000D01*
G75*
G02*
X140075000Y-87649000I51000J0D01*
G01*
X141075000Y-87649000D01*
G75*
G02*
X141126000Y-87700000I0J-51000D01*
G01*
G37*
G36*
G01*
X161306000Y-87699999D02*
X161306000Y-89200001D01*
G75*
G02*
X161255001Y-89251000I-50999J0D01*
G01*
X160554999Y-89251000D01*
G75*
G02*
X160504000Y-89200001I0J50999D01*
G01*
X160504000Y-87699999D01*
G75*
G02*
X160554999Y-87649000I50999J0D01*
G01*
X161255001Y-87649000D01*
G75*
G02*
X161306000Y-87699999I0J-50999D01*
G01*
G37*
G36*
G01*
X162506000Y-87699999D02*
X162506000Y-89200001D01*
G75*
G02*
X162455001Y-89251000I-50999J0D01*
G01*
X161754999Y-89251000D01*
G75*
G02*
X161704000Y-89200001I0J50999D01*
G01*
X161704000Y-87699999D01*
G75*
G02*
X161754999Y-87649000I50999J0D01*
G01*
X162455001Y-87649000D01*
G75*
G02*
X162506000Y-87699999I0J-50999D01*
G01*
G37*
G36*
G01*
X164401000Y-63550000D02*
X164401000Y-66350000D01*
G75*
G02*
X164350000Y-66401000I-51000J0D01*
G01*
X162850000Y-66401000D01*
G75*
G02*
X162799000Y-66350000I0J51000D01*
G01*
X162799000Y-63550000D01*
G75*
G02*
X162850000Y-63499000I51000J0D01*
G01*
X164350000Y-63499000D01*
G75*
G02*
X164401000Y-63550000I0J-51000D01*
G01*
G37*
G36*
G01*
X137101000Y-63550000D02*
X137101000Y-66350000D01*
G75*
G02*
X137050000Y-66401000I-51000J0D01*
G01*
X135550000Y-66401000D01*
G75*
G02*
X135499000Y-66350000I0J51000D01*
G01*
X135499000Y-63550000D01*
G75*
G02*
X135550000Y-63499000I51000J0D01*
G01*
X137050000Y-63499000D01*
G75*
G02*
X137101000Y-63550000I0J-51000D01*
G01*
G37*
G36*
G01*
X164401000Y-85050000D02*
X164401000Y-87850000D01*
G75*
G02*
X164350000Y-87901000I-51000J0D01*
G01*
X162850000Y-87901000D01*
G75*
G02*
X162799000Y-87850000I0J51000D01*
G01*
X162799000Y-85050000D01*
G75*
G02*
X162850000Y-84999000I51000J0D01*
G01*
X164350000Y-84999000D01*
G75*
G02*
X164401000Y-85050000I0J-51000D01*
G01*
G37*
G36*
G01*
X139301000Y-85050000D02*
X139301000Y-87850000D01*
G75*
G02*
X139250000Y-87901000I-51000J0D01*
G01*
X137750000Y-87901000D01*
G75*
G02*
X137699000Y-87850000I0J51000D01*
G01*
X137699000Y-85050000D01*
G75*
G02*
X137750000Y-84999000I51000J0D01*
G01*
X139250000Y-84999000D01*
G75*
G02*
X139301000Y-85050000I0J-51000D01*
G01*
G37*
D12*
X161450000Y-85650000D03*
D13*
X140450000Y-85650000D03*
D14*
X142240000Y-94615000D03*
X144780000Y-94615000D03*
X147320000Y-94615000D03*
X149860000Y-94615000D03*
X152400000Y-94615000D03*
X154940000Y-94615000D03*
X157480000Y-94615000D03*
X160020000Y-94615000D03*
X162560000Y-94615000D03*
X165100000Y-94615000D03*
X167640000Y-94615000D03*
X170180000Y-94615000D03*
X172720000Y-94615000D03*
X175260000Y-94615000D03*
G36*
G01*
X177035000Y-93799000D02*
X178565000Y-93799000D01*
G75*
G02*
X178616000Y-93850000I0J-51000D01*
G01*
X178616000Y-95380000D01*
G75*
G02*
X178565000Y-95431000I-51000J0D01*
G01*
X177035000Y-95431000D01*
G75*
G02*
X176984000Y-95380000I0J51000D01*
G01*
X176984000Y-93850000D01*
G75*
G02*
X177035000Y-93799000I51000J0D01*
G01*
G37*
X142240000Y-109855000D03*
X144780000Y-109855000D03*
X147320000Y-109855000D03*
X149860000Y-109855000D03*
X152400000Y-109855000D03*
X154940000Y-109855000D03*
X157480000Y-109855000D03*
X160020000Y-109855000D03*
X162560000Y-109855000D03*
X165100000Y-109855000D03*
X167640000Y-109855000D03*
X170180000Y-109855000D03*
X172720000Y-109855000D03*
X175260000Y-109855000D03*
G36*
G01*
X177035000Y-109039000D02*
X178565000Y-109039000D01*
G75*
G02*
X178616000Y-109090000I0J-51000D01*
G01*
X178616000Y-110620000D01*
G75*
G02*
X178565000Y-110671000I-51000J0D01*
G01*
X177035000Y-110671000D01*
G75*
G02*
X176984000Y-110620000I0J51000D01*
G01*
X176984000Y-109090000D01*
G75*
G02*
X177035000Y-109039000I51000J0D01*
G01*
G37*
D15*
X162560000Y-114935000D03*
X160020000Y-114935000D03*
X157480000Y-114935000D03*
X154940000Y-114935000D03*
X152400000Y-114935000D03*
X149860000Y-114935000D03*
X147320000Y-114935000D03*
X144780000Y-114935000D03*
G36*
G01*
X143090000Y-115836000D02*
X141390000Y-115836000D01*
G75*
G02*
X141339000Y-115785000I0J51000D01*
G01*
X141339000Y-114085000D01*
G75*
G02*
X141390000Y-114034000I51000J0D01*
G01*
X143090000Y-114034000D01*
G75*
G02*
X143141000Y-114085000I0J-51000D01*
G01*
X143141000Y-115785000D01*
G75*
G02*
X143090000Y-115836000I-51000J0D01*
G01*
G37*
D16*
X132842000Y-78105000D03*
X132969000Y-80645000D03*
X132842000Y-75565000D03*
D17*
X133985000Y-97155000D03*
D18*
X133985000Y-104775000D03*
D17*
X164465000Y-98425000D03*
D18*
X164465000Y-106045000D03*
D17*
X145415000Y-98425000D03*
D18*
X145415000Y-106045000D03*
D17*
X142240000Y-98425000D03*
D18*
X142240000Y-106045000D03*
D16*
X154940000Y-91440000D03*
X152400000Y-91440000D03*
X144780000Y-91440000D03*
X142240000Y-91440000D03*
X160020000Y-91440000D03*
X157480000Y-91440000D03*
X149860000Y-91440000D03*
X147320000Y-91440000D03*
D17*
X165100000Y-83185000D03*
D18*
X165100000Y-90805000D03*
D17*
X158115000Y-98425000D03*
D18*
X158115000Y-106045000D03*
X139065000Y-99060000D03*
D17*
X139065000Y-91440000D03*
X170815000Y-98425000D03*
D18*
X170815000Y-106045000D03*
D17*
X127000000Y-94615000D03*
D18*
X134620000Y-94615000D03*
D17*
X161290000Y-98425000D03*
D18*
X161290000Y-106045000D03*
D17*
X124460000Y-83820000D03*
D18*
X124460000Y-91440000D03*
D17*
X154940000Y-106045000D03*
D18*
X154940000Y-98425000D03*
D17*
X151765000Y-98425000D03*
D18*
X151765000Y-106045000D03*
D17*
X167640000Y-98425000D03*
D18*
X167640000Y-106045000D03*
D17*
X130810000Y-91440000D03*
D18*
X130810000Y-83820000D03*
D17*
X148590000Y-106045000D03*
D18*
X148590000Y-98425000D03*
D10*
G36*
X130861050Y-95415020D02*
G01*
X130851483Y-95412118D01*
X130842666Y-95407405D01*
X130834938Y-95401062D01*
X130828565Y-95393290D01*
X130328565Y-94643290D01*
X130323862Y-94634468D01*
X130320970Y-94624897D01*
X130320000Y-94614947D01*
X130320990Y-94604998D01*
X130323903Y-94595434D01*
X130328565Y-94586710D01*
X130828565Y-93836710D01*
X130834900Y-93828975D01*
X130842622Y-93822625D01*
X130851434Y-93817903D01*
X130860998Y-93814990D01*
X130871000Y-93814000D01*
X131871000Y-93814000D01*
X131880950Y-93814980D01*
X131890517Y-93817882D01*
X131899334Y-93822595D01*
X131907062Y-93828938D01*
X131913405Y-93836666D01*
X131918118Y-93845483D01*
X131921020Y-93855050D01*
X131922000Y-93865000D01*
X131922000Y-95365000D01*
X131921020Y-95374950D01*
X131918118Y-95384517D01*
X131913405Y-95393334D01*
X131907062Y-95401062D01*
X131899334Y-95407405D01*
X131890517Y-95412118D01*
X131880950Y-95415020D01*
X131871000Y-95416000D01*
X130871000Y-95416000D01*
X130861050Y-95415020D01*
G37*
G36*
X129411050Y-95415020D02*
G01*
X129401483Y-95412118D01*
X129392666Y-95407405D01*
X129384938Y-95401062D01*
X129378595Y-95393334D01*
X129373882Y-95384517D01*
X129370980Y-95374950D01*
X129370000Y-95365000D01*
X129370000Y-93865000D01*
X129370980Y-93855050D01*
X129373882Y-93845483D01*
X129378595Y-93836666D01*
X129384938Y-93828938D01*
X129392666Y-93822595D01*
X129401483Y-93817882D01*
X129411050Y-93814980D01*
X129421000Y-93814000D01*
X130571000Y-93814000D01*
X130580950Y-93814980D01*
X130590517Y-93817882D01*
X130599334Y-93822595D01*
X130607062Y-93828938D01*
X130613405Y-93836666D01*
X130618118Y-93845483D01*
X130621020Y-93855050D01*
X130622000Y-93865000D01*
X130621020Y-93874950D01*
X130618118Y-93884517D01*
X130613435Y-93893290D01*
X130132295Y-94615000D01*
X130613435Y-95336710D01*
X130618138Y-95345532D01*
X130621030Y-95355103D01*
X130622000Y-95365053D01*
X130621010Y-95375002D01*
X130618097Y-95384566D01*
X130613375Y-95393378D01*
X130607025Y-95401100D01*
X130599290Y-95407435D01*
X130590468Y-95412138D01*
X130580897Y-95415030D01*
X130571000Y-95416000D01*
X129421000Y-95416000D01*
X129411050Y-95415020D01*
G37*
G36*
G01*
X143629000Y-121115000D02*
X143629000Y-118915000D01*
G75*
G02*
X143680000Y-118864000I51000J0D01*
G01*
X145880000Y-118864000D01*
G75*
G02*
X145931000Y-118915000I0J-51000D01*
G01*
X145931000Y-121115000D01*
G75*
G02*
X145880000Y-121166000I-51000J0D01*
G01*
X143680000Y-121166000D01*
G75*
G02*
X143629000Y-121115000I0J51000D01*
G01*
G37*
D13*
X147320000Y-120015000D03*
X149860000Y-120015000D03*
X152400000Y-120015000D03*
X154940000Y-120015000D03*
X157480000Y-120015000D03*
X160020000Y-120015000D03*
X162560000Y-120015000D03*
X165100000Y-120015000D03*
X167640000Y-120015000D03*
G36*
G01*
X117518000Y-85209000D02*
X119718000Y-85209000D01*
G75*
G02*
X119769000Y-85260000I0J-51000D01*
G01*
X119769000Y-87460000D01*
G75*
G02*
X119718000Y-87511000I-51000J0D01*
G01*
X117518000Y-87511000D01*
G75*
G02*
X117467000Y-87460000I0J51000D01*
G01*
X117467000Y-85260000D01*
G75*
G02*
X117518000Y-85209000I51000J0D01*
G01*
G37*
X118618000Y-88900000D03*
X118618000Y-91440000D03*
X118618000Y-93980000D03*
X118618000Y-96520000D03*
X118618000Y-99060000D03*
X118618000Y-101600000D03*
X118618000Y-104140000D03*
X118618000Y-106680000D03*
X118618000Y-109220000D03*
D17*
X127000000Y-91440000D03*
X134620000Y-83820000D03*
X127000000Y-88900000D03*
X134620000Y-86360000D03*
X127000000Y-86360000D03*
X134620000Y-88900000D03*
X127000000Y-83820000D03*
G36*
G01*
X135471000Y-90640000D02*
X135471000Y-92240000D01*
G75*
G02*
X135420000Y-92291000I-51000J0D01*
G01*
X133820000Y-92291000D01*
G75*
G02*
X133769000Y-92240000I0J51000D01*
G01*
X133769000Y-90640000D01*
G75*
G02*
X133820000Y-90589000I51000J0D01*
G01*
X135420000Y-90589000D01*
G75*
G02*
X135471000Y-90640000I0J-51000D01*
G01*
G37*
G36*
G01*
X126932000Y-102350000D02*
X126932000Y-100850000D01*
G75*
G02*
X126983000Y-100799000I51000J0D01*
G01*
X128033000Y-100799000D01*
G75*
G02*
X128084000Y-100850000I0J-51000D01*
G01*
X128084000Y-102350000D01*
G75*
G02*
X128033000Y-102401000I-51000J0D01*
G01*
X126983000Y-102401000D01*
G75*
G02*
X126932000Y-102350000I0J51000D01*
G01*
G37*
D19*
X130048000Y-101600000D03*
X128778000Y-101600000D03*
G36*
G01*
X164524000Y-115050000D02*
X164524000Y-113550000D01*
G75*
G02*
X164575000Y-113499000I51000J0D01*
G01*
X165625000Y-113499000D01*
G75*
G02*
X165676000Y-113550000I0J-51000D01*
G01*
X165676000Y-115050000D01*
G75*
G02*
X165625000Y-115101000I-51000J0D01*
G01*
X164575000Y-115101000D01*
G75*
G02*
X164524000Y-115050000I0J51000D01*
G01*
G37*
X167640000Y-114300000D03*
X166370000Y-114300000D03*
D20*
X173000000Y-116000000D03*
X173000000Y-78000000D03*
X127000000Y-116000000D03*
X127000000Y-78000000D03*
D10*
G36*
X171718174Y-121142047D02*
G01*
X171717592Y-121143590D01*
X171717590Y-121143592D01*
X171717285Y-121143842D01*
X171677428Y-121170413D01*
X171662492Y-121182644D01*
X171650290Y-121197481D01*
X171641215Y-121214415D01*
X171635620Y-121232790D01*
X171633718Y-121251901D01*
X171635581Y-121271027D01*
X171641136Y-121289408D01*
X171650177Y-121306364D01*
X171662344Y-121321222D01*
X171677181Y-121333424D01*
X171694160Y-121342523D01*
X171700856Y-121344927D01*
X171702148Y-121346453D01*
X171701472Y-121348335D01*
X171699982Y-121348799D01*
X171692054Y-121348010D01*
X171682493Y-121348942D01*
X171673298Y-121351720D01*
X171664733Y-121356286D01*
X170943109Y-121837369D01*
X170940891Y-121837369D01*
X170219263Y-121356283D01*
X170210751Y-121351740D01*
X170201555Y-121348950D01*
X170192000Y-121348009D01*
X170183585Y-121348838D01*
X170181763Y-121348013D01*
X170181567Y-121346023D01*
X170182624Y-121345000D01*
X170198489Y-121338429D01*
X170214461Y-121327757D01*
X170228043Y-121314175D01*
X170238715Y-121298203D01*
X170246066Y-121280457D01*
X170249814Y-121261613D01*
X170249815Y-121242408D01*
X170246066Y-121223564D01*
X170238716Y-121205818D01*
X170228044Y-121189846D01*
X170214429Y-121176231D01*
X170206580Y-121170416D01*
X170205784Y-121168581D01*
X170206975Y-121166974D01*
X170208880Y-121167145D01*
X170914734Y-121637714D01*
X170923206Y-121642241D01*
X170932392Y-121645040D01*
X170941946Y-121645990D01*
X170951507Y-121645058D01*
X170960702Y-121642280D01*
X170969267Y-121637714D01*
X171675129Y-121167139D01*
X171715069Y-121140512D01*
X171717064Y-121140383D01*
X171718174Y-121142047D01*
G37*
G36*
X165677990Y-113758973D02*
G01*
X165679891Y-113778283D01*
X165685469Y-113796668D01*
X165694524Y-113813609D01*
X165706710Y-113828458D01*
X165721559Y-113840644D01*
X165738500Y-113849699D01*
X165756885Y-113855277D01*
X165775999Y-113857159D01*
X165795113Y-113855277D01*
X165813498Y-113849699D01*
X165830439Y-113840644D01*
X165845252Y-113828488D01*
X165860632Y-113807749D01*
X165862467Y-113806953D01*
X165864073Y-113808144D01*
X165864002Y-113809883D01*
X165839702Y-113855344D01*
X165807038Y-113963024D01*
X165796000Y-114075094D01*
X165796000Y-114524906D01*
X165807038Y-114636977D01*
X165839702Y-114744657D01*
X165863231Y-114788674D01*
X165863165Y-114790673D01*
X165861402Y-114791616D01*
X165859804Y-114790728D01*
X165851745Y-114778667D01*
X165838164Y-114765086D01*
X165822191Y-114754414D01*
X165804445Y-114747063D01*
X165785602Y-114743315D01*
X165766396Y-114743315D01*
X165747553Y-114747063D01*
X165729807Y-114754414D01*
X165713834Y-114765086D01*
X165700253Y-114778667D01*
X165689581Y-114794640D01*
X165682247Y-114812343D01*
X165677978Y-114841125D01*
X165676735Y-114842692D01*
X165674757Y-114842399D01*
X165674000Y-114840832D01*
X165674000Y-113759169D01*
X165675000Y-113757437D01*
X165677000Y-113757437D01*
X165677990Y-113758973D01*
G37*
G36*
X167100401Y-113883129D02*
G01*
X167100728Y-113884928D01*
X167077038Y-113963024D01*
X167066000Y-114075094D01*
X167066000Y-114524906D01*
X167077038Y-114636977D01*
X167100728Y-114715071D01*
X167100274Y-114717019D01*
X167098360Y-114717600D01*
X167096966Y-114716417D01*
X167091418Y-114703026D01*
X167080747Y-114687054D01*
X167067165Y-114673472D01*
X167051193Y-114662800D01*
X167033447Y-114655449D01*
X167014603Y-114651701D01*
X166995398Y-114651700D01*
X166976554Y-114655449D01*
X166958808Y-114662800D01*
X166942836Y-114673471D01*
X166929254Y-114687053D01*
X166918582Y-114703025D01*
X166913035Y-114716417D01*
X166911448Y-114717635D01*
X166909600Y-114716870D01*
X166909273Y-114715071D01*
X166932962Y-114636977D01*
X166944000Y-114524905D01*
X166944000Y-114075094D01*
X166932962Y-113963023D01*
X166909272Y-113884928D01*
X166909726Y-113882980D01*
X166911640Y-113882399D01*
X166913034Y-113883582D01*
X166918582Y-113896974D01*
X166929253Y-113912946D01*
X166942835Y-113926528D01*
X166958807Y-113937200D01*
X166976553Y-113944551D01*
X166995397Y-113948299D01*
X167014602Y-113948300D01*
X167033446Y-113944551D01*
X167051192Y-113937200D01*
X167067164Y-113926529D01*
X167080746Y-113912947D01*
X167091418Y-113896975D01*
X167096966Y-113883582D01*
X167098553Y-113882364D01*
X167100401Y-113883129D01*
G37*
G36*
X128755000Y-105158624D02*
G01*
X128761571Y-105174489D01*
X128772243Y-105190461D01*
X128785825Y-105204043D01*
X128801797Y-105214715D01*
X128819543Y-105222066D01*
X128838387Y-105225814D01*
X128857592Y-105225815D01*
X128876436Y-105222066D01*
X128894182Y-105214716D01*
X128910154Y-105204044D01*
X128923769Y-105190429D01*
X128929587Y-105182576D01*
X128931422Y-105181780D01*
X128933029Y-105182971D01*
X128932858Y-105184876D01*
X128462286Y-105890734D01*
X128457759Y-105899206D01*
X128454960Y-105908392D01*
X128454010Y-105917946D01*
X128454942Y-105927507D01*
X128457720Y-105936702D01*
X128462286Y-105945267D01*
X128932861Y-106651129D01*
X128932990Y-106653124D01*
X128931326Y-106654234D01*
X128929650Y-106653505D01*
X128917356Y-106638492D01*
X128902519Y-106626290D01*
X128885585Y-106617215D01*
X128867210Y-106611620D01*
X128848099Y-106609718D01*
X128828973Y-106611581D01*
X128810592Y-106617136D01*
X128793636Y-106626177D01*
X128778778Y-106638344D01*
X128766576Y-106653181D01*
X128757477Y-106670160D01*
X128755073Y-106676856D01*
X128753547Y-106678148D01*
X128751665Y-106677472D01*
X128751201Y-106675982D01*
X128751990Y-106668053D01*
X128751058Y-106658493D01*
X128748280Y-106649298D01*
X128743714Y-106640733D01*
X128262631Y-105919109D01*
X128262631Y-105916891D01*
X128743717Y-105195263D01*
X128748260Y-105186751D01*
X128751050Y-105177555D01*
X128751991Y-105168000D01*
X128751162Y-105159585D01*
X128751987Y-105157763D01*
X128753977Y-105157567D01*
X128755000Y-105158624D01*
G37*
G36*
X128085990Y-101058973D02*
G01*
X128087891Y-101078283D01*
X128093469Y-101096668D01*
X128102524Y-101113609D01*
X128114710Y-101128458D01*
X128129559Y-101140644D01*
X128146500Y-101149699D01*
X128164885Y-101155277D01*
X128183999Y-101157159D01*
X128203113Y-101155277D01*
X128221498Y-101149699D01*
X128238439Y-101140644D01*
X128253252Y-101128488D01*
X128268632Y-101107749D01*
X128270467Y-101106953D01*
X128272073Y-101108144D01*
X128272002Y-101109883D01*
X128247702Y-101155344D01*
X128215038Y-101263024D01*
X128204000Y-101375094D01*
X128204000Y-101824906D01*
X128215038Y-101936977D01*
X128247702Y-102044657D01*
X128271231Y-102088674D01*
X128271165Y-102090673D01*
X128269402Y-102091616D01*
X128267804Y-102090728D01*
X128259745Y-102078667D01*
X128246164Y-102065086D01*
X128230191Y-102054414D01*
X128212445Y-102047063D01*
X128193602Y-102043315D01*
X128174396Y-102043315D01*
X128155553Y-102047063D01*
X128137807Y-102054414D01*
X128121834Y-102065086D01*
X128108253Y-102078667D01*
X128097581Y-102094640D01*
X128090247Y-102112343D01*
X128085978Y-102141125D01*
X128084735Y-102142692D01*
X128082757Y-102142399D01*
X128082000Y-102140832D01*
X128082000Y-101059169D01*
X128083000Y-101057437D01*
X128085000Y-101057437D01*
X128085990Y-101058973D01*
G37*
G36*
X129508401Y-101183129D02*
G01*
X129508728Y-101184928D01*
X129485038Y-101263024D01*
X129474000Y-101375094D01*
X129474000Y-101824906D01*
X129485038Y-101936977D01*
X129508728Y-102015071D01*
X129508274Y-102017019D01*
X129506360Y-102017600D01*
X129504966Y-102016417D01*
X129499418Y-102003026D01*
X129488747Y-101987054D01*
X129475165Y-101973472D01*
X129459193Y-101962800D01*
X129441447Y-101955449D01*
X129422603Y-101951701D01*
X129403398Y-101951700D01*
X129384554Y-101955449D01*
X129366808Y-101962800D01*
X129350836Y-101973471D01*
X129337254Y-101987053D01*
X129326582Y-102003025D01*
X129321035Y-102016417D01*
X129319448Y-102017635D01*
X129317600Y-102016870D01*
X129317273Y-102015071D01*
X129340962Y-101936977D01*
X129352000Y-101824905D01*
X129352000Y-101375094D01*
X129340962Y-101263023D01*
X129317272Y-101184928D01*
X129317726Y-101182980D01*
X129319640Y-101182399D01*
X129321034Y-101183582D01*
X129326582Y-101196974D01*
X129337253Y-101212946D01*
X129350835Y-101226528D01*
X129366807Y-101237200D01*
X129384553Y-101244551D01*
X129403397Y-101248299D01*
X129422602Y-101248300D01*
X129441446Y-101244551D01*
X129459192Y-101237200D01*
X129475164Y-101226529D01*
X129488746Y-101212947D01*
X129499418Y-101196975D01*
X129504966Y-101183582D01*
X129506553Y-101182364D01*
X129508401Y-101183129D01*
G37*
G36*
X130623000Y-93855624D02*
G01*
X130629571Y-93871489D01*
X130640243Y-93887461D01*
X130653825Y-93901043D01*
X130669797Y-93911715D01*
X130687543Y-93919066D01*
X130706387Y-93922814D01*
X130725592Y-93922815D01*
X130744436Y-93919066D01*
X130762182Y-93911716D01*
X130778154Y-93901044D01*
X130791769Y-93887429D01*
X130797587Y-93879576D01*
X130799422Y-93878780D01*
X130801029Y-93879971D01*
X130800858Y-93881876D01*
X130330286Y-94587734D01*
X130325759Y-94596206D01*
X130322960Y-94605392D01*
X130322010Y-94614946D01*
X130322942Y-94624507D01*
X130325720Y-94633702D01*
X130330286Y-94642267D01*
X130800861Y-95348129D01*
X130800990Y-95350124D01*
X130799326Y-95351234D01*
X130797650Y-95350505D01*
X130785356Y-95335492D01*
X130770519Y-95323290D01*
X130753585Y-95314215D01*
X130735210Y-95308620D01*
X130716099Y-95306718D01*
X130696973Y-95308581D01*
X130678592Y-95314136D01*
X130661636Y-95323177D01*
X130646778Y-95335344D01*
X130634576Y-95350181D01*
X130625477Y-95367160D01*
X130623073Y-95373856D01*
X130621547Y-95375148D01*
X130619665Y-95374472D01*
X130619201Y-95372982D01*
X130619990Y-95365053D01*
X130619058Y-95355493D01*
X130616280Y-95346298D01*
X130611714Y-95337733D01*
X130130631Y-94616109D01*
X130130631Y-94613891D01*
X130611717Y-93892263D01*
X130616260Y-93883751D01*
X130619050Y-93874555D01*
X130619991Y-93865000D01*
X130619162Y-93856585D01*
X130619987Y-93854763D01*
X130621977Y-93854567D01*
X130623000Y-93855624D01*
G37*
G36*
X139304970Y-84998419D02*
G01*
X139310469Y-85016544D01*
X139319524Y-85033485D01*
X139331710Y-85048334D01*
X139346559Y-85060520D01*
X139363500Y-85069575D01*
X139381885Y-85075153D01*
X139400999Y-85077035D01*
X139420113Y-85075153D01*
X139438498Y-85069575D01*
X139455439Y-85060520D01*
X139470288Y-85048334D01*
X139479482Y-85037132D01*
X139481354Y-85036428D01*
X139482900Y-85037697D01*
X139482691Y-85039512D01*
X139436682Y-85108369D01*
X139350486Y-85316464D01*
X139306542Y-85537381D01*
X139306542Y-85762619D01*
X139350486Y-85983536D01*
X139436682Y-86191631D01*
X139482691Y-86260488D01*
X139482822Y-86262484D01*
X139481159Y-86263595D01*
X139479482Y-86262868D01*
X139470288Y-86251666D01*
X139455439Y-86239480D01*
X139438498Y-86230425D01*
X139420113Y-86224847D01*
X139400999Y-86222965D01*
X139381885Y-86224848D01*
X139363500Y-86230425D01*
X139346558Y-86239480D01*
X139331710Y-86251666D01*
X139319524Y-86266515D01*
X139310469Y-86283456D01*
X139304891Y-86301841D01*
X139302990Y-86321151D01*
X139301825Y-86322777D01*
X139299835Y-86322581D01*
X139299000Y-86320955D01*
X139299000Y-84999000D01*
X139300000Y-84997268D01*
X139301000Y-84997000D01*
X139303056Y-84997000D01*
X139304970Y-84998419D01*
G37*
M02*
