G04 #@! TF.GenerationSoftware,KiCad,Pcbnew,(5.1.10)-1*
G04 #@! TF.CreationDate,2021-09-09T16:44:11+02:00*
G04 #@! TF.ProjectId,Motorrumsstyrning,4d6f746f-7272-4756-9d73-737479726e69,rev?*
G04 #@! TF.SameCoordinates,Original*
G04 #@! TF.FileFunction,Soldermask,Bot*
G04 #@! TF.FilePolarity,Negative*
%FSLAX46Y46*%
G04 Gerber Fmt 4.6, Leading zero omitted, Abs format (unit mm)*
G04 Created by KiCad (PCBNEW (5.1.10)-1) date 2021-09-09 16:44:11*
%MOMM*%
%LPD*%
G01*
G04 APERTURE LIST*
%ADD10O,2.102000X2.007000*%
%ADD11C,1.752000*%
%ADD12C,2.302000*%
%ADD13C,1.632000*%
%ADD14O,1.802000X1.802000*%
%ADD15C,1.802000*%
%ADD16C,0.100000*%
%ADD17O,1.702000X1.702000*%
%ADD18C,1.702000*%
%ADD19O,1.152000X1.602000*%
%ADD20C,7.102000*%
G04 APERTURE END LIST*
D10*
X135255000Y-75565000D03*
X135255000Y-78105000D03*
G36*
G01*
X136255000Y-81648500D02*
X134255000Y-81648500D01*
G75*
G02*
X134204000Y-81597500I0J51000D01*
G01*
X134204000Y-79692500D01*
G75*
G02*
X134255000Y-79641500I51000J0D01*
G01*
X136255000Y-79641500D01*
G75*
G02*
X136306000Y-79692500I0J-51000D01*
G01*
X136306000Y-81597500D01*
G75*
G02*
X136255000Y-81648500I-51000J0D01*
G01*
G37*
D11*
X161450000Y-85650000D03*
D12*
X140450000Y-85650000D03*
G36*
G01*
X136501894Y-72261500D02*
X137818106Y-72261500D01*
G75*
G02*
X138086000Y-72529394I0J-267894D01*
G01*
X138086000Y-73520606D01*
G75*
G02*
X137818106Y-73788500I-267894J0D01*
G01*
X136501894Y-73788500D01*
G75*
G02*
X136234000Y-73520606I0J267894D01*
G01*
X136234000Y-72529394D01*
G75*
G02*
X136501894Y-72261500I267894J0D01*
G01*
G37*
G36*
G01*
X136501894Y-69286500D02*
X137818106Y-69286500D01*
G75*
G02*
X138086000Y-69554394I0J-267894D01*
G01*
X138086000Y-70545606D01*
G75*
G02*
X137818106Y-70813500I-267894J0D01*
G01*
X136501894Y-70813500D01*
G75*
G02*
X136234000Y-70545606I0J267894D01*
G01*
X136234000Y-69554394D01*
G75*
G02*
X136501894Y-69286500I267894J0D01*
G01*
G37*
G36*
G01*
X133856500Y-73683106D02*
X133856500Y-72366894D01*
G75*
G02*
X134124394Y-72099000I267894J0D01*
G01*
X135115606Y-72099000D01*
G75*
G02*
X135383500Y-72366894I0J-267894D01*
G01*
X135383500Y-73683106D01*
G75*
G02*
X135115606Y-73951000I-267894J0D01*
G01*
X134124394Y-73951000D01*
G75*
G02*
X133856500Y-73683106I0J267894D01*
G01*
G37*
G36*
G01*
X130881500Y-73683106D02*
X130881500Y-72366894D01*
G75*
G02*
X131149394Y-72099000I267894J0D01*
G01*
X132140606Y-72099000D01*
G75*
G02*
X132408500Y-72366894I0J-267894D01*
G01*
X132408500Y-73683106D01*
G75*
G02*
X132140606Y-73951000I-267894J0D01*
G01*
X131149394Y-73951000D01*
G75*
G02*
X130881500Y-73683106I0J267894D01*
G01*
G37*
D13*
X142240000Y-94615000D03*
X144780000Y-94615000D03*
X147320000Y-94615000D03*
X149860000Y-94615000D03*
X152400000Y-94615000D03*
X154940000Y-94615000D03*
X157480000Y-94615000D03*
X160020000Y-94615000D03*
X162560000Y-94615000D03*
X165100000Y-94615000D03*
X167640000Y-94615000D03*
X170180000Y-94615000D03*
X172720000Y-94615000D03*
X175260000Y-94615000D03*
G36*
G01*
X177035000Y-93799000D02*
X178565000Y-93799000D01*
G75*
G02*
X178616000Y-93850000I0J-51000D01*
G01*
X178616000Y-95380000D01*
G75*
G02*
X178565000Y-95431000I-51000J0D01*
G01*
X177035000Y-95431000D01*
G75*
G02*
X176984000Y-95380000I0J51000D01*
G01*
X176984000Y-93850000D01*
G75*
G02*
X177035000Y-93799000I51000J0D01*
G01*
G37*
X142240000Y-109855000D03*
X144780000Y-109855000D03*
X147320000Y-109855000D03*
X149860000Y-109855000D03*
X152400000Y-109855000D03*
X154940000Y-109855000D03*
X157480000Y-109855000D03*
X160020000Y-109855000D03*
X162560000Y-109855000D03*
X165100000Y-109855000D03*
X167640000Y-109855000D03*
X170180000Y-109855000D03*
X172720000Y-109855000D03*
X175260000Y-109855000D03*
G36*
G01*
X177035000Y-109039000D02*
X178565000Y-109039000D01*
G75*
G02*
X178616000Y-109090000I0J-51000D01*
G01*
X178616000Y-110620000D01*
G75*
G02*
X178565000Y-110671000I-51000J0D01*
G01*
X177035000Y-110671000D01*
G75*
G02*
X176984000Y-110620000I0J51000D01*
G01*
X176984000Y-109090000D01*
G75*
G02*
X177035000Y-109039000I51000J0D01*
G01*
G37*
D14*
X162560000Y-114935000D03*
X160020000Y-114935000D03*
X157480000Y-114935000D03*
X154940000Y-114935000D03*
X152400000Y-114935000D03*
X149860000Y-114935000D03*
X147320000Y-114935000D03*
X144780000Y-114935000D03*
G36*
G01*
X143090000Y-115836000D02*
X141390000Y-115836000D01*
G75*
G02*
X141339000Y-115785000I0J51000D01*
G01*
X141339000Y-114085000D01*
G75*
G02*
X141390000Y-114034000I51000J0D01*
G01*
X143090000Y-114034000D01*
G75*
G02*
X143141000Y-114085000I0J-51000D01*
G01*
X143141000Y-115785000D01*
G75*
G02*
X143090000Y-115836000I-51000J0D01*
G01*
G37*
D15*
X132842000Y-78105000D03*
X132969000Y-80645000D03*
X132842000Y-75565000D03*
D16*
G36*
X163360020Y-112381950D02*
G01*
X163357118Y-112391517D01*
X163352405Y-112400334D01*
X163346062Y-112408062D01*
X163338334Y-112414405D01*
X163329517Y-112419118D01*
X163319950Y-112422020D01*
X163310000Y-112423000D01*
X161810000Y-112423000D01*
X161800050Y-112422020D01*
X161790483Y-112419118D01*
X161781666Y-112414405D01*
X161773938Y-112408062D01*
X161767595Y-112400334D01*
X161762882Y-112391517D01*
X161759980Y-112381950D01*
X161759000Y-112372000D01*
X161759000Y-111872000D01*
X161759602Y-111865888D01*
X161759602Y-111847466D01*
X161759848Y-111842467D01*
X161764658Y-111793636D01*
X161765392Y-111788686D01*
X161774964Y-111740561D01*
X161776180Y-111735705D01*
X161790424Y-111688750D01*
X161792110Y-111684039D01*
X161810887Y-111638706D01*
X161813027Y-111634180D01*
X161836158Y-111590907D01*
X161838731Y-111586616D01*
X161865991Y-111545817D01*
X161868973Y-111541796D01*
X161900101Y-111503867D01*
X161903462Y-111500159D01*
X161938159Y-111465462D01*
X161941867Y-111462101D01*
X161979796Y-111430973D01*
X161983817Y-111427991D01*
X162024616Y-111400731D01*
X162028907Y-111398158D01*
X162072180Y-111375027D01*
X162076706Y-111372887D01*
X162122039Y-111354110D01*
X162126750Y-111352424D01*
X162173705Y-111338180D01*
X162178561Y-111336964D01*
X162226686Y-111327392D01*
X162231636Y-111326658D01*
X162280467Y-111321848D01*
X162285466Y-111321602D01*
X162303888Y-111321602D01*
X162310000Y-111321000D01*
X162810000Y-111321000D01*
X162816112Y-111321602D01*
X162834534Y-111321602D01*
X162839533Y-111321848D01*
X162888364Y-111326658D01*
X162893314Y-111327392D01*
X162941439Y-111336964D01*
X162946295Y-111338180D01*
X162993250Y-111352424D01*
X162997961Y-111354110D01*
X163043294Y-111372887D01*
X163047820Y-111375027D01*
X163091093Y-111398158D01*
X163095384Y-111400731D01*
X163136183Y-111427991D01*
X163140204Y-111430973D01*
X163178133Y-111462101D01*
X163181841Y-111465462D01*
X163216538Y-111500159D01*
X163219899Y-111503867D01*
X163251027Y-111541796D01*
X163254009Y-111545817D01*
X163281269Y-111586616D01*
X163283842Y-111590907D01*
X163306973Y-111634180D01*
X163309113Y-111638706D01*
X163327890Y-111684039D01*
X163329576Y-111688750D01*
X163343820Y-111735705D01*
X163345036Y-111740561D01*
X163354608Y-111788686D01*
X163355342Y-111793636D01*
X163360152Y-111842467D01*
X163360398Y-111847466D01*
X163360398Y-111865888D01*
X163361000Y-111872000D01*
X163361000Y-112372000D01*
X163360020Y-112381950D01*
G37*
G36*
X163360398Y-113178112D02*
G01*
X163360398Y-113196534D01*
X163360152Y-113201533D01*
X163355342Y-113250364D01*
X163354608Y-113255314D01*
X163345036Y-113303439D01*
X163343820Y-113308295D01*
X163329576Y-113355250D01*
X163327890Y-113359961D01*
X163309113Y-113405294D01*
X163306973Y-113409820D01*
X163283842Y-113453093D01*
X163281269Y-113457384D01*
X163254009Y-113498183D01*
X163251027Y-113502204D01*
X163219899Y-113540133D01*
X163216538Y-113543841D01*
X163181841Y-113578538D01*
X163178133Y-113581899D01*
X163140204Y-113613027D01*
X163136183Y-113616009D01*
X163095384Y-113643269D01*
X163091093Y-113645842D01*
X163047820Y-113668973D01*
X163043294Y-113671113D01*
X162997961Y-113689890D01*
X162993250Y-113691576D01*
X162946295Y-113705820D01*
X162941439Y-113707036D01*
X162893314Y-113716608D01*
X162888364Y-113717342D01*
X162839533Y-113722152D01*
X162834534Y-113722398D01*
X162816112Y-113722398D01*
X162810000Y-113723000D01*
X162310000Y-113723000D01*
X162303888Y-113722398D01*
X162285466Y-113722398D01*
X162280467Y-113722152D01*
X162231636Y-113717342D01*
X162226686Y-113716608D01*
X162178561Y-113707036D01*
X162173705Y-113705820D01*
X162126750Y-113691576D01*
X162122039Y-113689890D01*
X162076706Y-113671113D01*
X162072180Y-113668973D01*
X162028907Y-113645842D01*
X162024616Y-113643269D01*
X161983817Y-113616009D01*
X161979796Y-113613027D01*
X161941867Y-113581899D01*
X161938159Y-113578538D01*
X161903462Y-113543841D01*
X161900101Y-113540133D01*
X161868973Y-113502204D01*
X161865991Y-113498183D01*
X161838731Y-113457384D01*
X161836158Y-113453093D01*
X161813027Y-113409820D01*
X161810887Y-113405294D01*
X161792110Y-113359961D01*
X161790424Y-113355250D01*
X161776180Y-113308295D01*
X161774964Y-113303439D01*
X161765392Y-113255314D01*
X161764658Y-113250364D01*
X161759848Y-113201533D01*
X161759602Y-113196534D01*
X161759602Y-113178112D01*
X161759000Y-113172000D01*
X161759000Y-112672000D01*
X161759980Y-112662050D01*
X161762882Y-112652483D01*
X161767595Y-112643666D01*
X161773938Y-112635938D01*
X161781666Y-112629595D01*
X161790483Y-112624882D01*
X161800050Y-112621980D01*
X161810000Y-112621000D01*
X163310000Y-112621000D01*
X163319950Y-112621980D01*
X163329517Y-112624882D01*
X163338334Y-112629595D01*
X163346062Y-112635938D01*
X163352405Y-112643666D01*
X163357118Y-112652483D01*
X163360020Y-112662050D01*
X163361000Y-112672000D01*
X163361000Y-113172000D01*
X163360398Y-113178112D01*
G37*
G36*
X160820020Y-112381950D02*
G01*
X160817118Y-112391517D01*
X160812405Y-112400334D01*
X160806062Y-112408062D01*
X160798334Y-112414405D01*
X160789517Y-112419118D01*
X160779950Y-112422020D01*
X160770000Y-112423000D01*
X159270000Y-112423000D01*
X159260050Y-112422020D01*
X159250483Y-112419118D01*
X159241666Y-112414405D01*
X159233938Y-112408062D01*
X159227595Y-112400334D01*
X159222882Y-112391517D01*
X159219980Y-112381950D01*
X159219000Y-112372000D01*
X159219000Y-111872000D01*
X159219602Y-111865888D01*
X159219602Y-111847466D01*
X159219848Y-111842467D01*
X159224658Y-111793636D01*
X159225392Y-111788686D01*
X159234964Y-111740561D01*
X159236180Y-111735705D01*
X159250424Y-111688750D01*
X159252110Y-111684039D01*
X159270887Y-111638706D01*
X159273027Y-111634180D01*
X159296158Y-111590907D01*
X159298731Y-111586616D01*
X159325991Y-111545817D01*
X159328973Y-111541796D01*
X159360101Y-111503867D01*
X159363462Y-111500159D01*
X159398159Y-111465462D01*
X159401867Y-111462101D01*
X159439796Y-111430973D01*
X159443817Y-111427991D01*
X159484616Y-111400731D01*
X159488907Y-111398158D01*
X159532180Y-111375027D01*
X159536706Y-111372887D01*
X159582039Y-111354110D01*
X159586750Y-111352424D01*
X159633705Y-111338180D01*
X159638561Y-111336964D01*
X159686686Y-111327392D01*
X159691636Y-111326658D01*
X159740467Y-111321848D01*
X159745466Y-111321602D01*
X159763888Y-111321602D01*
X159770000Y-111321000D01*
X160270000Y-111321000D01*
X160276112Y-111321602D01*
X160294534Y-111321602D01*
X160299533Y-111321848D01*
X160348364Y-111326658D01*
X160353314Y-111327392D01*
X160401439Y-111336964D01*
X160406295Y-111338180D01*
X160453250Y-111352424D01*
X160457961Y-111354110D01*
X160503294Y-111372887D01*
X160507820Y-111375027D01*
X160551093Y-111398158D01*
X160555384Y-111400731D01*
X160596183Y-111427991D01*
X160600204Y-111430973D01*
X160638133Y-111462101D01*
X160641841Y-111465462D01*
X160676538Y-111500159D01*
X160679899Y-111503867D01*
X160711027Y-111541796D01*
X160714009Y-111545817D01*
X160741269Y-111586616D01*
X160743842Y-111590907D01*
X160766973Y-111634180D01*
X160769113Y-111638706D01*
X160787890Y-111684039D01*
X160789576Y-111688750D01*
X160803820Y-111735705D01*
X160805036Y-111740561D01*
X160814608Y-111788686D01*
X160815342Y-111793636D01*
X160820152Y-111842467D01*
X160820398Y-111847466D01*
X160820398Y-111865888D01*
X160821000Y-111872000D01*
X160821000Y-112372000D01*
X160820020Y-112381950D01*
G37*
G36*
X160820398Y-113178112D02*
G01*
X160820398Y-113196534D01*
X160820152Y-113201533D01*
X160815342Y-113250364D01*
X160814608Y-113255314D01*
X160805036Y-113303439D01*
X160803820Y-113308295D01*
X160789576Y-113355250D01*
X160787890Y-113359961D01*
X160769113Y-113405294D01*
X160766973Y-113409820D01*
X160743842Y-113453093D01*
X160741269Y-113457384D01*
X160714009Y-113498183D01*
X160711027Y-113502204D01*
X160679899Y-113540133D01*
X160676538Y-113543841D01*
X160641841Y-113578538D01*
X160638133Y-113581899D01*
X160600204Y-113613027D01*
X160596183Y-113616009D01*
X160555384Y-113643269D01*
X160551093Y-113645842D01*
X160507820Y-113668973D01*
X160503294Y-113671113D01*
X160457961Y-113689890D01*
X160453250Y-113691576D01*
X160406295Y-113705820D01*
X160401439Y-113707036D01*
X160353314Y-113716608D01*
X160348364Y-113717342D01*
X160299533Y-113722152D01*
X160294534Y-113722398D01*
X160276112Y-113722398D01*
X160270000Y-113723000D01*
X159770000Y-113723000D01*
X159763888Y-113722398D01*
X159745466Y-113722398D01*
X159740467Y-113722152D01*
X159691636Y-113717342D01*
X159686686Y-113716608D01*
X159638561Y-113707036D01*
X159633705Y-113705820D01*
X159586750Y-113691576D01*
X159582039Y-113689890D01*
X159536706Y-113671113D01*
X159532180Y-113668973D01*
X159488907Y-113645842D01*
X159484616Y-113643269D01*
X159443817Y-113616009D01*
X159439796Y-113613027D01*
X159401867Y-113581899D01*
X159398159Y-113578538D01*
X159363462Y-113543841D01*
X159360101Y-113540133D01*
X159328973Y-113502204D01*
X159325991Y-113498183D01*
X159298731Y-113457384D01*
X159296158Y-113453093D01*
X159273027Y-113409820D01*
X159270887Y-113405294D01*
X159252110Y-113359961D01*
X159250424Y-113355250D01*
X159236180Y-113308295D01*
X159234964Y-113303439D01*
X159225392Y-113255314D01*
X159224658Y-113250364D01*
X159219848Y-113201533D01*
X159219602Y-113196534D01*
X159219602Y-113178112D01*
X159219000Y-113172000D01*
X159219000Y-112672000D01*
X159219980Y-112662050D01*
X159222882Y-112652483D01*
X159227595Y-112643666D01*
X159233938Y-112635938D01*
X159241666Y-112629595D01*
X159250483Y-112624882D01*
X159260050Y-112621980D01*
X159270000Y-112621000D01*
X160770000Y-112621000D01*
X160779950Y-112621980D01*
X160789517Y-112624882D01*
X160798334Y-112629595D01*
X160806062Y-112635938D01*
X160812405Y-112643666D01*
X160817118Y-112652483D01*
X160820020Y-112662050D01*
X160821000Y-112672000D01*
X160821000Y-113172000D01*
X160820398Y-113178112D01*
G37*
G36*
X158280020Y-112381950D02*
G01*
X158277118Y-112391517D01*
X158272405Y-112400334D01*
X158266062Y-112408062D01*
X158258334Y-112414405D01*
X158249517Y-112419118D01*
X158239950Y-112422020D01*
X158230000Y-112423000D01*
X156730000Y-112423000D01*
X156720050Y-112422020D01*
X156710483Y-112419118D01*
X156701666Y-112414405D01*
X156693938Y-112408062D01*
X156687595Y-112400334D01*
X156682882Y-112391517D01*
X156679980Y-112381950D01*
X156679000Y-112372000D01*
X156679000Y-111872000D01*
X156679602Y-111865888D01*
X156679602Y-111847466D01*
X156679848Y-111842467D01*
X156684658Y-111793636D01*
X156685392Y-111788686D01*
X156694964Y-111740561D01*
X156696180Y-111735705D01*
X156710424Y-111688750D01*
X156712110Y-111684039D01*
X156730887Y-111638706D01*
X156733027Y-111634180D01*
X156756158Y-111590907D01*
X156758731Y-111586616D01*
X156785991Y-111545817D01*
X156788973Y-111541796D01*
X156820101Y-111503867D01*
X156823462Y-111500159D01*
X156858159Y-111465462D01*
X156861867Y-111462101D01*
X156899796Y-111430973D01*
X156903817Y-111427991D01*
X156944616Y-111400731D01*
X156948907Y-111398158D01*
X156992180Y-111375027D01*
X156996706Y-111372887D01*
X157042039Y-111354110D01*
X157046750Y-111352424D01*
X157093705Y-111338180D01*
X157098561Y-111336964D01*
X157146686Y-111327392D01*
X157151636Y-111326658D01*
X157200467Y-111321848D01*
X157205466Y-111321602D01*
X157223888Y-111321602D01*
X157230000Y-111321000D01*
X157730000Y-111321000D01*
X157736112Y-111321602D01*
X157754534Y-111321602D01*
X157759533Y-111321848D01*
X157808364Y-111326658D01*
X157813314Y-111327392D01*
X157861439Y-111336964D01*
X157866295Y-111338180D01*
X157913250Y-111352424D01*
X157917961Y-111354110D01*
X157963294Y-111372887D01*
X157967820Y-111375027D01*
X158011093Y-111398158D01*
X158015384Y-111400731D01*
X158056183Y-111427991D01*
X158060204Y-111430973D01*
X158098133Y-111462101D01*
X158101841Y-111465462D01*
X158136538Y-111500159D01*
X158139899Y-111503867D01*
X158171027Y-111541796D01*
X158174009Y-111545817D01*
X158201269Y-111586616D01*
X158203842Y-111590907D01*
X158226973Y-111634180D01*
X158229113Y-111638706D01*
X158247890Y-111684039D01*
X158249576Y-111688750D01*
X158263820Y-111735705D01*
X158265036Y-111740561D01*
X158274608Y-111788686D01*
X158275342Y-111793636D01*
X158280152Y-111842467D01*
X158280398Y-111847466D01*
X158280398Y-111865888D01*
X158281000Y-111872000D01*
X158281000Y-112372000D01*
X158280020Y-112381950D01*
G37*
G36*
X158280398Y-113178112D02*
G01*
X158280398Y-113196534D01*
X158280152Y-113201533D01*
X158275342Y-113250364D01*
X158274608Y-113255314D01*
X158265036Y-113303439D01*
X158263820Y-113308295D01*
X158249576Y-113355250D01*
X158247890Y-113359961D01*
X158229113Y-113405294D01*
X158226973Y-113409820D01*
X158203842Y-113453093D01*
X158201269Y-113457384D01*
X158174009Y-113498183D01*
X158171027Y-113502204D01*
X158139899Y-113540133D01*
X158136538Y-113543841D01*
X158101841Y-113578538D01*
X158098133Y-113581899D01*
X158060204Y-113613027D01*
X158056183Y-113616009D01*
X158015384Y-113643269D01*
X158011093Y-113645842D01*
X157967820Y-113668973D01*
X157963294Y-113671113D01*
X157917961Y-113689890D01*
X157913250Y-113691576D01*
X157866295Y-113705820D01*
X157861439Y-113707036D01*
X157813314Y-113716608D01*
X157808364Y-113717342D01*
X157759533Y-113722152D01*
X157754534Y-113722398D01*
X157736112Y-113722398D01*
X157730000Y-113723000D01*
X157230000Y-113723000D01*
X157223888Y-113722398D01*
X157205466Y-113722398D01*
X157200467Y-113722152D01*
X157151636Y-113717342D01*
X157146686Y-113716608D01*
X157098561Y-113707036D01*
X157093705Y-113705820D01*
X157046750Y-113691576D01*
X157042039Y-113689890D01*
X156996706Y-113671113D01*
X156992180Y-113668973D01*
X156948907Y-113645842D01*
X156944616Y-113643269D01*
X156903817Y-113616009D01*
X156899796Y-113613027D01*
X156861867Y-113581899D01*
X156858159Y-113578538D01*
X156823462Y-113543841D01*
X156820101Y-113540133D01*
X156788973Y-113502204D01*
X156785991Y-113498183D01*
X156758731Y-113457384D01*
X156756158Y-113453093D01*
X156733027Y-113409820D01*
X156730887Y-113405294D01*
X156712110Y-113359961D01*
X156710424Y-113355250D01*
X156696180Y-113308295D01*
X156694964Y-113303439D01*
X156685392Y-113255314D01*
X156684658Y-113250364D01*
X156679848Y-113201533D01*
X156679602Y-113196534D01*
X156679602Y-113178112D01*
X156679000Y-113172000D01*
X156679000Y-112672000D01*
X156679980Y-112662050D01*
X156682882Y-112652483D01*
X156687595Y-112643666D01*
X156693938Y-112635938D01*
X156701666Y-112629595D01*
X156710483Y-112624882D01*
X156720050Y-112621980D01*
X156730000Y-112621000D01*
X158230000Y-112621000D01*
X158239950Y-112621980D01*
X158249517Y-112624882D01*
X158258334Y-112629595D01*
X158266062Y-112635938D01*
X158272405Y-112643666D01*
X158277118Y-112652483D01*
X158280020Y-112662050D01*
X158281000Y-112672000D01*
X158281000Y-113172000D01*
X158280398Y-113178112D01*
G37*
G36*
X155740020Y-112381950D02*
G01*
X155737118Y-112391517D01*
X155732405Y-112400334D01*
X155726062Y-112408062D01*
X155718334Y-112414405D01*
X155709517Y-112419118D01*
X155699950Y-112422020D01*
X155690000Y-112423000D01*
X154190000Y-112423000D01*
X154180050Y-112422020D01*
X154170483Y-112419118D01*
X154161666Y-112414405D01*
X154153938Y-112408062D01*
X154147595Y-112400334D01*
X154142882Y-112391517D01*
X154139980Y-112381950D01*
X154139000Y-112372000D01*
X154139000Y-111872000D01*
X154139602Y-111865888D01*
X154139602Y-111847466D01*
X154139848Y-111842467D01*
X154144658Y-111793636D01*
X154145392Y-111788686D01*
X154154964Y-111740561D01*
X154156180Y-111735705D01*
X154170424Y-111688750D01*
X154172110Y-111684039D01*
X154190887Y-111638706D01*
X154193027Y-111634180D01*
X154216158Y-111590907D01*
X154218731Y-111586616D01*
X154245991Y-111545817D01*
X154248973Y-111541796D01*
X154280101Y-111503867D01*
X154283462Y-111500159D01*
X154318159Y-111465462D01*
X154321867Y-111462101D01*
X154359796Y-111430973D01*
X154363817Y-111427991D01*
X154404616Y-111400731D01*
X154408907Y-111398158D01*
X154452180Y-111375027D01*
X154456706Y-111372887D01*
X154502039Y-111354110D01*
X154506750Y-111352424D01*
X154553705Y-111338180D01*
X154558561Y-111336964D01*
X154606686Y-111327392D01*
X154611636Y-111326658D01*
X154660467Y-111321848D01*
X154665466Y-111321602D01*
X154683888Y-111321602D01*
X154690000Y-111321000D01*
X155190000Y-111321000D01*
X155196112Y-111321602D01*
X155214534Y-111321602D01*
X155219533Y-111321848D01*
X155268364Y-111326658D01*
X155273314Y-111327392D01*
X155321439Y-111336964D01*
X155326295Y-111338180D01*
X155373250Y-111352424D01*
X155377961Y-111354110D01*
X155423294Y-111372887D01*
X155427820Y-111375027D01*
X155471093Y-111398158D01*
X155475384Y-111400731D01*
X155516183Y-111427991D01*
X155520204Y-111430973D01*
X155558133Y-111462101D01*
X155561841Y-111465462D01*
X155596538Y-111500159D01*
X155599899Y-111503867D01*
X155631027Y-111541796D01*
X155634009Y-111545817D01*
X155661269Y-111586616D01*
X155663842Y-111590907D01*
X155686973Y-111634180D01*
X155689113Y-111638706D01*
X155707890Y-111684039D01*
X155709576Y-111688750D01*
X155723820Y-111735705D01*
X155725036Y-111740561D01*
X155734608Y-111788686D01*
X155735342Y-111793636D01*
X155740152Y-111842467D01*
X155740398Y-111847466D01*
X155740398Y-111865888D01*
X155741000Y-111872000D01*
X155741000Y-112372000D01*
X155740020Y-112381950D01*
G37*
G36*
X155740398Y-113178112D02*
G01*
X155740398Y-113196534D01*
X155740152Y-113201533D01*
X155735342Y-113250364D01*
X155734608Y-113255314D01*
X155725036Y-113303439D01*
X155723820Y-113308295D01*
X155709576Y-113355250D01*
X155707890Y-113359961D01*
X155689113Y-113405294D01*
X155686973Y-113409820D01*
X155663842Y-113453093D01*
X155661269Y-113457384D01*
X155634009Y-113498183D01*
X155631027Y-113502204D01*
X155599899Y-113540133D01*
X155596538Y-113543841D01*
X155561841Y-113578538D01*
X155558133Y-113581899D01*
X155520204Y-113613027D01*
X155516183Y-113616009D01*
X155475384Y-113643269D01*
X155471093Y-113645842D01*
X155427820Y-113668973D01*
X155423294Y-113671113D01*
X155377961Y-113689890D01*
X155373250Y-113691576D01*
X155326295Y-113705820D01*
X155321439Y-113707036D01*
X155273314Y-113716608D01*
X155268364Y-113717342D01*
X155219533Y-113722152D01*
X155214534Y-113722398D01*
X155196112Y-113722398D01*
X155190000Y-113723000D01*
X154690000Y-113723000D01*
X154683888Y-113722398D01*
X154665466Y-113722398D01*
X154660467Y-113722152D01*
X154611636Y-113717342D01*
X154606686Y-113716608D01*
X154558561Y-113707036D01*
X154553705Y-113705820D01*
X154506750Y-113691576D01*
X154502039Y-113689890D01*
X154456706Y-113671113D01*
X154452180Y-113668973D01*
X154408907Y-113645842D01*
X154404616Y-113643269D01*
X154363817Y-113616009D01*
X154359796Y-113613027D01*
X154321867Y-113581899D01*
X154318159Y-113578538D01*
X154283462Y-113543841D01*
X154280101Y-113540133D01*
X154248973Y-113502204D01*
X154245991Y-113498183D01*
X154218731Y-113457384D01*
X154216158Y-113453093D01*
X154193027Y-113409820D01*
X154190887Y-113405294D01*
X154172110Y-113359961D01*
X154170424Y-113355250D01*
X154156180Y-113308295D01*
X154154964Y-113303439D01*
X154145392Y-113255314D01*
X154144658Y-113250364D01*
X154139848Y-113201533D01*
X154139602Y-113196534D01*
X154139602Y-113178112D01*
X154139000Y-113172000D01*
X154139000Y-112672000D01*
X154139980Y-112662050D01*
X154142882Y-112652483D01*
X154147595Y-112643666D01*
X154153938Y-112635938D01*
X154161666Y-112629595D01*
X154170483Y-112624882D01*
X154180050Y-112621980D01*
X154190000Y-112621000D01*
X155690000Y-112621000D01*
X155699950Y-112621980D01*
X155709517Y-112624882D01*
X155718334Y-112629595D01*
X155726062Y-112635938D01*
X155732405Y-112643666D01*
X155737118Y-112652483D01*
X155740020Y-112662050D01*
X155741000Y-112672000D01*
X155741000Y-113172000D01*
X155740398Y-113178112D01*
G37*
G36*
X153200020Y-112381950D02*
G01*
X153197118Y-112391517D01*
X153192405Y-112400334D01*
X153186062Y-112408062D01*
X153178334Y-112414405D01*
X153169517Y-112419118D01*
X153159950Y-112422020D01*
X153150000Y-112423000D01*
X151650000Y-112423000D01*
X151640050Y-112422020D01*
X151630483Y-112419118D01*
X151621666Y-112414405D01*
X151613938Y-112408062D01*
X151607595Y-112400334D01*
X151602882Y-112391517D01*
X151599980Y-112381950D01*
X151599000Y-112372000D01*
X151599000Y-111872000D01*
X151599602Y-111865888D01*
X151599602Y-111847466D01*
X151599848Y-111842467D01*
X151604658Y-111793636D01*
X151605392Y-111788686D01*
X151614964Y-111740561D01*
X151616180Y-111735705D01*
X151630424Y-111688750D01*
X151632110Y-111684039D01*
X151650887Y-111638706D01*
X151653027Y-111634180D01*
X151676158Y-111590907D01*
X151678731Y-111586616D01*
X151705991Y-111545817D01*
X151708973Y-111541796D01*
X151740101Y-111503867D01*
X151743462Y-111500159D01*
X151778159Y-111465462D01*
X151781867Y-111462101D01*
X151819796Y-111430973D01*
X151823817Y-111427991D01*
X151864616Y-111400731D01*
X151868907Y-111398158D01*
X151912180Y-111375027D01*
X151916706Y-111372887D01*
X151962039Y-111354110D01*
X151966750Y-111352424D01*
X152013705Y-111338180D01*
X152018561Y-111336964D01*
X152066686Y-111327392D01*
X152071636Y-111326658D01*
X152120467Y-111321848D01*
X152125466Y-111321602D01*
X152143888Y-111321602D01*
X152150000Y-111321000D01*
X152650000Y-111321000D01*
X152656112Y-111321602D01*
X152674534Y-111321602D01*
X152679533Y-111321848D01*
X152728364Y-111326658D01*
X152733314Y-111327392D01*
X152781439Y-111336964D01*
X152786295Y-111338180D01*
X152833250Y-111352424D01*
X152837961Y-111354110D01*
X152883294Y-111372887D01*
X152887820Y-111375027D01*
X152931093Y-111398158D01*
X152935384Y-111400731D01*
X152976183Y-111427991D01*
X152980204Y-111430973D01*
X153018133Y-111462101D01*
X153021841Y-111465462D01*
X153056538Y-111500159D01*
X153059899Y-111503867D01*
X153091027Y-111541796D01*
X153094009Y-111545817D01*
X153121269Y-111586616D01*
X153123842Y-111590907D01*
X153146973Y-111634180D01*
X153149113Y-111638706D01*
X153167890Y-111684039D01*
X153169576Y-111688750D01*
X153183820Y-111735705D01*
X153185036Y-111740561D01*
X153194608Y-111788686D01*
X153195342Y-111793636D01*
X153200152Y-111842467D01*
X153200398Y-111847466D01*
X153200398Y-111865888D01*
X153201000Y-111872000D01*
X153201000Y-112372000D01*
X153200020Y-112381950D01*
G37*
G36*
X153200398Y-113178112D02*
G01*
X153200398Y-113196534D01*
X153200152Y-113201533D01*
X153195342Y-113250364D01*
X153194608Y-113255314D01*
X153185036Y-113303439D01*
X153183820Y-113308295D01*
X153169576Y-113355250D01*
X153167890Y-113359961D01*
X153149113Y-113405294D01*
X153146973Y-113409820D01*
X153123842Y-113453093D01*
X153121269Y-113457384D01*
X153094009Y-113498183D01*
X153091027Y-113502204D01*
X153059899Y-113540133D01*
X153056538Y-113543841D01*
X153021841Y-113578538D01*
X153018133Y-113581899D01*
X152980204Y-113613027D01*
X152976183Y-113616009D01*
X152935384Y-113643269D01*
X152931093Y-113645842D01*
X152887820Y-113668973D01*
X152883294Y-113671113D01*
X152837961Y-113689890D01*
X152833250Y-113691576D01*
X152786295Y-113705820D01*
X152781439Y-113707036D01*
X152733314Y-113716608D01*
X152728364Y-113717342D01*
X152679533Y-113722152D01*
X152674534Y-113722398D01*
X152656112Y-113722398D01*
X152650000Y-113723000D01*
X152150000Y-113723000D01*
X152143888Y-113722398D01*
X152125466Y-113722398D01*
X152120467Y-113722152D01*
X152071636Y-113717342D01*
X152066686Y-113716608D01*
X152018561Y-113707036D01*
X152013705Y-113705820D01*
X151966750Y-113691576D01*
X151962039Y-113689890D01*
X151916706Y-113671113D01*
X151912180Y-113668973D01*
X151868907Y-113645842D01*
X151864616Y-113643269D01*
X151823817Y-113616009D01*
X151819796Y-113613027D01*
X151781867Y-113581899D01*
X151778159Y-113578538D01*
X151743462Y-113543841D01*
X151740101Y-113540133D01*
X151708973Y-113502204D01*
X151705991Y-113498183D01*
X151678731Y-113457384D01*
X151676158Y-113453093D01*
X151653027Y-113409820D01*
X151650887Y-113405294D01*
X151632110Y-113359961D01*
X151630424Y-113355250D01*
X151616180Y-113308295D01*
X151614964Y-113303439D01*
X151605392Y-113255314D01*
X151604658Y-113250364D01*
X151599848Y-113201533D01*
X151599602Y-113196534D01*
X151599602Y-113178112D01*
X151599000Y-113172000D01*
X151599000Y-112672000D01*
X151599980Y-112662050D01*
X151602882Y-112652483D01*
X151607595Y-112643666D01*
X151613938Y-112635938D01*
X151621666Y-112629595D01*
X151630483Y-112624882D01*
X151640050Y-112621980D01*
X151650000Y-112621000D01*
X153150000Y-112621000D01*
X153159950Y-112621980D01*
X153169517Y-112624882D01*
X153178334Y-112629595D01*
X153186062Y-112635938D01*
X153192405Y-112643666D01*
X153197118Y-112652483D01*
X153200020Y-112662050D01*
X153201000Y-112672000D01*
X153201000Y-113172000D01*
X153200398Y-113178112D01*
G37*
G36*
X150660020Y-112381950D02*
G01*
X150657118Y-112391517D01*
X150652405Y-112400334D01*
X150646062Y-112408062D01*
X150638334Y-112414405D01*
X150629517Y-112419118D01*
X150619950Y-112422020D01*
X150610000Y-112423000D01*
X149110000Y-112423000D01*
X149100050Y-112422020D01*
X149090483Y-112419118D01*
X149081666Y-112414405D01*
X149073938Y-112408062D01*
X149067595Y-112400334D01*
X149062882Y-112391517D01*
X149059980Y-112381950D01*
X149059000Y-112372000D01*
X149059000Y-111872000D01*
X149059602Y-111865888D01*
X149059602Y-111847466D01*
X149059848Y-111842467D01*
X149064658Y-111793636D01*
X149065392Y-111788686D01*
X149074964Y-111740561D01*
X149076180Y-111735705D01*
X149090424Y-111688750D01*
X149092110Y-111684039D01*
X149110887Y-111638706D01*
X149113027Y-111634180D01*
X149136158Y-111590907D01*
X149138731Y-111586616D01*
X149165991Y-111545817D01*
X149168973Y-111541796D01*
X149200101Y-111503867D01*
X149203462Y-111500159D01*
X149238159Y-111465462D01*
X149241867Y-111462101D01*
X149279796Y-111430973D01*
X149283817Y-111427991D01*
X149324616Y-111400731D01*
X149328907Y-111398158D01*
X149372180Y-111375027D01*
X149376706Y-111372887D01*
X149422039Y-111354110D01*
X149426750Y-111352424D01*
X149473705Y-111338180D01*
X149478561Y-111336964D01*
X149526686Y-111327392D01*
X149531636Y-111326658D01*
X149580467Y-111321848D01*
X149585466Y-111321602D01*
X149603888Y-111321602D01*
X149610000Y-111321000D01*
X150110000Y-111321000D01*
X150116112Y-111321602D01*
X150134534Y-111321602D01*
X150139533Y-111321848D01*
X150188364Y-111326658D01*
X150193314Y-111327392D01*
X150241439Y-111336964D01*
X150246295Y-111338180D01*
X150293250Y-111352424D01*
X150297961Y-111354110D01*
X150343294Y-111372887D01*
X150347820Y-111375027D01*
X150391093Y-111398158D01*
X150395384Y-111400731D01*
X150436183Y-111427991D01*
X150440204Y-111430973D01*
X150478133Y-111462101D01*
X150481841Y-111465462D01*
X150516538Y-111500159D01*
X150519899Y-111503867D01*
X150551027Y-111541796D01*
X150554009Y-111545817D01*
X150581269Y-111586616D01*
X150583842Y-111590907D01*
X150606973Y-111634180D01*
X150609113Y-111638706D01*
X150627890Y-111684039D01*
X150629576Y-111688750D01*
X150643820Y-111735705D01*
X150645036Y-111740561D01*
X150654608Y-111788686D01*
X150655342Y-111793636D01*
X150660152Y-111842467D01*
X150660398Y-111847466D01*
X150660398Y-111865888D01*
X150661000Y-111872000D01*
X150661000Y-112372000D01*
X150660020Y-112381950D01*
G37*
G36*
X150660398Y-113178112D02*
G01*
X150660398Y-113196534D01*
X150660152Y-113201533D01*
X150655342Y-113250364D01*
X150654608Y-113255314D01*
X150645036Y-113303439D01*
X150643820Y-113308295D01*
X150629576Y-113355250D01*
X150627890Y-113359961D01*
X150609113Y-113405294D01*
X150606973Y-113409820D01*
X150583842Y-113453093D01*
X150581269Y-113457384D01*
X150554009Y-113498183D01*
X150551027Y-113502204D01*
X150519899Y-113540133D01*
X150516538Y-113543841D01*
X150481841Y-113578538D01*
X150478133Y-113581899D01*
X150440204Y-113613027D01*
X150436183Y-113616009D01*
X150395384Y-113643269D01*
X150391093Y-113645842D01*
X150347820Y-113668973D01*
X150343294Y-113671113D01*
X150297961Y-113689890D01*
X150293250Y-113691576D01*
X150246295Y-113705820D01*
X150241439Y-113707036D01*
X150193314Y-113716608D01*
X150188364Y-113717342D01*
X150139533Y-113722152D01*
X150134534Y-113722398D01*
X150116112Y-113722398D01*
X150110000Y-113723000D01*
X149610000Y-113723000D01*
X149603888Y-113722398D01*
X149585466Y-113722398D01*
X149580467Y-113722152D01*
X149531636Y-113717342D01*
X149526686Y-113716608D01*
X149478561Y-113707036D01*
X149473705Y-113705820D01*
X149426750Y-113691576D01*
X149422039Y-113689890D01*
X149376706Y-113671113D01*
X149372180Y-113668973D01*
X149328907Y-113645842D01*
X149324616Y-113643269D01*
X149283817Y-113616009D01*
X149279796Y-113613027D01*
X149241867Y-113581899D01*
X149238159Y-113578538D01*
X149203462Y-113543841D01*
X149200101Y-113540133D01*
X149168973Y-113502204D01*
X149165991Y-113498183D01*
X149138731Y-113457384D01*
X149136158Y-113453093D01*
X149113027Y-113409820D01*
X149110887Y-113405294D01*
X149092110Y-113359961D01*
X149090424Y-113355250D01*
X149076180Y-113308295D01*
X149074964Y-113303439D01*
X149065392Y-113255314D01*
X149064658Y-113250364D01*
X149059848Y-113201533D01*
X149059602Y-113196534D01*
X149059602Y-113178112D01*
X149059000Y-113172000D01*
X149059000Y-112672000D01*
X149059980Y-112662050D01*
X149062882Y-112652483D01*
X149067595Y-112643666D01*
X149073938Y-112635938D01*
X149081666Y-112629595D01*
X149090483Y-112624882D01*
X149100050Y-112621980D01*
X149110000Y-112621000D01*
X150610000Y-112621000D01*
X150619950Y-112621980D01*
X150629517Y-112624882D01*
X150638334Y-112629595D01*
X150646062Y-112635938D01*
X150652405Y-112643666D01*
X150657118Y-112652483D01*
X150660020Y-112662050D01*
X150661000Y-112672000D01*
X150661000Y-113172000D01*
X150660398Y-113178112D01*
G37*
D17*
X133985000Y-97155000D03*
D18*
X133985000Y-104775000D03*
D17*
X164465000Y-98425000D03*
D18*
X164465000Y-106045000D03*
D17*
X145415000Y-98425000D03*
D18*
X145415000Y-106045000D03*
D17*
X142240000Y-98425000D03*
D18*
X142240000Y-106045000D03*
D15*
X154940000Y-91440000D03*
X152400000Y-91440000D03*
X144780000Y-91440000D03*
X142240000Y-91440000D03*
X160020000Y-91440000D03*
X157480000Y-91440000D03*
X149860000Y-91440000D03*
X147320000Y-91440000D03*
D17*
X165100000Y-83185000D03*
D18*
X165100000Y-90805000D03*
D17*
X158115000Y-98425000D03*
D18*
X158115000Y-106045000D03*
X139065000Y-99060000D03*
D17*
X139065000Y-91440000D03*
X170815000Y-98425000D03*
D18*
X170815000Y-106045000D03*
D17*
X127000000Y-94615000D03*
D18*
X134620000Y-94615000D03*
D17*
X161290000Y-98425000D03*
D18*
X161290000Y-106045000D03*
D17*
X124460000Y-83820000D03*
D18*
X124460000Y-91440000D03*
D17*
X154940000Y-106045000D03*
D18*
X154940000Y-98425000D03*
D17*
X151765000Y-98425000D03*
D18*
X151765000Y-106045000D03*
D17*
X167640000Y-98425000D03*
D18*
X167640000Y-106045000D03*
D17*
X130810000Y-91440000D03*
D18*
X130810000Y-83820000D03*
D17*
X148590000Y-106045000D03*
D18*
X148590000Y-98425000D03*
G36*
G01*
X143629000Y-121115000D02*
X143629000Y-118915000D01*
G75*
G02*
X143680000Y-118864000I51000J0D01*
G01*
X145880000Y-118864000D01*
G75*
G02*
X145931000Y-118915000I0J-51000D01*
G01*
X145931000Y-121115000D01*
G75*
G02*
X145880000Y-121166000I-51000J0D01*
G01*
X143680000Y-121166000D01*
G75*
G02*
X143629000Y-121115000I0J51000D01*
G01*
G37*
D12*
X147320000Y-120015000D03*
X149860000Y-120015000D03*
X152400000Y-120015000D03*
X154940000Y-120015000D03*
X157480000Y-120015000D03*
X160020000Y-120015000D03*
X162560000Y-120015000D03*
X165100000Y-120015000D03*
X167640000Y-120015000D03*
G36*
G01*
X117518000Y-85209000D02*
X119718000Y-85209000D01*
G75*
G02*
X119769000Y-85260000I0J-51000D01*
G01*
X119769000Y-87460000D01*
G75*
G02*
X119718000Y-87511000I-51000J0D01*
G01*
X117518000Y-87511000D01*
G75*
G02*
X117467000Y-87460000I0J51000D01*
G01*
X117467000Y-85260000D01*
G75*
G02*
X117518000Y-85209000I51000J0D01*
G01*
G37*
X118618000Y-88900000D03*
X118618000Y-91440000D03*
X118618000Y-93980000D03*
X118618000Y-96520000D03*
X118618000Y-99060000D03*
X118618000Y-101600000D03*
X118618000Y-104140000D03*
X118618000Y-106680000D03*
X118618000Y-109220000D03*
D17*
X127000000Y-91440000D03*
X134620000Y-83820000D03*
X127000000Y-88900000D03*
X134620000Y-86360000D03*
X127000000Y-86360000D03*
X134620000Y-88900000D03*
X127000000Y-83820000D03*
G36*
G01*
X135471000Y-90640000D02*
X135471000Y-92240000D01*
G75*
G02*
X135420000Y-92291000I-51000J0D01*
G01*
X133820000Y-92291000D01*
G75*
G02*
X133769000Y-92240000I0J51000D01*
G01*
X133769000Y-90640000D01*
G75*
G02*
X133820000Y-90589000I51000J0D01*
G01*
X135420000Y-90589000D01*
G75*
G02*
X135471000Y-90640000I0J-51000D01*
G01*
G37*
G36*
G01*
X126932000Y-102350000D02*
X126932000Y-100850000D01*
G75*
G02*
X126983000Y-100799000I51000J0D01*
G01*
X128033000Y-100799000D01*
G75*
G02*
X128084000Y-100850000I0J-51000D01*
G01*
X128084000Y-102350000D01*
G75*
G02*
X128033000Y-102401000I-51000J0D01*
G01*
X126983000Y-102401000D01*
G75*
G02*
X126932000Y-102350000I0J51000D01*
G01*
G37*
D19*
X130048000Y-101600000D03*
X128778000Y-101600000D03*
G36*
G01*
X164524000Y-115050000D02*
X164524000Y-113550000D01*
G75*
G02*
X164575000Y-113499000I51000J0D01*
G01*
X165625000Y-113499000D01*
G75*
G02*
X165676000Y-113550000I0J-51000D01*
G01*
X165676000Y-115050000D01*
G75*
G02*
X165625000Y-115101000I-51000J0D01*
G01*
X164575000Y-115101000D01*
G75*
G02*
X164524000Y-115050000I0J51000D01*
G01*
G37*
X167640000Y-114300000D03*
X166370000Y-114300000D03*
D20*
X173000000Y-116000000D03*
X173000000Y-78000000D03*
X127000000Y-116000000D03*
X127000000Y-78000000D03*
D16*
G36*
X165677990Y-113758973D02*
G01*
X165679891Y-113778283D01*
X165685469Y-113796668D01*
X165694524Y-113813609D01*
X165706710Y-113828458D01*
X165721559Y-113840644D01*
X165738500Y-113849699D01*
X165756885Y-113855277D01*
X165775999Y-113857159D01*
X165795113Y-113855277D01*
X165813498Y-113849699D01*
X165830439Y-113840644D01*
X165845252Y-113828488D01*
X165860632Y-113807749D01*
X165862467Y-113806953D01*
X165864073Y-113808144D01*
X165864002Y-113809883D01*
X165839702Y-113855344D01*
X165807038Y-113963024D01*
X165796000Y-114075094D01*
X165796000Y-114524906D01*
X165807038Y-114636977D01*
X165839702Y-114744657D01*
X165863231Y-114788674D01*
X165863165Y-114790673D01*
X165861402Y-114791616D01*
X165859804Y-114790728D01*
X165851745Y-114778667D01*
X165838164Y-114765086D01*
X165822191Y-114754414D01*
X165804445Y-114747063D01*
X165785602Y-114743315D01*
X165766396Y-114743315D01*
X165747553Y-114747063D01*
X165729807Y-114754414D01*
X165713834Y-114765086D01*
X165700253Y-114778667D01*
X165689581Y-114794640D01*
X165682247Y-114812343D01*
X165677978Y-114841125D01*
X165676735Y-114842692D01*
X165674757Y-114842399D01*
X165674000Y-114840832D01*
X165674000Y-113759169D01*
X165675000Y-113757437D01*
X165677000Y-113757437D01*
X165677990Y-113758973D01*
G37*
G36*
X167100401Y-113883129D02*
G01*
X167100728Y-113884928D01*
X167077038Y-113963024D01*
X167066000Y-114075094D01*
X167066000Y-114524906D01*
X167077038Y-114636977D01*
X167100728Y-114715071D01*
X167100274Y-114717019D01*
X167098360Y-114717600D01*
X167096966Y-114716417D01*
X167091418Y-114703026D01*
X167080747Y-114687054D01*
X167067165Y-114673472D01*
X167051193Y-114662800D01*
X167033447Y-114655449D01*
X167014603Y-114651701D01*
X166995398Y-114651700D01*
X166976554Y-114655449D01*
X166958808Y-114662800D01*
X166942836Y-114673471D01*
X166929254Y-114687053D01*
X166918582Y-114703025D01*
X166913035Y-114716417D01*
X166911448Y-114717635D01*
X166909600Y-114716870D01*
X166909273Y-114715071D01*
X166932962Y-114636977D01*
X166944000Y-114524905D01*
X166944000Y-114075094D01*
X166932962Y-113963023D01*
X166909272Y-113884928D01*
X166909726Y-113882980D01*
X166911640Y-113882399D01*
X166913034Y-113883582D01*
X166918582Y-113896974D01*
X166929253Y-113912946D01*
X166942835Y-113926528D01*
X166958807Y-113937200D01*
X166976553Y-113944551D01*
X166995397Y-113948299D01*
X167014602Y-113948300D01*
X167033446Y-113944551D01*
X167051192Y-113937200D01*
X167067164Y-113926529D01*
X167080746Y-113912947D01*
X167091418Y-113896975D01*
X167096966Y-113883582D01*
X167098553Y-113882364D01*
X167100401Y-113883129D01*
G37*
G36*
X153149472Y-112422000D02*
G01*
X153149472Y-112424000D01*
X153148130Y-112424962D01*
X153131699Y-112428231D01*
X153113953Y-112435581D01*
X153097980Y-112446253D01*
X153084399Y-112459834D01*
X153073726Y-112475807D01*
X153066375Y-112493553D01*
X153062627Y-112512396D01*
X153062626Y-112531601D01*
X153066375Y-112550445D01*
X153073725Y-112568191D01*
X153084397Y-112584164D01*
X153097978Y-112597745D01*
X153113951Y-112608418D01*
X153131697Y-112615769D01*
X153148130Y-112619038D01*
X153149634Y-112620357D01*
X153149244Y-112622319D01*
X153147740Y-112623000D01*
X151652260Y-112623000D01*
X151650528Y-112622000D01*
X151650528Y-112620000D01*
X151651870Y-112619038D01*
X151668301Y-112615769D01*
X151686047Y-112608419D01*
X151702020Y-112597747D01*
X151715601Y-112584166D01*
X151726274Y-112568193D01*
X151733625Y-112550447D01*
X151737373Y-112531604D01*
X151737374Y-112512399D01*
X151733625Y-112493555D01*
X151726275Y-112475809D01*
X151715603Y-112459836D01*
X151702022Y-112446255D01*
X151686049Y-112435582D01*
X151668303Y-112428231D01*
X151651870Y-112424962D01*
X151650366Y-112423643D01*
X151650756Y-112421681D01*
X151652260Y-112421000D01*
X153147740Y-112421000D01*
X153149472Y-112422000D01*
G37*
G36*
X155689472Y-112422000D02*
G01*
X155689472Y-112424000D01*
X155688130Y-112424962D01*
X155671699Y-112428231D01*
X155653953Y-112435581D01*
X155637980Y-112446253D01*
X155624399Y-112459834D01*
X155613726Y-112475807D01*
X155606375Y-112493553D01*
X155602627Y-112512396D01*
X155602626Y-112531601D01*
X155606375Y-112550445D01*
X155613725Y-112568191D01*
X155624397Y-112584164D01*
X155637978Y-112597745D01*
X155653951Y-112608418D01*
X155671697Y-112615769D01*
X155688130Y-112619038D01*
X155689634Y-112620357D01*
X155689244Y-112622319D01*
X155687740Y-112623000D01*
X154192260Y-112623000D01*
X154190528Y-112622000D01*
X154190528Y-112620000D01*
X154191870Y-112619038D01*
X154208301Y-112615769D01*
X154226047Y-112608419D01*
X154242020Y-112597747D01*
X154255601Y-112584166D01*
X154266274Y-112568193D01*
X154273625Y-112550447D01*
X154277373Y-112531604D01*
X154277374Y-112512399D01*
X154273625Y-112493555D01*
X154266275Y-112475809D01*
X154255603Y-112459836D01*
X154242022Y-112446255D01*
X154226049Y-112435582D01*
X154208303Y-112428231D01*
X154191870Y-112424962D01*
X154190366Y-112423643D01*
X154190756Y-112421681D01*
X154192260Y-112421000D01*
X155687740Y-112421000D01*
X155689472Y-112422000D01*
G37*
G36*
X160769472Y-112422000D02*
G01*
X160769472Y-112424000D01*
X160768130Y-112424962D01*
X160751699Y-112428231D01*
X160733953Y-112435581D01*
X160717980Y-112446253D01*
X160704399Y-112459834D01*
X160693726Y-112475807D01*
X160686375Y-112493553D01*
X160682627Y-112512396D01*
X160682626Y-112531601D01*
X160686375Y-112550445D01*
X160693725Y-112568191D01*
X160704397Y-112584164D01*
X160717978Y-112597745D01*
X160733951Y-112608418D01*
X160751697Y-112615769D01*
X160768130Y-112619038D01*
X160769634Y-112620357D01*
X160769244Y-112622319D01*
X160767740Y-112623000D01*
X159272260Y-112623000D01*
X159270528Y-112622000D01*
X159270528Y-112620000D01*
X159271870Y-112619038D01*
X159288301Y-112615769D01*
X159306047Y-112608419D01*
X159322020Y-112597747D01*
X159335601Y-112584166D01*
X159346274Y-112568193D01*
X159353625Y-112550447D01*
X159357373Y-112531604D01*
X159357374Y-112512399D01*
X159353625Y-112493555D01*
X159346275Y-112475809D01*
X159335603Y-112459836D01*
X159322022Y-112446255D01*
X159306049Y-112435582D01*
X159288303Y-112428231D01*
X159271870Y-112424962D01*
X159270366Y-112423643D01*
X159270756Y-112421681D01*
X159272260Y-112421000D01*
X160767740Y-112421000D01*
X160769472Y-112422000D01*
G37*
G36*
X163309472Y-112422000D02*
G01*
X163309472Y-112424000D01*
X163308130Y-112424962D01*
X163291699Y-112428231D01*
X163273953Y-112435581D01*
X163257980Y-112446253D01*
X163244399Y-112459834D01*
X163233726Y-112475807D01*
X163226375Y-112493553D01*
X163222627Y-112512396D01*
X163222626Y-112531601D01*
X163226375Y-112550445D01*
X163233725Y-112568191D01*
X163244397Y-112584164D01*
X163257978Y-112597745D01*
X163273951Y-112608418D01*
X163291697Y-112615769D01*
X163308130Y-112619038D01*
X163309634Y-112620357D01*
X163309244Y-112622319D01*
X163307740Y-112623000D01*
X161812260Y-112623000D01*
X161810528Y-112622000D01*
X161810528Y-112620000D01*
X161811870Y-112619038D01*
X161828301Y-112615769D01*
X161846047Y-112608419D01*
X161862020Y-112597747D01*
X161875601Y-112584166D01*
X161886274Y-112568193D01*
X161893625Y-112550447D01*
X161897373Y-112531604D01*
X161897374Y-112512399D01*
X161893625Y-112493555D01*
X161886275Y-112475809D01*
X161875603Y-112459836D01*
X161862022Y-112446255D01*
X161846049Y-112435582D01*
X161828303Y-112428231D01*
X161811870Y-112424962D01*
X161810366Y-112423643D01*
X161810756Y-112421681D01*
X161812260Y-112421000D01*
X163307740Y-112421000D01*
X163309472Y-112422000D01*
G37*
G36*
X158229472Y-112422000D02*
G01*
X158229472Y-112424000D01*
X158228130Y-112424962D01*
X158211699Y-112428231D01*
X158193953Y-112435581D01*
X158177980Y-112446253D01*
X158164399Y-112459834D01*
X158153726Y-112475807D01*
X158146375Y-112493553D01*
X158142627Y-112512396D01*
X158142626Y-112531601D01*
X158146375Y-112550445D01*
X158153725Y-112568191D01*
X158164397Y-112584164D01*
X158177978Y-112597745D01*
X158193951Y-112608418D01*
X158211697Y-112615769D01*
X158228130Y-112619038D01*
X158229634Y-112620357D01*
X158229244Y-112622319D01*
X158227740Y-112623000D01*
X156732260Y-112623000D01*
X156730528Y-112622000D01*
X156730528Y-112620000D01*
X156731870Y-112619038D01*
X156748301Y-112615769D01*
X156766047Y-112608419D01*
X156782020Y-112597747D01*
X156795601Y-112584166D01*
X156806274Y-112568193D01*
X156813625Y-112550447D01*
X156817373Y-112531604D01*
X156817374Y-112512399D01*
X156813625Y-112493555D01*
X156806275Y-112475809D01*
X156795603Y-112459836D01*
X156782022Y-112446255D01*
X156766049Y-112435582D01*
X156748303Y-112428231D01*
X156731870Y-112424962D01*
X156730366Y-112423643D01*
X156730756Y-112421681D01*
X156732260Y-112421000D01*
X158227740Y-112421000D01*
X158229472Y-112422000D01*
G37*
G36*
X150609472Y-112422000D02*
G01*
X150609472Y-112424000D01*
X150608130Y-112424962D01*
X150591699Y-112428231D01*
X150573953Y-112435581D01*
X150557980Y-112446253D01*
X150544399Y-112459834D01*
X150533726Y-112475807D01*
X150526375Y-112493553D01*
X150522627Y-112512396D01*
X150522626Y-112531601D01*
X150526375Y-112550445D01*
X150533725Y-112568191D01*
X150544397Y-112584164D01*
X150557978Y-112597745D01*
X150573951Y-112608418D01*
X150591697Y-112615769D01*
X150608130Y-112619038D01*
X150609634Y-112620357D01*
X150609244Y-112622319D01*
X150607740Y-112623000D01*
X149112260Y-112623000D01*
X149110528Y-112622000D01*
X149110528Y-112620000D01*
X149111870Y-112619038D01*
X149128301Y-112615769D01*
X149146047Y-112608419D01*
X149162020Y-112597747D01*
X149175601Y-112584166D01*
X149186274Y-112568193D01*
X149193625Y-112550447D01*
X149197373Y-112531604D01*
X149197374Y-112512399D01*
X149193625Y-112493555D01*
X149186275Y-112475809D01*
X149175603Y-112459836D01*
X149162022Y-112446255D01*
X149146049Y-112435582D01*
X149128303Y-112428231D01*
X149111870Y-112424962D01*
X149110366Y-112423643D01*
X149110756Y-112421681D01*
X149112260Y-112421000D01*
X150607740Y-112421000D01*
X150609472Y-112422000D01*
G37*
G36*
X128085990Y-101058973D02*
G01*
X128087891Y-101078283D01*
X128093469Y-101096668D01*
X128102524Y-101113609D01*
X128114710Y-101128458D01*
X128129559Y-101140644D01*
X128146500Y-101149699D01*
X128164885Y-101155277D01*
X128183999Y-101157159D01*
X128203113Y-101155277D01*
X128221498Y-101149699D01*
X128238439Y-101140644D01*
X128253252Y-101128488D01*
X128268632Y-101107749D01*
X128270467Y-101106953D01*
X128272073Y-101108144D01*
X128272002Y-101109883D01*
X128247702Y-101155344D01*
X128215038Y-101263024D01*
X128204000Y-101375094D01*
X128204000Y-101824906D01*
X128215038Y-101936977D01*
X128247702Y-102044657D01*
X128271231Y-102088674D01*
X128271165Y-102090673D01*
X128269402Y-102091616D01*
X128267804Y-102090728D01*
X128259745Y-102078667D01*
X128246164Y-102065086D01*
X128230191Y-102054414D01*
X128212445Y-102047063D01*
X128193602Y-102043315D01*
X128174396Y-102043315D01*
X128155553Y-102047063D01*
X128137807Y-102054414D01*
X128121834Y-102065086D01*
X128108253Y-102078667D01*
X128097581Y-102094640D01*
X128090247Y-102112343D01*
X128085978Y-102141125D01*
X128084735Y-102142692D01*
X128082757Y-102142399D01*
X128082000Y-102140832D01*
X128082000Y-101059169D01*
X128083000Y-101057437D01*
X128085000Y-101057437D01*
X128085990Y-101058973D01*
G37*
G36*
X129508401Y-101183129D02*
G01*
X129508728Y-101184928D01*
X129485038Y-101263024D01*
X129474000Y-101375094D01*
X129474000Y-101824906D01*
X129485038Y-101936977D01*
X129508728Y-102015071D01*
X129508274Y-102017019D01*
X129506360Y-102017600D01*
X129504966Y-102016417D01*
X129499418Y-102003026D01*
X129488747Y-101987054D01*
X129475165Y-101973472D01*
X129459193Y-101962800D01*
X129441447Y-101955449D01*
X129422603Y-101951701D01*
X129403398Y-101951700D01*
X129384554Y-101955449D01*
X129366808Y-101962800D01*
X129350836Y-101973471D01*
X129337254Y-101987053D01*
X129326582Y-102003025D01*
X129321035Y-102016417D01*
X129319448Y-102017635D01*
X129317600Y-102016870D01*
X129317273Y-102015071D01*
X129340962Y-101936977D01*
X129352000Y-101824905D01*
X129352000Y-101375094D01*
X129340962Y-101263023D01*
X129317272Y-101184928D01*
X129317726Y-101182980D01*
X129319640Y-101182399D01*
X129321034Y-101183582D01*
X129326582Y-101196974D01*
X129337253Y-101212946D01*
X129350835Y-101226528D01*
X129366807Y-101237200D01*
X129384553Y-101244551D01*
X129403397Y-101248299D01*
X129422602Y-101248300D01*
X129441446Y-101244551D01*
X129459192Y-101237200D01*
X129475164Y-101226529D01*
X129488746Y-101212947D01*
X129499418Y-101196975D01*
X129504966Y-101183582D01*
X129506553Y-101182364D01*
X129508401Y-101183129D01*
G37*
M02*
