G04 #@! TF.GenerationSoftware,KiCad,Pcbnew,(5.1.10)-1*
G04 #@! TF.CreationDate,2021-09-02T16:04:07+02:00*
G04 #@! TF.ProjectId,Motorrumsstyrning,4d6f746f-7272-4756-9d73-737479726e69,rev?*
G04 #@! TF.SameCoordinates,Original*
G04 #@! TF.FileFunction,Soldermask,Top*
G04 #@! TF.FilePolarity,Negative*
%FSLAX46Y46*%
G04 Gerber Fmt 4.6, Leading zero omitted, Abs format (unit mm)*
G04 Created by KiCad (PCBNEW (5.1.10)-1) date 2021-09-02 16:04:07*
%MOMM*%
%LPD*%
G01*
G04 APERTURE LIST*
%ADD10O,2.102000X2.007000*%
%ADD11C,1.752000*%
%ADD12C,2.302000*%
%ADD13C,1.632000*%
%ADD14O,1.802000X1.802000*%
%ADD15C,1.802000*%
%ADD16O,1.702000X1.702000*%
%ADD17C,1.702000*%
%ADD18C,0.100000*%
%ADD19O,1.152000X1.602000*%
%ADD20C,7.102000*%
G04 APERTURE END LIST*
D10*
X135255000Y-75565000D03*
X135255000Y-78105000D03*
G36*
G01*
X136255000Y-81648500D02*
X134255000Y-81648500D01*
G75*
G02*
X134204000Y-81597500I0J51000D01*
G01*
X134204000Y-79692500D01*
G75*
G02*
X134255000Y-79641500I51000J0D01*
G01*
X136255000Y-79641500D01*
G75*
G02*
X136306000Y-79692500I0J-51000D01*
G01*
X136306000Y-81597500D01*
G75*
G02*
X136255000Y-81648500I-51000J0D01*
G01*
G37*
G36*
G01*
X143626000Y-87700000D02*
X143626000Y-89200000D01*
G75*
G02*
X143575000Y-89251000I-51000J0D01*
G01*
X142575000Y-89251000D01*
G75*
G02*
X142524000Y-89200000I0J51000D01*
G01*
X142524000Y-87700000D01*
G75*
G02*
X142575000Y-87649000I51000J0D01*
G01*
X143575000Y-87649000D01*
G75*
G02*
X143626000Y-87700000I0J-51000D01*
G01*
G37*
G36*
G01*
X146126000Y-87700000D02*
X146126000Y-89200000D01*
G75*
G02*
X146075000Y-89251000I-51000J0D01*
G01*
X145075000Y-89251000D01*
G75*
G02*
X145024000Y-89200000I0J51000D01*
G01*
X145024000Y-87700000D01*
G75*
G02*
X145075000Y-87649000I51000J0D01*
G01*
X146075000Y-87649000D01*
G75*
G02*
X146126000Y-87700000I0J-51000D01*
G01*
G37*
G36*
G01*
X148626000Y-87700000D02*
X148626000Y-89200000D01*
G75*
G02*
X148575000Y-89251000I-51000J0D01*
G01*
X147575000Y-89251000D01*
G75*
G02*
X147524000Y-89200000I0J51000D01*
G01*
X147524000Y-87700000D01*
G75*
G02*
X147575000Y-87649000I51000J0D01*
G01*
X148575000Y-87649000D01*
G75*
G02*
X148626000Y-87700000I0J-51000D01*
G01*
G37*
G36*
G01*
X151126000Y-87700000D02*
X151126000Y-89200000D01*
G75*
G02*
X151075000Y-89251000I-51000J0D01*
G01*
X150075000Y-89251000D01*
G75*
G02*
X150024000Y-89200000I0J51000D01*
G01*
X150024000Y-87700000D01*
G75*
G02*
X150075000Y-87649000I51000J0D01*
G01*
X151075000Y-87649000D01*
G75*
G02*
X151126000Y-87700000I0J-51000D01*
G01*
G37*
G36*
G01*
X153626000Y-87700000D02*
X153626000Y-89200000D01*
G75*
G02*
X153575000Y-89251000I-51000J0D01*
G01*
X152575000Y-89251000D01*
G75*
G02*
X152524000Y-89200000I0J51000D01*
G01*
X152524000Y-87700000D01*
G75*
G02*
X152575000Y-87649000I51000J0D01*
G01*
X153575000Y-87649000D01*
G75*
G02*
X153626000Y-87700000I0J-51000D01*
G01*
G37*
G36*
G01*
X156126000Y-87700000D02*
X156126000Y-89200000D01*
G75*
G02*
X156075000Y-89251000I-51000J0D01*
G01*
X155075000Y-89251000D01*
G75*
G02*
X155024000Y-89200000I0J51000D01*
G01*
X155024000Y-87700000D01*
G75*
G02*
X155075000Y-87649000I51000J0D01*
G01*
X156075000Y-87649000D01*
G75*
G02*
X156126000Y-87700000I0J-51000D01*
G01*
G37*
G36*
G01*
X158556000Y-87700000D02*
X158556000Y-89200000D01*
G75*
G02*
X158505000Y-89251000I-51000J0D01*
G01*
X157505000Y-89251000D01*
G75*
G02*
X157454000Y-89200000I0J51000D01*
G01*
X157454000Y-87700000D01*
G75*
G02*
X157505000Y-87649000I51000J0D01*
G01*
X158505000Y-87649000D01*
G75*
G02*
X158556000Y-87700000I0J-51000D01*
G01*
G37*
G36*
G01*
X160256000Y-87700000D02*
X160256000Y-89200000D01*
G75*
G02*
X160205000Y-89251000I-51000J0D01*
G01*
X159205000Y-89251000D01*
G75*
G02*
X159154000Y-89200000I0J51000D01*
G01*
X159154000Y-87700000D01*
G75*
G02*
X159205000Y-87649000I51000J0D01*
G01*
X160205000Y-87649000D01*
G75*
G02*
X160256000Y-87700000I0J-51000D01*
G01*
G37*
G36*
G01*
X141126000Y-87700000D02*
X141126000Y-89200000D01*
G75*
G02*
X141075000Y-89251000I-51000J0D01*
G01*
X140075000Y-89251000D01*
G75*
G02*
X140024000Y-89200000I0J51000D01*
G01*
X140024000Y-87700000D01*
G75*
G02*
X140075000Y-87649000I51000J0D01*
G01*
X141075000Y-87649000D01*
G75*
G02*
X141126000Y-87700000I0J-51000D01*
G01*
G37*
G36*
G01*
X161306000Y-87699999D02*
X161306000Y-89200001D01*
G75*
G02*
X161255001Y-89251000I-50999J0D01*
G01*
X160554999Y-89251000D01*
G75*
G02*
X160504000Y-89200001I0J50999D01*
G01*
X160504000Y-87699999D01*
G75*
G02*
X160554999Y-87649000I50999J0D01*
G01*
X161255001Y-87649000D01*
G75*
G02*
X161306000Y-87699999I0J-50999D01*
G01*
G37*
G36*
G01*
X162506000Y-87699999D02*
X162506000Y-89200001D01*
G75*
G02*
X162455001Y-89251000I-50999J0D01*
G01*
X161754999Y-89251000D01*
G75*
G02*
X161704000Y-89200001I0J50999D01*
G01*
X161704000Y-87699999D01*
G75*
G02*
X161754999Y-87649000I50999J0D01*
G01*
X162455001Y-87649000D01*
G75*
G02*
X162506000Y-87699999I0J-50999D01*
G01*
G37*
G36*
G01*
X164401000Y-63550000D02*
X164401000Y-66350000D01*
G75*
G02*
X164350000Y-66401000I-51000J0D01*
G01*
X162850000Y-66401000D01*
G75*
G02*
X162799000Y-66350000I0J51000D01*
G01*
X162799000Y-63550000D01*
G75*
G02*
X162850000Y-63499000I51000J0D01*
G01*
X164350000Y-63499000D01*
G75*
G02*
X164401000Y-63550000I0J-51000D01*
G01*
G37*
G36*
G01*
X137101000Y-63550000D02*
X137101000Y-66350000D01*
G75*
G02*
X137050000Y-66401000I-51000J0D01*
G01*
X135550000Y-66401000D01*
G75*
G02*
X135499000Y-66350000I0J51000D01*
G01*
X135499000Y-63550000D01*
G75*
G02*
X135550000Y-63499000I51000J0D01*
G01*
X137050000Y-63499000D01*
G75*
G02*
X137101000Y-63550000I0J-51000D01*
G01*
G37*
G36*
G01*
X164401000Y-85050000D02*
X164401000Y-87850000D01*
G75*
G02*
X164350000Y-87901000I-51000J0D01*
G01*
X162850000Y-87901000D01*
G75*
G02*
X162799000Y-87850000I0J51000D01*
G01*
X162799000Y-85050000D01*
G75*
G02*
X162850000Y-84999000I51000J0D01*
G01*
X164350000Y-84999000D01*
G75*
G02*
X164401000Y-85050000I0J-51000D01*
G01*
G37*
G36*
G01*
X139301000Y-85050000D02*
X139301000Y-87850000D01*
G75*
G02*
X139250000Y-87901000I-51000J0D01*
G01*
X137750000Y-87901000D01*
G75*
G02*
X137699000Y-87850000I0J51000D01*
G01*
X137699000Y-85050000D01*
G75*
G02*
X137750000Y-84999000I51000J0D01*
G01*
X139250000Y-84999000D01*
G75*
G02*
X139301000Y-85050000I0J-51000D01*
G01*
G37*
D11*
X161450000Y-85650000D03*
D12*
X140450000Y-85650000D03*
D13*
X142240000Y-94615000D03*
X144780000Y-94615000D03*
X147320000Y-94615000D03*
X149860000Y-94615000D03*
X152400000Y-94615000D03*
X154940000Y-94615000D03*
X157480000Y-94615000D03*
X160020000Y-94615000D03*
X162560000Y-94615000D03*
X165100000Y-94615000D03*
X167640000Y-94615000D03*
X170180000Y-94615000D03*
X172720000Y-94615000D03*
X175260000Y-94615000D03*
G36*
G01*
X177035000Y-93799000D02*
X178565000Y-93799000D01*
G75*
G02*
X178616000Y-93850000I0J-51000D01*
G01*
X178616000Y-95380000D01*
G75*
G02*
X178565000Y-95431000I-51000J0D01*
G01*
X177035000Y-95431000D01*
G75*
G02*
X176984000Y-95380000I0J51000D01*
G01*
X176984000Y-93850000D01*
G75*
G02*
X177035000Y-93799000I51000J0D01*
G01*
G37*
X142240000Y-109855000D03*
X144780000Y-109855000D03*
X147320000Y-109855000D03*
X149860000Y-109855000D03*
X152400000Y-109855000D03*
X154940000Y-109855000D03*
X157480000Y-109855000D03*
X160020000Y-109855000D03*
X162560000Y-109855000D03*
X165100000Y-109855000D03*
X167640000Y-109855000D03*
X170180000Y-109855000D03*
X172720000Y-109855000D03*
X175260000Y-109855000D03*
G36*
G01*
X177035000Y-109039000D02*
X178565000Y-109039000D01*
G75*
G02*
X178616000Y-109090000I0J-51000D01*
G01*
X178616000Y-110620000D01*
G75*
G02*
X178565000Y-110671000I-51000J0D01*
G01*
X177035000Y-110671000D01*
G75*
G02*
X176984000Y-110620000I0J51000D01*
G01*
X176984000Y-109090000D01*
G75*
G02*
X177035000Y-109039000I51000J0D01*
G01*
G37*
D14*
X162560000Y-114935000D03*
X160020000Y-114935000D03*
X157480000Y-114935000D03*
X154940000Y-114935000D03*
X152400000Y-114935000D03*
X149860000Y-114935000D03*
X147320000Y-114935000D03*
X144780000Y-114935000D03*
G36*
G01*
X143090000Y-115836000D02*
X141390000Y-115836000D01*
G75*
G02*
X141339000Y-115785000I0J51000D01*
G01*
X141339000Y-114085000D01*
G75*
G02*
X141390000Y-114034000I51000J0D01*
G01*
X143090000Y-114034000D01*
G75*
G02*
X143141000Y-114085000I0J-51000D01*
G01*
X143141000Y-115785000D01*
G75*
G02*
X143090000Y-115836000I-51000J0D01*
G01*
G37*
D15*
X132842000Y-78105000D03*
X132969000Y-80645000D03*
X132842000Y-75565000D03*
D16*
X133985000Y-97155000D03*
D17*
X133985000Y-104775000D03*
D16*
X164465000Y-98425000D03*
D17*
X164465000Y-106045000D03*
D16*
X145415000Y-98425000D03*
D17*
X145415000Y-106045000D03*
D16*
X142240000Y-98425000D03*
D17*
X142240000Y-106045000D03*
D15*
X154940000Y-91440000D03*
X152400000Y-91440000D03*
X144780000Y-91440000D03*
X142240000Y-91440000D03*
X160020000Y-91440000D03*
X157480000Y-91440000D03*
X149860000Y-91440000D03*
X147320000Y-91440000D03*
D16*
X165100000Y-83185000D03*
D17*
X165100000Y-90805000D03*
D16*
X158115000Y-98425000D03*
D17*
X158115000Y-106045000D03*
X139065000Y-99060000D03*
D16*
X139065000Y-91440000D03*
X170815000Y-98425000D03*
D17*
X170815000Y-106045000D03*
D16*
X127000000Y-94615000D03*
D17*
X134620000Y-94615000D03*
D16*
X161290000Y-98425000D03*
D17*
X161290000Y-106045000D03*
D16*
X124460000Y-83820000D03*
D17*
X124460000Y-91440000D03*
D16*
X154940000Y-106045000D03*
D17*
X154940000Y-98425000D03*
D16*
X151765000Y-98425000D03*
D17*
X151765000Y-106045000D03*
D16*
X167640000Y-98425000D03*
D17*
X167640000Y-106045000D03*
D16*
X130810000Y-91440000D03*
D17*
X130810000Y-83820000D03*
D16*
X148590000Y-106045000D03*
D17*
X148590000Y-98425000D03*
D18*
G36*
X130861050Y-95415020D02*
G01*
X130851483Y-95412118D01*
X130842666Y-95407405D01*
X130834938Y-95401062D01*
X130828565Y-95393290D01*
X130328565Y-94643290D01*
X130323862Y-94634468D01*
X130320970Y-94624897D01*
X130320000Y-94614947D01*
X130320990Y-94604998D01*
X130323903Y-94595434D01*
X130328565Y-94586710D01*
X130828565Y-93836710D01*
X130834900Y-93828975D01*
X130842622Y-93822625D01*
X130851434Y-93817903D01*
X130860998Y-93814990D01*
X130871000Y-93814000D01*
X131871000Y-93814000D01*
X131880950Y-93814980D01*
X131890517Y-93817882D01*
X131899334Y-93822595D01*
X131907062Y-93828938D01*
X131913405Y-93836666D01*
X131918118Y-93845483D01*
X131921020Y-93855050D01*
X131922000Y-93865000D01*
X131922000Y-95365000D01*
X131921020Y-95374950D01*
X131918118Y-95384517D01*
X131913405Y-95393334D01*
X131907062Y-95401062D01*
X131899334Y-95407405D01*
X131890517Y-95412118D01*
X131880950Y-95415020D01*
X131871000Y-95416000D01*
X130871000Y-95416000D01*
X130861050Y-95415020D01*
G37*
G36*
X129411050Y-95415020D02*
G01*
X129401483Y-95412118D01*
X129392666Y-95407405D01*
X129384938Y-95401062D01*
X129378595Y-95393334D01*
X129373882Y-95384517D01*
X129370980Y-95374950D01*
X129370000Y-95365000D01*
X129370000Y-93865000D01*
X129370980Y-93855050D01*
X129373882Y-93845483D01*
X129378595Y-93836666D01*
X129384938Y-93828938D01*
X129392666Y-93822595D01*
X129401483Y-93817882D01*
X129411050Y-93814980D01*
X129421000Y-93814000D01*
X130571000Y-93814000D01*
X130580950Y-93814980D01*
X130590517Y-93817882D01*
X130599334Y-93822595D01*
X130607062Y-93828938D01*
X130613405Y-93836666D01*
X130618118Y-93845483D01*
X130621020Y-93855050D01*
X130622000Y-93865000D01*
X130621020Y-93874950D01*
X130618118Y-93884517D01*
X130613435Y-93893290D01*
X130132295Y-94615000D01*
X130613435Y-95336710D01*
X130618138Y-95345532D01*
X130621030Y-95355103D01*
X130622000Y-95365053D01*
X130621010Y-95375002D01*
X130618097Y-95384566D01*
X130613375Y-95393378D01*
X130607025Y-95401100D01*
X130599290Y-95407435D01*
X130590468Y-95412138D01*
X130580897Y-95415030D01*
X130571000Y-95416000D01*
X129421000Y-95416000D01*
X129411050Y-95415020D01*
G37*
G36*
G01*
X143629000Y-121115000D02*
X143629000Y-118915000D01*
G75*
G02*
X143680000Y-118864000I51000J0D01*
G01*
X145880000Y-118864000D01*
G75*
G02*
X145931000Y-118915000I0J-51000D01*
G01*
X145931000Y-121115000D01*
G75*
G02*
X145880000Y-121166000I-51000J0D01*
G01*
X143680000Y-121166000D01*
G75*
G02*
X143629000Y-121115000I0J51000D01*
G01*
G37*
D12*
X147320000Y-120015000D03*
X149860000Y-120015000D03*
X152400000Y-120015000D03*
X154940000Y-120015000D03*
X157480000Y-120015000D03*
X160020000Y-120015000D03*
X162560000Y-120015000D03*
X165100000Y-120015000D03*
X167640000Y-120015000D03*
G36*
G01*
X117518000Y-85209000D02*
X119718000Y-85209000D01*
G75*
G02*
X119769000Y-85260000I0J-51000D01*
G01*
X119769000Y-87460000D01*
G75*
G02*
X119718000Y-87511000I-51000J0D01*
G01*
X117518000Y-87511000D01*
G75*
G02*
X117467000Y-87460000I0J51000D01*
G01*
X117467000Y-85260000D01*
G75*
G02*
X117518000Y-85209000I51000J0D01*
G01*
G37*
X118618000Y-88900000D03*
X118618000Y-91440000D03*
X118618000Y-93980000D03*
X118618000Y-96520000D03*
X118618000Y-99060000D03*
X118618000Y-101600000D03*
X118618000Y-104140000D03*
X118618000Y-106680000D03*
X118618000Y-109220000D03*
D16*
X127000000Y-91440000D03*
X134620000Y-83820000D03*
X127000000Y-88900000D03*
X134620000Y-86360000D03*
X127000000Y-86360000D03*
X134620000Y-88900000D03*
X127000000Y-83820000D03*
G36*
G01*
X135471000Y-90640000D02*
X135471000Y-92240000D01*
G75*
G02*
X135420000Y-92291000I-51000J0D01*
G01*
X133820000Y-92291000D01*
G75*
G02*
X133769000Y-92240000I0J51000D01*
G01*
X133769000Y-90640000D01*
G75*
G02*
X133820000Y-90589000I51000J0D01*
G01*
X135420000Y-90589000D01*
G75*
G02*
X135471000Y-90640000I0J-51000D01*
G01*
G37*
G36*
G01*
X126932000Y-102350000D02*
X126932000Y-100850000D01*
G75*
G02*
X126983000Y-100799000I51000J0D01*
G01*
X128033000Y-100799000D01*
G75*
G02*
X128084000Y-100850000I0J-51000D01*
G01*
X128084000Y-102350000D01*
G75*
G02*
X128033000Y-102401000I-51000J0D01*
G01*
X126983000Y-102401000D01*
G75*
G02*
X126932000Y-102350000I0J51000D01*
G01*
G37*
D19*
X130048000Y-101600000D03*
X128778000Y-101600000D03*
G36*
G01*
X164524000Y-115050000D02*
X164524000Y-113550000D01*
G75*
G02*
X164575000Y-113499000I51000J0D01*
G01*
X165625000Y-113499000D01*
G75*
G02*
X165676000Y-113550000I0J-51000D01*
G01*
X165676000Y-115050000D01*
G75*
G02*
X165625000Y-115101000I-51000J0D01*
G01*
X164575000Y-115101000D01*
G75*
G02*
X164524000Y-115050000I0J51000D01*
G01*
G37*
X167640000Y-114300000D03*
X166370000Y-114300000D03*
D20*
X173000000Y-116000000D03*
X173000000Y-78000000D03*
X127000000Y-116000000D03*
X127000000Y-78000000D03*
D18*
G36*
X145932990Y-119860304D02*
G01*
X145935372Y-119884491D01*
X145942372Y-119907566D01*
X145953737Y-119928830D01*
X145969032Y-119947467D01*
X145987669Y-119962762D01*
X146008933Y-119974127D01*
X146032008Y-119981127D01*
X146055999Y-119983490D01*
X146079990Y-119981127D01*
X146103065Y-119974127D01*
X146124329Y-119962762D01*
X146142966Y-119947467D01*
X146158261Y-119928830D01*
X146169626Y-119907566D01*
X146174900Y-119890181D01*
X146176360Y-119888814D01*
X146178274Y-119889395D01*
X146178776Y-119891152D01*
X146176542Y-119902381D01*
X146176542Y-120127619D01*
X146178776Y-120138848D01*
X146178133Y-120140742D01*
X146176171Y-120141132D01*
X146174900Y-120139819D01*
X146169626Y-120122434D01*
X146158261Y-120101170D01*
X146142966Y-120082533D01*
X146124329Y-120067238D01*
X146103065Y-120055873D01*
X146079990Y-120048873D01*
X146055999Y-120046510D01*
X146032008Y-120048873D01*
X146008933Y-120055873D01*
X145987669Y-120067238D01*
X145969032Y-120082533D01*
X145953737Y-120101170D01*
X145942372Y-120122434D01*
X145935372Y-120145509D01*
X145932990Y-120169696D01*
X145931825Y-120171322D01*
X145929835Y-120171126D01*
X145929000Y-120169500D01*
X145929000Y-119860500D01*
X145930000Y-119858768D01*
X145932000Y-119858768D01*
X145932990Y-119860304D01*
G37*
G36*
X165677990Y-113668465D02*
G01*
X165680372Y-113692652D01*
X165687372Y-113715727D01*
X165698737Y-113736991D01*
X165714032Y-113755628D01*
X165732669Y-113770923D01*
X165753933Y-113782288D01*
X165777008Y-113789288D01*
X165800999Y-113791651D01*
X165824990Y-113789288D01*
X165848065Y-113782288D01*
X165869329Y-113770923D01*
X165888005Y-113755596D01*
X165889339Y-113754124D01*
X165891243Y-113753512D01*
X165892725Y-113754855D01*
X165892585Y-113756410D01*
X165839702Y-113855344D01*
X165807038Y-113963024D01*
X165796000Y-114075094D01*
X165796000Y-114524906D01*
X165807038Y-114636977D01*
X165839702Y-114744657D01*
X165892746Y-114843892D01*
X165894836Y-114846438D01*
X165895162Y-114848412D01*
X165893616Y-114849680D01*
X165891876Y-114849121D01*
X165879023Y-114836268D01*
X165858976Y-114822873D01*
X165836702Y-114813647D01*
X165813051Y-114808943D01*
X165788945Y-114808943D01*
X165765295Y-114813648D01*
X165743021Y-114822874D01*
X165722974Y-114836269D01*
X165705927Y-114853316D01*
X165692532Y-114873363D01*
X165683323Y-114895594D01*
X165677978Y-114931633D01*
X165676735Y-114933200D01*
X165674757Y-114932907D01*
X165674000Y-114931340D01*
X165674000Y-113668661D01*
X165675000Y-113666929D01*
X165677000Y-113666929D01*
X165677990Y-113668465D01*
G37*
G36*
X167113621Y-113846240D02*
G01*
X167113591Y-113848068D01*
X167109702Y-113855344D01*
X167077038Y-113963024D01*
X167066000Y-114075094D01*
X167066000Y-114524906D01*
X167077038Y-114636977D01*
X167109702Y-114744657D01*
X167113591Y-114751933D01*
X167113525Y-114753932D01*
X167111762Y-114754875D01*
X167110164Y-114753987D01*
X167100071Y-114738882D01*
X167083024Y-114721835D01*
X167062976Y-114708440D01*
X167040702Y-114699214D01*
X167017052Y-114694510D01*
X166992946Y-114694510D01*
X166969296Y-114699215D01*
X166947022Y-114708441D01*
X166926975Y-114721836D01*
X166909928Y-114738883D01*
X166899836Y-114753987D01*
X166898042Y-114754872D01*
X166896379Y-114753761D01*
X166896409Y-114751933D01*
X166900298Y-114744657D01*
X166932962Y-114636977D01*
X166944000Y-114524905D01*
X166944000Y-114075094D01*
X166932962Y-113963023D01*
X166900298Y-113855343D01*
X166896411Y-113848072D01*
X166896477Y-113846073D01*
X166898240Y-113845130D01*
X166899838Y-113846018D01*
X166909929Y-113861119D01*
X166926976Y-113878166D01*
X166947023Y-113891561D01*
X166969297Y-113900787D01*
X166992947Y-113905491D01*
X167017054Y-113905491D01*
X167040704Y-113900786D01*
X167062978Y-113891560D01*
X167083025Y-113878165D01*
X167100072Y-113861118D01*
X167110164Y-113846014D01*
X167111958Y-113845129D01*
X167113621Y-113846240D01*
G37*
G36*
X128085990Y-100968465D02*
G01*
X128088372Y-100992652D01*
X128095372Y-101015727D01*
X128106737Y-101036991D01*
X128122032Y-101055628D01*
X128140669Y-101070923D01*
X128161933Y-101082288D01*
X128185008Y-101089288D01*
X128208999Y-101091651D01*
X128232990Y-101089288D01*
X128256065Y-101082288D01*
X128277329Y-101070923D01*
X128296005Y-101055596D01*
X128297339Y-101054124D01*
X128299243Y-101053512D01*
X128300725Y-101054855D01*
X128300585Y-101056410D01*
X128247702Y-101155344D01*
X128215038Y-101263024D01*
X128204000Y-101375094D01*
X128204000Y-101824906D01*
X128215038Y-101936977D01*
X128247702Y-102044657D01*
X128300746Y-102143892D01*
X128302836Y-102146438D01*
X128303162Y-102148412D01*
X128301616Y-102149680D01*
X128299876Y-102149121D01*
X128287023Y-102136268D01*
X128266976Y-102122873D01*
X128244702Y-102113647D01*
X128221051Y-102108943D01*
X128196945Y-102108943D01*
X128173295Y-102113648D01*
X128151021Y-102122874D01*
X128130974Y-102136269D01*
X128113927Y-102153316D01*
X128100532Y-102173363D01*
X128091323Y-102195594D01*
X128085978Y-102231633D01*
X128084735Y-102233200D01*
X128082757Y-102232907D01*
X128082000Y-102231340D01*
X128082000Y-100968661D01*
X128083000Y-100966929D01*
X128085000Y-100966929D01*
X128085990Y-100968465D01*
G37*
G36*
X129521621Y-101146240D02*
G01*
X129521591Y-101148068D01*
X129517702Y-101155344D01*
X129485038Y-101263024D01*
X129474000Y-101375094D01*
X129474000Y-101824906D01*
X129485038Y-101936977D01*
X129517702Y-102044657D01*
X129521591Y-102051933D01*
X129521525Y-102053932D01*
X129519762Y-102054875D01*
X129518164Y-102053987D01*
X129508071Y-102038882D01*
X129491024Y-102021835D01*
X129470976Y-102008440D01*
X129448702Y-101999214D01*
X129425052Y-101994510D01*
X129400946Y-101994510D01*
X129377296Y-101999215D01*
X129355022Y-102008441D01*
X129334975Y-102021836D01*
X129317928Y-102038883D01*
X129307836Y-102053987D01*
X129306042Y-102054872D01*
X129304379Y-102053761D01*
X129304409Y-102051933D01*
X129308298Y-102044657D01*
X129340962Y-101936977D01*
X129352000Y-101824905D01*
X129352000Y-101375094D01*
X129340962Y-101263023D01*
X129308298Y-101155343D01*
X129304411Y-101148072D01*
X129304477Y-101146073D01*
X129306240Y-101145130D01*
X129307838Y-101146018D01*
X129317929Y-101161119D01*
X129334976Y-101178166D01*
X129355023Y-101191561D01*
X129377297Y-101200787D01*
X129400947Y-101205491D01*
X129425054Y-101205491D01*
X129448704Y-101200786D01*
X129470978Y-101191560D01*
X129491025Y-101178165D01*
X129508072Y-101161118D01*
X129518164Y-101146014D01*
X129519958Y-101145129D01*
X129521621Y-101146240D01*
G37*
G36*
X130616406Y-93838120D02*
G01*
X130617875Y-93839909D01*
X130617992Y-93840067D01*
X130625526Y-93851343D01*
X130642574Y-93868389D01*
X130662621Y-93881784D01*
X130684895Y-93891010D01*
X130708545Y-93895714D01*
X130732651Y-93895714D01*
X130756302Y-93891009D01*
X130778575Y-93881783D01*
X130798623Y-93868388D01*
X130815702Y-93851307D01*
X130822993Y-93841467D01*
X130824828Y-93840671D01*
X130826435Y-93841862D01*
X130826264Y-93843767D01*
X130330286Y-94587734D01*
X130325759Y-94596206D01*
X130322960Y-94605392D01*
X130322010Y-94614946D01*
X130322942Y-94624507D01*
X130325720Y-94633702D01*
X130330286Y-94642267D01*
X130826259Y-95386226D01*
X130826388Y-95388221D01*
X130824724Y-95389331D01*
X130823048Y-95388602D01*
X130807649Y-95369798D01*
X130789027Y-95354483D01*
X130767773Y-95343093D01*
X130744710Y-95336070D01*
X130720722Y-95333683D01*
X130696718Y-95336021D01*
X130673646Y-95342994D01*
X130652365Y-95354341D01*
X130633753Y-95369582D01*
X130622421Y-95384829D01*
X130622104Y-95384966D01*
X130616377Y-95391929D01*
X130614504Y-95392632D01*
X130612959Y-95391362D01*
X130613069Y-95389714D01*
X130616242Y-95383793D01*
X130619040Y-95374608D01*
X130619990Y-95365053D01*
X130619058Y-95355493D01*
X130616280Y-95346298D01*
X130611714Y-95337733D01*
X130130631Y-94616109D01*
X130130631Y-94613891D01*
X130611717Y-93892263D01*
X130616260Y-93883751D01*
X130619050Y-93874555D01*
X130619991Y-93865000D01*
X130619050Y-93855445D01*
X130616261Y-93846252D01*
X130613096Y-93840332D01*
X130613162Y-93838333D01*
X130614925Y-93837390D01*
X130616406Y-93838120D01*
G37*
G36*
X160505732Y-87648000D02*
G01*
X160506000Y-87649000D01*
X160506000Y-89251000D01*
X160505000Y-89252732D01*
X160504000Y-89253000D01*
X160256000Y-89253000D01*
X160254268Y-89252000D01*
X160254000Y-89251000D01*
X160254000Y-87649000D01*
X160255000Y-87647268D01*
X160256000Y-87647000D01*
X160504000Y-87647000D01*
X160505732Y-87648000D01*
G37*
G36*
X118774232Y-87510000D02*
G01*
X118774232Y-87512000D01*
X118772696Y-87512990D01*
X118748509Y-87515372D01*
X118725434Y-87522372D01*
X118704170Y-87533737D01*
X118685533Y-87549032D01*
X118670238Y-87567669D01*
X118658873Y-87588933D01*
X118651873Y-87612008D01*
X118649510Y-87635999D01*
X118651873Y-87659990D01*
X118658873Y-87683065D01*
X118670238Y-87704329D01*
X118685533Y-87722966D01*
X118704170Y-87738261D01*
X118725434Y-87749626D01*
X118742819Y-87754900D01*
X118744186Y-87756360D01*
X118743605Y-87758274D01*
X118741848Y-87758776D01*
X118730619Y-87756542D01*
X118505381Y-87756542D01*
X118494152Y-87758776D01*
X118492258Y-87758133D01*
X118491868Y-87756171D01*
X118493181Y-87754900D01*
X118510566Y-87749626D01*
X118531830Y-87738261D01*
X118550467Y-87722966D01*
X118565762Y-87704329D01*
X118577127Y-87683065D01*
X118584127Y-87659990D01*
X118586490Y-87635999D01*
X118584127Y-87612008D01*
X118577127Y-87588933D01*
X118565762Y-87567669D01*
X118550467Y-87549032D01*
X118531830Y-87533737D01*
X118510566Y-87522372D01*
X118487491Y-87515372D01*
X118463304Y-87512990D01*
X118461678Y-87511825D01*
X118461874Y-87509835D01*
X118463500Y-87509000D01*
X118772500Y-87509000D01*
X118774232Y-87510000D01*
G37*
G36*
X139527908Y-84970335D02*
G01*
X139527699Y-84972151D01*
X139436682Y-85108369D01*
X139350486Y-85316464D01*
X139306542Y-85537381D01*
X139306542Y-85762619D01*
X139350486Y-85983536D01*
X139436682Y-86191631D01*
X139527700Y-86327851D01*
X139527831Y-86329847D01*
X139526168Y-86330958D01*
X139524491Y-86330231D01*
X139512965Y-86316186D01*
X139494329Y-86300891D01*
X139473065Y-86289526D01*
X139449990Y-86282526D01*
X139425999Y-86280163D01*
X139402008Y-86282526D01*
X139378933Y-86289526D01*
X139357669Y-86300891D01*
X139339032Y-86316187D01*
X139323737Y-86334823D01*
X139312372Y-86356087D01*
X139305372Y-86379162D01*
X139302990Y-86403349D01*
X139301825Y-86404975D01*
X139299835Y-86404779D01*
X139299000Y-86403153D01*
X139299000Y-84999000D01*
X139300000Y-84997268D01*
X139301000Y-84997000D01*
X139354384Y-84997000D01*
X139355653Y-84997454D01*
X139357669Y-84999109D01*
X139378933Y-85010474D01*
X139402008Y-85017474D01*
X139425999Y-85019837D01*
X139449990Y-85017474D01*
X139473065Y-85010474D01*
X139494329Y-84999109D01*
X139512966Y-84983814D01*
X139524490Y-84969771D01*
X139526362Y-84969067D01*
X139527908Y-84970335D01*
G37*
M02*
