%FSLAX45Y45*%
G04 Gerber Fmt 4.5, Leading zero omitted, Abs format (unit mm)*
G04 Created by KiCad (PCBNEW (5.1.10)-1) date 2021-09-09 16:44:16*
%MOMM*%
%LPD*%
G01*
G04 APERTURE LIST*
%TA.AperFunction,Profile*%
%ADD10C,0.050000*%
%TD*%
%ADD11C,0.200000*%
%ADD12C,0.300000*%
G04 APERTURE END LIST*
D10*
X13346447Y-6446447D02*
G75*
G02*
X14100000Y-6500000I353553J-353553D01*
G01*
X13300000Y-12125000D02*
G75*
G02*
X13300000Y-11925000I0J100000D01*
G01*
X13300000Y-11925000D02*
X13800000Y-11925000D01*
X13300000Y-12125000D02*
X13800000Y-12125000D01*
X13800000Y-11925000D02*
G75*
G02*
X13800000Y-12125000I0J-100000D01*
G01*
X17600000Y-9950000D02*
G75*
G02*
X17800000Y-9950000I100000J0D01*
G01*
X17600000Y-10450000D02*
X17600000Y-9950000D01*
X17800000Y-10450000D02*
X17800000Y-9950000D01*
X17800000Y-10450000D02*
G75*
G02*
X17600000Y-10450000I-100000J0D01*
G01*
X17045711Y-7054289D02*
G75*
G02*
X16904289Y-7195711I-70711J-70711D01*
G01*
X17045711Y-7054289D02*
X16692157Y-6700736D01*
X16550736Y-6842157D02*
G75*
G02*
X16692157Y-6700736I70711J70711D01*
G01*
X16550736Y-6842157D02*
X16904289Y-7195711D01*
X13300000Y-12350000D02*
X17050000Y-12350000D01*
X12202883Y-12090478D02*
X13202027Y-12340307D01*
X13202027Y-12340307D02*
G75*
G03*
X13300000Y-12350000I97973J490307D01*
G01*
X11917157Y-8424264D02*
G75*
G02*
X11775736Y-8282843I-70711J70711D01*
G01*
X12129289Y-7929289D02*
G75*
G02*
X12270711Y-8070711I70711J-70711D01*
G01*
X11917157Y-8424264D02*
X12270711Y-8070711D01*
X12129289Y-7929289D02*
X11775736Y-8282843D01*
X11946447Y-11953553D02*
X11646447Y-11653553D01*
X11646447Y-11653553D02*
G75*
G02*
X11500000Y-11300000I353553J353553D01*
G01*
X13346447Y-6446447D02*
X11646447Y-8146447D01*
X12257843Y-11699264D02*
G75*
G02*
X12116421Y-11840685I-70711J-70711D01*
G01*
X12257843Y-11699264D02*
X11904289Y-11345711D01*
X11762868Y-11487132D02*
X12116421Y-11840685D01*
X11762868Y-11487132D02*
G75*
G02*
X11904289Y-11345711I70711J70711D01*
G01*
X15900000Y-6500000D02*
G75*
G02*
X14100000Y-6500000I-900000J700000D01*
G01*
X17403553Y-12203553D02*
X17853553Y-11753553D01*
X17403553Y-12203553D02*
G75*
G02*
X17050000Y-12350000I-353553J353553D01*
G01*
X17853553Y-7646447D02*
X16653553Y-6446447D01*
X16653553Y-6446447D02*
G75*
G03*
X15900000Y-6500000I-353553J-353553D01*
G01*
X11946447Y-11953553D02*
G75*
G03*
X12202883Y-12090478I353553J353553D01*
G01*
X11646447Y-8146447D02*
G75*
G03*
X11500000Y-8500000I353553J-353553D01*
G01*
X17853553Y-7646447D02*
G75*
G02*
X18000000Y-8000000I-353553J-353553D01*
G01*
X18000000Y-11400000D02*
X18000000Y-8000000D01*
X11500000Y-11300000D02*
X11500000Y-8500000D01*
X17853553Y-11753553D02*
G75*
G03*
X18000000Y-11400000I-353553J353553D01*
G01*
D11*
X15156500Y-10775000D02*
X15196500Y-10815000D01*
X15196500Y-10775000D02*
X15156500Y-10815000D01*
X12788300Y-10160000D02*
G75*
G03*
X12788300Y-10160000I-37500J0D01*
G01*
X12915300Y-10160000D02*
G75*
G03*
X12915300Y-10160000I-37500J0D01*
G01*
X13042300Y-10160000D02*
G75*
G03*
X13042300Y-10160000I-37500J0D01*
G01*
X16547500Y-11430000D02*
G75*
G03*
X16547500Y-11430000I-37500J0D01*
G01*
X16674500Y-11430000D02*
G75*
G03*
X16674500Y-11430000I-37500J0D01*
G01*
X16801500Y-11430000D02*
G75*
G03*
X16801500Y-11430000I-37500J0D01*
G01*
X12446000Y-8342000D02*
X12446000Y-8422000D01*
X12406000Y-8382000D02*
X12486000Y-8382000D01*
X12446000Y-9104000D02*
X12446000Y-9184000D01*
X12406000Y-9144000D02*
X12486000Y-9144000D01*
X12700000Y-8342000D02*
X12700000Y-8422000D01*
X12660000Y-8382000D02*
X12740000Y-8382000D01*
X12700000Y-8596000D02*
X12700000Y-8676000D01*
X12660000Y-8636000D02*
X12740000Y-8636000D01*
X12700000Y-8850000D02*
X12700000Y-8930000D01*
X12660000Y-8890000D02*
X12740000Y-8890000D01*
X12700000Y-9104000D02*
X12700000Y-9184000D01*
X12660000Y-9144000D02*
X12740000Y-9144000D01*
X12700000Y-9421500D02*
X12700000Y-9501500D01*
X12660000Y-9461500D02*
X12740000Y-9461500D01*
X13081000Y-8342000D02*
X13081000Y-8422000D01*
X13041000Y-8382000D02*
X13121000Y-8382000D01*
X13081000Y-9104000D02*
X13081000Y-9184000D01*
X13041000Y-9144000D02*
X13121000Y-9144000D01*
X13398500Y-9675500D02*
X13398500Y-9755500D01*
X13358500Y-9715500D02*
X13438500Y-9715500D01*
X13398500Y-10437500D02*
X13398500Y-10517500D01*
X13358500Y-10477500D02*
X13438500Y-10477500D01*
X13462000Y-8342000D02*
X13462000Y-8422000D01*
X13422000Y-8382000D02*
X13502000Y-8382000D01*
X13462000Y-8596000D02*
X13462000Y-8676000D01*
X13422000Y-8636000D02*
X13502000Y-8636000D01*
X13462000Y-8850000D02*
X13462000Y-8930000D01*
X13422000Y-8890000D02*
X13502000Y-8890000D01*
X13462000Y-9104000D02*
X13462000Y-9184000D01*
X13422000Y-9144000D02*
X13502000Y-9144000D01*
X13462000Y-9421500D02*
X13462000Y-9501500D01*
X13422000Y-9461500D02*
X13502000Y-9461500D01*
X13906500Y-9104000D02*
X13906500Y-9184000D01*
X13866500Y-9144000D02*
X13946500Y-9144000D01*
X13906500Y-9866000D02*
X13906500Y-9946000D01*
X13866500Y-9906000D02*
X13946500Y-9906000D01*
X14224000Y-9802500D02*
X14224000Y-9882500D01*
X14184000Y-9842500D02*
X14264000Y-9842500D01*
X14224000Y-10564500D02*
X14224000Y-10644500D01*
X14184000Y-10604500D02*
X14264000Y-10604500D01*
X14541500Y-9802500D02*
X14541500Y-9882500D01*
X14501500Y-9842500D02*
X14581500Y-9842500D01*
X14541500Y-10564500D02*
X14541500Y-10644500D01*
X14501500Y-10604500D02*
X14581500Y-10604500D01*
X14859000Y-9802500D02*
X14859000Y-9882500D01*
X14819000Y-9842500D02*
X14899000Y-9842500D01*
X14859000Y-10564500D02*
X14859000Y-10644500D01*
X14819000Y-10604500D02*
X14899000Y-10604500D01*
X15176500Y-9802500D02*
X15176500Y-9882500D01*
X15136500Y-9842500D02*
X15216500Y-9842500D01*
X15176500Y-10564500D02*
X15176500Y-10644500D01*
X15136500Y-10604500D02*
X15216500Y-10604500D01*
X15494000Y-9802500D02*
X15494000Y-9882500D01*
X15454000Y-9842500D02*
X15534000Y-9842500D01*
X15494000Y-10564500D02*
X15494000Y-10644500D01*
X15454000Y-10604500D02*
X15534000Y-10604500D01*
X15811500Y-9802500D02*
X15811500Y-9882500D01*
X15771500Y-9842500D02*
X15851500Y-9842500D01*
X15811500Y-10564500D02*
X15811500Y-10644500D01*
X15771500Y-10604500D02*
X15851500Y-10604500D01*
X16129000Y-9802500D02*
X16129000Y-9882500D01*
X16089000Y-9842500D02*
X16169000Y-9842500D01*
X16129000Y-10564500D02*
X16129000Y-10644500D01*
X16089000Y-10604500D02*
X16169000Y-10604500D01*
X16446500Y-9802500D02*
X16446500Y-9882500D01*
X16406500Y-9842500D02*
X16486500Y-9842500D01*
X16446500Y-10564500D02*
X16446500Y-10644500D01*
X16406500Y-10604500D02*
X16486500Y-10604500D01*
X16510000Y-8278500D02*
X16510000Y-8358500D01*
X16470000Y-8318500D02*
X16550000Y-8318500D01*
X16510000Y-9040500D02*
X16510000Y-9120500D01*
X16470000Y-9080500D02*
X16550000Y-9080500D01*
X16764000Y-9802500D02*
X16764000Y-9882500D01*
X16724000Y-9842500D02*
X16804000Y-9842500D01*
X16764000Y-10564500D02*
X16764000Y-10644500D01*
X16724000Y-10604500D02*
X16804000Y-10604500D01*
X17081500Y-9802500D02*
X17081500Y-9882500D01*
X17041500Y-9842500D02*
X17121500Y-9842500D01*
X17081500Y-10564500D02*
X17081500Y-10644500D01*
X17041500Y-10604500D02*
X17121500Y-10604500D01*
X13319556Y-7591856D02*
X13319556Y-7521144D01*
X13248844Y-7521144D01*
X13248844Y-7591856D01*
X13319556Y-7591856D01*
X13319556Y-7845856D02*
X13319556Y-7775144D01*
X13248844Y-7775144D01*
X13248844Y-7845856D01*
X13319556Y-7845856D01*
X13332256Y-8099856D02*
X13332256Y-8029144D01*
X13261544Y-8029144D01*
X13261544Y-8099856D01*
X13332256Y-8099856D01*
X14259356Y-9179356D02*
X14259356Y-9108644D01*
X14188644Y-9108644D01*
X14188644Y-9179356D01*
X14259356Y-9179356D01*
X14259356Y-11528856D02*
X14259356Y-11458144D01*
X14188644Y-11458144D01*
X14188644Y-11528856D01*
X14259356Y-11528856D01*
X14513356Y-9179356D02*
X14513356Y-9108644D01*
X14442644Y-9108644D01*
X14442644Y-9179356D01*
X14513356Y-9179356D01*
X14513356Y-11528856D02*
X14513356Y-11458144D01*
X14442644Y-11458144D01*
X14442644Y-11528856D01*
X14513356Y-11528856D01*
X14767356Y-9179356D02*
X14767356Y-9108644D01*
X14696644Y-9108644D01*
X14696644Y-9179356D01*
X14767356Y-9179356D01*
X14767356Y-11528856D02*
X14767356Y-11458144D01*
X14696644Y-11458144D01*
X14696644Y-11528856D01*
X14767356Y-11528856D01*
X15021356Y-9179356D02*
X15021356Y-9108644D01*
X14950644Y-9108644D01*
X14950644Y-9179356D01*
X15021356Y-9179356D01*
X15021356Y-11528856D02*
X15021356Y-11458144D01*
X14950644Y-11458144D01*
X14950644Y-11528856D01*
X15021356Y-11528856D01*
X15275356Y-9179356D02*
X15275356Y-9108644D01*
X15204644Y-9108644D01*
X15204644Y-9179356D01*
X15275356Y-9179356D01*
X15275356Y-11528856D02*
X15275356Y-11458144D01*
X15204644Y-11458144D01*
X15204644Y-11528856D01*
X15275356Y-11528856D01*
X15529356Y-9179356D02*
X15529356Y-9108644D01*
X15458644Y-9108644D01*
X15458644Y-9179356D01*
X15529356Y-9179356D01*
X15529356Y-11528856D02*
X15529356Y-11458144D01*
X15458644Y-11458144D01*
X15458644Y-11528856D01*
X15529356Y-11528856D01*
X15783356Y-9179356D02*
X15783356Y-9108644D01*
X15712644Y-9108644D01*
X15712644Y-9179356D01*
X15783356Y-9179356D01*
X15783356Y-11528856D02*
X15783356Y-11458144D01*
X15712644Y-11458144D01*
X15712644Y-11528856D01*
X15783356Y-11528856D01*
X16037356Y-9179356D02*
X16037356Y-9108644D01*
X15966644Y-9108644D01*
X15966644Y-9179356D01*
X16037356Y-9179356D01*
X16037356Y-11528856D02*
X16037356Y-11458144D01*
X15966644Y-11458144D01*
X15966644Y-11528856D01*
X16037356Y-11528856D01*
X16291356Y-11528856D02*
X16291356Y-11458144D01*
X16220644Y-11458144D01*
X16220644Y-11528856D01*
X16291356Y-11528856D01*
X14224000Y-9512500D02*
X14275000Y-9461500D01*
X14224000Y-9410500D01*
X14173000Y-9461500D01*
X14224000Y-9512500D01*
X14224000Y-11036500D02*
X14275000Y-10985500D01*
X14224000Y-10934500D01*
X14173000Y-10985500D01*
X14224000Y-11036500D01*
X14478000Y-9512500D02*
X14529000Y-9461500D01*
X14478000Y-9410500D01*
X14427000Y-9461500D01*
X14478000Y-9512500D01*
X14478000Y-11036500D02*
X14529000Y-10985500D01*
X14478000Y-10934500D01*
X14427000Y-10985500D01*
X14478000Y-11036500D01*
X14732000Y-9512500D02*
X14783000Y-9461500D01*
X14732000Y-9410500D01*
X14681000Y-9461500D01*
X14732000Y-9512500D01*
X14732000Y-11036500D02*
X14783000Y-10985500D01*
X14732000Y-10934500D01*
X14681000Y-10985500D01*
X14732000Y-11036500D01*
X14986000Y-9512500D02*
X15037000Y-9461500D01*
X14986000Y-9410500D01*
X14935000Y-9461500D01*
X14986000Y-9512500D01*
X14986000Y-11036500D02*
X15037000Y-10985500D01*
X14986000Y-10934500D01*
X14935000Y-10985500D01*
X14986000Y-11036500D01*
X15240000Y-9512500D02*
X15291000Y-9461500D01*
X15240000Y-9410500D01*
X15189000Y-9461500D01*
X15240000Y-9512500D01*
X15240000Y-11036500D02*
X15291000Y-10985500D01*
X15240000Y-10934500D01*
X15189000Y-10985500D01*
X15240000Y-11036500D01*
X15494000Y-9512500D02*
X15545000Y-9461500D01*
X15494000Y-9410500D01*
X15443000Y-9461500D01*
X15494000Y-9512500D01*
X15494000Y-11036500D02*
X15545000Y-10985500D01*
X15494000Y-10934500D01*
X15443000Y-10985500D01*
X15494000Y-11036500D01*
X15748000Y-9512500D02*
X15799000Y-9461500D01*
X15748000Y-9410500D01*
X15697000Y-9461500D01*
X15748000Y-9512500D01*
X15748000Y-11036500D02*
X15799000Y-10985500D01*
X15748000Y-10934500D01*
X15697000Y-10985500D01*
X15748000Y-11036500D01*
X16002000Y-9512500D02*
X16053000Y-9461500D01*
X16002000Y-9410500D01*
X15951000Y-9461500D01*
X16002000Y-9512500D01*
X16002000Y-11036500D02*
X16053000Y-10985500D01*
X16002000Y-10934500D01*
X15951000Y-10985500D01*
X16002000Y-11036500D01*
X16256000Y-9512500D02*
X16307000Y-9461500D01*
X16256000Y-9410500D01*
X16205000Y-9461500D01*
X16256000Y-9512500D01*
X16256000Y-11036500D02*
X16307000Y-10985500D01*
X16256000Y-10934500D01*
X16205000Y-10985500D01*
X16256000Y-11036500D01*
X16510000Y-9512500D02*
X16561000Y-9461500D01*
X16510000Y-9410500D01*
X16459000Y-9461500D01*
X16510000Y-9512500D01*
X16510000Y-11036500D02*
X16561000Y-10985500D01*
X16510000Y-10934500D01*
X16459000Y-10985500D01*
X16510000Y-11036500D01*
X16764000Y-9512500D02*
X16815000Y-9461500D01*
X16764000Y-9410500D01*
X16713000Y-9461500D01*
X16764000Y-9512500D01*
X16764000Y-11036500D02*
X16815000Y-10985500D01*
X16764000Y-10934500D01*
X16713000Y-10985500D01*
X16764000Y-11036500D01*
X17018000Y-9512500D02*
X17069000Y-9461500D01*
X17018000Y-9410500D01*
X16967000Y-9461500D01*
X17018000Y-9512500D01*
X17018000Y-11036500D02*
X17069000Y-10985500D01*
X17018000Y-10934500D01*
X16967000Y-10985500D01*
X17018000Y-11036500D01*
X17272000Y-9512500D02*
X17323000Y-9461500D01*
X17272000Y-9410500D01*
X17221000Y-9461500D01*
X17272000Y-9512500D01*
X17272000Y-11036500D02*
X17323000Y-10985500D01*
X17272000Y-10934500D01*
X17221000Y-10985500D01*
X17272000Y-11036500D01*
X17526000Y-9512500D02*
X17577000Y-9461500D01*
X17526000Y-9410500D01*
X17475000Y-9461500D01*
X17526000Y-9512500D01*
X17526000Y-11036500D02*
X17577000Y-10985500D01*
X17526000Y-10934500D01*
X17475000Y-10985500D01*
X17526000Y-11036500D01*
X17780000Y-9512500D02*
X17831000Y-9461500D01*
X17780000Y-9410500D01*
X17729000Y-9461500D01*
X17780000Y-9512500D01*
X17780000Y-11036500D02*
X17831000Y-10985500D01*
X17780000Y-10934500D01*
X17729000Y-10985500D01*
X17780000Y-11036500D01*
X11806800Y-8581000D02*
X11916800Y-8691000D01*
X11916800Y-8581000D02*
X11806800Y-8691000D01*
X11916800Y-8636000D02*
G75*
G03*
X11916800Y-8636000I-55000J0D01*
G01*
X11806800Y-8835000D02*
X11916800Y-8945000D01*
X11916800Y-8835000D02*
X11806800Y-8945000D01*
X11916800Y-8890000D02*
G75*
G03*
X11916800Y-8890000I-55000J0D01*
G01*
X11806800Y-9089000D02*
X11916800Y-9199000D01*
X11916800Y-9089000D02*
X11806800Y-9199000D01*
X11916800Y-9144000D02*
G75*
G03*
X11916800Y-9144000I-55000J0D01*
G01*
X11806800Y-9343000D02*
X11916800Y-9453000D01*
X11916800Y-9343000D02*
X11806800Y-9453000D01*
X11916800Y-9398000D02*
G75*
G03*
X11916800Y-9398000I-55000J0D01*
G01*
X11806800Y-9597000D02*
X11916800Y-9707000D01*
X11916800Y-9597000D02*
X11806800Y-9707000D01*
X11916800Y-9652000D02*
G75*
G03*
X11916800Y-9652000I-55000J0D01*
G01*
X11806800Y-9851000D02*
X11916800Y-9961000D01*
X11916800Y-9851000D02*
X11806800Y-9961000D01*
X11916800Y-9906000D02*
G75*
G03*
X11916800Y-9906000I-55000J0D01*
G01*
X11806800Y-10105000D02*
X11916800Y-10215000D01*
X11916800Y-10105000D02*
X11806800Y-10215000D01*
X11916800Y-10160000D02*
G75*
G03*
X11916800Y-10160000I-55000J0D01*
G01*
X11806800Y-10359000D02*
X11916800Y-10469000D01*
X11916800Y-10359000D02*
X11806800Y-10469000D01*
X11916800Y-10414000D02*
G75*
G03*
X11916800Y-10414000I-55000J0D01*
G01*
X11806800Y-10613000D02*
X11916800Y-10723000D01*
X11916800Y-10613000D02*
X11806800Y-10723000D01*
X11916800Y-10668000D02*
G75*
G03*
X11916800Y-10668000I-55000J0D01*
G01*
X11806800Y-10867000D02*
X11916800Y-10977000D01*
X11916800Y-10867000D02*
X11806800Y-10977000D01*
X11916800Y-10922000D02*
G75*
G03*
X11916800Y-10922000I-55000J0D01*
G01*
X13470500Y-7501500D02*
X13580500Y-7611500D01*
X13580500Y-7501500D02*
X13470500Y-7611500D01*
X13580500Y-7556500D02*
G75*
G03*
X13580500Y-7556500I-55000J0D01*
G01*
X13470500Y-7755500D02*
X13580500Y-7865500D01*
X13580500Y-7755500D02*
X13470500Y-7865500D01*
X13580500Y-7810500D02*
G75*
G03*
X13580500Y-7810500I-55000J0D01*
G01*
X13470500Y-8009500D02*
X13580500Y-8119500D01*
X13580500Y-8009500D02*
X13470500Y-8119500D01*
X13580500Y-8064500D02*
G75*
G03*
X13580500Y-8064500I-55000J0D01*
G01*
X14423000Y-11946500D02*
X14533000Y-12056500D01*
X14533000Y-11946500D02*
X14423000Y-12056500D01*
X14533000Y-12001500D02*
G75*
G03*
X14533000Y-12001500I-55000J0D01*
G01*
X14677000Y-11946500D02*
X14787000Y-12056500D01*
X14787000Y-11946500D02*
X14677000Y-12056500D01*
X14787000Y-12001500D02*
G75*
G03*
X14787000Y-12001500I-55000J0D01*
G01*
X14931000Y-11946500D02*
X15041000Y-12056500D01*
X15041000Y-11946500D02*
X14931000Y-12056500D01*
X15041000Y-12001500D02*
G75*
G03*
X15041000Y-12001500I-55000J0D01*
G01*
X15185000Y-11946500D02*
X15295000Y-12056500D01*
X15295000Y-11946500D02*
X15185000Y-12056500D01*
X15295000Y-12001500D02*
G75*
G03*
X15295000Y-12001500I-55000J0D01*
G01*
X15439000Y-11946500D02*
X15549000Y-12056500D01*
X15549000Y-11946500D02*
X15439000Y-12056500D01*
X15549000Y-12001500D02*
G75*
G03*
X15549000Y-12001500I-55000J0D01*
G01*
X15693000Y-11946500D02*
X15803000Y-12056500D01*
X15803000Y-11946500D02*
X15693000Y-12056500D01*
X15803000Y-12001500D02*
G75*
G03*
X15803000Y-12001500I-55000J0D01*
G01*
X15947000Y-11946500D02*
X16057000Y-12056500D01*
X16057000Y-11946500D02*
X15947000Y-12056500D01*
X16057000Y-12001500D02*
G75*
G03*
X16057000Y-12001500I-55000J0D01*
G01*
X16090000Y-8510000D02*
X16200000Y-8620000D01*
X16200000Y-8510000D02*
X16090000Y-8620000D01*
X16200000Y-8565000D02*
G75*
G03*
X16200000Y-8565000I-55000J0D01*
G01*
X16201000Y-11946500D02*
X16311000Y-12056500D01*
X16311000Y-11946500D02*
X16201000Y-12056500D01*
X16311000Y-12001500D02*
G75*
G03*
X16311000Y-12001500I-55000J0D01*
G01*
X16455000Y-11946500D02*
X16565000Y-12056500D01*
X16565000Y-11946500D02*
X16455000Y-12056500D01*
X16565000Y-12001500D02*
G75*
G03*
X16565000Y-12001500I-55000J0D01*
G01*
X16709000Y-11946500D02*
X16819000Y-12056500D01*
X16819000Y-11946500D02*
X16709000Y-12056500D01*
X16819000Y-12001500D02*
G75*
G03*
X16819000Y-12001500I-55000J0D01*
G01*
X13965000Y-8485000D02*
X14125000Y-8645000D01*
X14125000Y-8485000D02*
X13965000Y-8645000D01*
X14045000Y-8485000D02*
X14045000Y-8645000D01*
X13965000Y-8565000D02*
X14125000Y-8565000D01*
X12485000Y-7585000D02*
X12915000Y-8015000D01*
X12915000Y-7585000D02*
X12485000Y-8015000D01*
X12852029Y-7952029D02*
X12852029Y-7647971D01*
X12547971Y-7647971D01*
X12547971Y-7952029D01*
X12852029Y-7952029D01*
X12485000Y-11385000D02*
X12915000Y-11815000D01*
X12915000Y-11385000D02*
X12485000Y-11815000D01*
X12852029Y-11752029D02*
X12852029Y-11447971D01*
X12547971Y-11447971D01*
X12547971Y-11752029D01*
X12852029Y-11752029D01*
X17085000Y-7585000D02*
X17515000Y-8015000D01*
X17515000Y-7585000D02*
X17085000Y-8015000D01*
X17452029Y-7952029D02*
X17452029Y-7647971D01*
X17147971Y-7647971D01*
X17147971Y-7952029D01*
X17452029Y-7952029D01*
X17085000Y-11385000D02*
X17515000Y-11815000D01*
X17515000Y-11385000D02*
X17085000Y-11815000D01*
X17452029Y-11752029D02*
X17452029Y-11447971D01*
X17147971Y-11447971D01*
X17147971Y-11752029D01*
X17452029Y-11752029D01*
D12*
X11783928Y-12818214D02*
X11783928Y-12518214D01*
X11855357Y-12518214D01*
X11898214Y-12532500D01*
X11926786Y-12561071D01*
X11941071Y-12589643D01*
X11955357Y-12646786D01*
X11955357Y-12689643D01*
X11941071Y-12746786D01*
X11926786Y-12775357D01*
X11898214Y-12803929D01*
X11855357Y-12818214D01*
X11783928Y-12818214D01*
X12083928Y-12818214D02*
X12083928Y-12618214D01*
X12083928Y-12675357D02*
X12098214Y-12646786D01*
X12112500Y-12632500D01*
X12141071Y-12618214D01*
X12169643Y-12618214D01*
X12269643Y-12818214D02*
X12269643Y-12618214D01*
X12269643Y-12518214D02*
X12255357Y-12532500D01*
X12269643Y-12546786D01*
X12283928Y-12532500D01*
X12269643Y-12518214D01*
X12269643Y-12546786D01*
X12455357Y-12818214D02*
X12426786Y-12803929D01*
X12412500Y-12775357D01*
X12412500Y-12518214D01*
X12612500Y-12818214D02*
X12583928Y-12803929D01*
X12569643Y-12775357D01*
X12569643Y-12518214D01*
X12955357Y-12818214D02*
X12955357Y-12518214D01*
X13055357Y-12732500D01*
X13155357Y-12518214D01*
X13155357Y-12818214D01*
X13426786Y-12818214D02*
X13426786Y-12661071D01*
X13412500Y-12632500D01*
X13383928Y-12618214D01*
X13326786Y-12618214D01*
X13298214Y-12632500D01*
X13426786Y-12803929D02*
X13398214Y-12818214D01*
X13326786Y-12818214D01*
X13298214Y-12803929D01*
X13283928Y-12775357D01*
X13283928Y-12746786D01*
X13298214Y-12718214D01*
X13326786Y-12703929D01*
X13398214Y-12703929D01*
X13426786Y-12689643D01*
X13569643Y-12618214D02*
X13569643Y-12918214D01*
X13569643Y-12632500D02*
X13598214Y-12618214D01*
X13655357Y-12618214D01*
X13683928Y-12632500D01*
X13698214Y-12646786D01*
X13712500Y-12675357D01*
X13712500Y-12761071D01*
X13698214Y-12789643D01*
X13683928Y-12803929D01*
X13655357Y-12818214D01*
X13598214Y-12818214D01*
X13569643Y-12803929D01*
X13841071Y-12789643D02*
X13855357Y-12803929D01*
X13841071Y-12818214D01*
X13826786Y-12803929D01*
X13841071Y-12789643D01*
X13841071Y-12818214D01*
X13841071Y-12632500D02*
X13855357Y-12646786D01*
X13841071Y-12661071D01*
X13826786Y-12646786D01*
X13841071Y-12632500D01*
X13841071Y-12661071D01*
X11457500Y-13292500D02*
X11497500Y-13332500D01*
X11497500Y-13292500D02*
X11457500Y-13332500D01*
X11841071Y-13148214D02*
X11869643Y-13148214D01*
X11898214Y-13162500D01*
X11912500Y-13176786D01*
X11926786Y-13205357D01*
X11941071Y-13262500D01*
X11941071Y-13333929D01*
X11926786Y-13391071D01*
X11912500Y-13419643D01*
X11898214Y-13433929D01*
X11869643Y-13448214D01*
X11841071Y-13448214D01*
X11812500Y-13433929D01*
X11798214Y-13419643D01*
X11783928Y-13391071D01*
X11769643Y-13333929D01*
X11769643Y-13262500D01*
X11783928Y-13205357D01*
X11798214Y-13176786D01*
X11812500Y-13162500D01*
X11841071Y-13148214D01*
X12069643Y-13419643D02*
X12083928Y-13433929D01*
X12069643Y-13448214D01*
X12055357Y-13433929D01*
X12069643Y-13419643D01*
X12069643Y-13448214D01*
X12341071Y-13248214D02*
X12341071Y-13448214D01*
X12269643Y-13133929D02*
X12198214Y-13348214D01*
X12383928Y-13348214D01*
X12555357Y-13148214D02*
X12583928Y-13148214D01*
X12612500Y-13162500D01*
X12626786Y-13176786D01*
X12641071Y-13205357D01*
X12655357Y-13262500D01*
X12655357Y-13333929D01*
X12641071Y-13391071D01*
X12626786Y-13419643D01*
X12612500Y-13433929D01*
X12583928Y-13448214D01*
X12555357Y-13448214D01*
X12526786Y-13433929D01*
X12512500Y-13419643D01*
X12498214Y-13391071D01*
X12483928Y-13333929D01*
X12483928Y-13262500D01*
X12498214Y-13205357D01*
X12512500Y-13176786D01*
X12526786Y-13162500D01*
X12555357Y-13148214D01*
X12841071Y-13148214D02*
X12869643Y-13148214D01*
X12898214Y-13162500D01*
X12912500Y-13176786D01*
X12926786Y-13205357D01*
X12941071Y-13262500D01*
X12941071Y-13333929D01*
X12926786Y-13391071D01*
X12912500Y-13419643D01*
X12898214Y-13433929D01*
X12869643Y-13448214D01*
X12841071Y-13448214D01*
X12812500Y-13433929D01*
X12798214Y-13419643D01*
X12783928Y-13391071D01*
X12769643Y-13333929D01*
X12769643Y-13262500D01*
X12783928Y-13205357D01*
X12798214Y-13176786D01*
X12812500Y-13162500D01*
X12841071Y-13148214D01*
X13069643Y-13448214D02*
X13069643Y-13248214D01*
X13069643Y-13276786D02*
X13083928Y-13262500D01*
X13112500Y-13248214D01*
X13155357Y-13248214D01*
X13183928Y-13262500D01*
X13198214Y-13291071D01*
X13198214Y-13448214D01*
X13198214Y-13291071D02*
X13212500Y-13262500D01*
X13241071Y-13248214D01*
X13283928Y-13248214D01*
X13312500Y-13262500D01*
X13326786Y-13291071D01*
X13326786Y-13448214D01*
X13469643Y-13448214D02*
X13469643Y-13248214D01*
X13469643Y-13276786D02*
X13483928Y-13262500D01*
X13512500Y-13248214D01*
X13555357Y-13248214D01*
X13583928Y-13262500D01*
X13598214Y-13291071D01*
X13598214Y-13448214D01*
X13598214Y-13291071D02*
X13612500Y-13262500D01*
X13641071Y-13248214D01*
X13683928Y-13248214D01*
X13712500Y-13262500D01*
X13726786Y-13291071D01*
X13726786Y-13448214D01*
X14312500Y-13133929D02*
X14055357Y-13519643D01*
X14698214Y-13148214D02*
X14726786Y-13148214D01*
X14755357Y-13162500D01*
X14769643Y-13176786D01*
X14783928Y-13205357D01*
X14798214Y-13262500D01*
X14798214Y-13333929D01*
X14783928Y-13391071D01*
X14769643Y-13419643D01*
X14755357Y-13433929D01*
X14726786Y-13448214D01*
X14698214Y-13448214D01*
X14669643Y-13433929D01*
X14655357Y-13419643D01*
X14641071Y-13391071D01*
X14626786Y-13333929D01*
X14626786Y-13262500D01*
X14641071Y-13205357D01*
X14655357Y-13176786D01*
X14669643Y-13162500D01*
X14698214Y-13148214D01*
X14926786Y-13419643D02*
X14941071Y-13433929D01*
X14926786Y-13448214D01*
X14912500Y-13433929D01*
X14926786Y-13419643D01*
X14926786Y-13448214D01*
X15126786Y-13148214D02*
X15155357Y-13148214D01*
X15183928Y-13162500D01*
X15198214Y-13176786D01*
X15212500Y-13205357D01*
X15226786Y-13262500D01*
X15226786Y-13333929D01*
X15212500Y-13391071D01*
X15198214Y-13419643D01*
X15183928Y-13433929D01*
X15155357Y-13448214D01*
X15126786Y-13448214D01*
X15098214Y-13433929D01*
X15083928Y-13419643D01*
X15069643Y-13391071D01*
X15055357Y-13333929D01*
X15055357Y-13262500D01*
X15069643Y-13205357D01*
X15083928Y-13176786D01*
X15098214Y-13162500D01*
X15126786Y-13148214D01*
X15512500Y-13448214D02*
X15341071Y-13448214D01*
X15426786Y-13448214D02*
X15426786Y-13148214D01*
X15398214Y-13191071D01*
X15369643Y-13219643D01*
X15341071Y-13233929D01*
X15783928Y-13148214D02*
X15641071Y-13148214D01*
X15626786Y-13291071D01*
X15641071Y-13276786D01*
X15669643Y-13262500D01*
X15741071Y-13262500D01*
X15769643Y-13276786D01*
X15783928Y-13291071D01*
X15798214Y-13319643D01*
X15798214Y-13391071D01*
X15783928Y-13419643D01*
X15769643Y-13433929D01*
X15741071Y-13448214D01*
X15669643Y-13448214D01*
X15641071Y-13433929D01*
X15626786Y-13419643D01*
X15898214Y-13148214D02*
X16098214Y-13148214D01*
X15969643Y-13448214D01*
X16198214Y-13148214D02*
X16198214Y-13205357D01*
X16312500Y-13148214D02*
X16312500Y-13205357D01*
X16755357Y-13562500D02*
X16741071Y-13548214D01*
X16712500Y-13505357D01*
X16698214Y-13476786D01*
X16683928Y-13433929D01*
X16669643Y-13362500D01*
X16669643Y-13305357D01*
X16683928Y-13233929D01*
X16698214Y-13191071D01*
X16712500Y-13162500D01*
X16741071Y-13119643D01*
X16755357Y-13105357D01*
X17026786Y-13448214D02*
X16855357Y-13448214D01*
X16941071Y-13448214D02*
X16941071Y-13148214D01*
X16912500Y-13191071D01*
X16883928Y-13219643D01*
X16855357Y-13233929D01*
X17383928Y-13448214D02*
X17383928Y-13148214D01*
X17512500Y-13448214D02*
X17512500Y-13291071D01*
X17498214Y-13262500D01*
X17469643Y-13248214D01*
X17426786Y-13248214D01*
X17398214Y-13262500D01*
X17383928Y-13276786D01*
X17698214Y-13448214D02*
X17669643Y-13433929D01*
X17655357Y-13419643D01*
X17641071Y-13391071D01*
X17641071Y-13305357D01*
X17655357Y-13276786D01*
X17669643Y-13262500D01*
X17698214Y-13248214D01*
X17741071Y-13248214D01*
X17769643Y-13262500D01*
X17783928Y-13276786D01*
X17798214Y-13305357D01*
X17798214Y-13391071D01*
X17783928Y-13419643D01*
X17769643Y-13433929D01*
X17741071Y-13448214D01*
X17698214Y-13448214D01*
X17969643Y-13448214D02*
X17941071Y-13433929D01*
X17926786Y-13405357D01*
X17926786Y-13148214D01*
X18198214Y-13433929D02*
X18169643Y-13448214D01*
X18112500Y-13448214D01*
X18083928Y-13433929D01*
X18069643Y-13405357D01*
X18069643Y-13291071D01*
X18083928Y-13262500D01*
X18112500Y-13248214D01*
X18169643Y-13248214D01*
X18198214Y-13262500D01*
X18212500Y-13291071D01*
X18212500Y-13319643D01*
X18069643Y-13348214D01*
X18312500Y-13562500D02*
X18326786Y-13548214D01*
X18355357Y-13505357D01*
X18369643Y-13476786D01*
X18383928Y-13433929D01*
X18398214Y-13362500D01*
X18398214Y-13305357D01*
X18383928Y-13233929D01*
X18369643Y-13191071D01*
X18355357Y-13162500D01*
X18326786Y-13119643D01*
X18312500Y-13105357D01*
X11497500Y-13708500D02*
G75*
G03*
X11497500Y-13708500I-37500J0D01*
G01*
X11841071Y-13544214D02*
X11869643Y-13544214D01*
X11898214Y-13558500D01*
X11912500Y-13572786D01*
X11926786Y-13601357D01*
X11941071Y-13658500D01*
X11941071Y-13729929D01*
X11926786Y-13787071D01*
X11912500Y-13815643D01*
X11898214Y-13829929D01*
X11869643Y-13844214D01*
X11841071Y-13844214D01*
X11812500Y-13829929D01*
X11798214Y-13815643D01*
X11783928Y-13787071D01*
X11769643Y-13729929D01*
X11769643Y-13658500D01*
X11783928Y-13601357D01*
X11798214Y-13572786D01*
X11812500Y-13558500D01*
X11841071Y-13544214D01*
X12069643Y-13815643D02*
X12083928Y-13829929D01*
X12069643Y-13844214D01*
X12055357Y-13829929D01*
X12069643Y-13815643D01*
X12069643Y-13844214D01*
X12183928Y-13544214D02*
X12383928Y-13544214D01*
X12255357Y-13844214D01*
X12641071Y-13544214D02*
X12498214Y-13544214D01*
X12483928Y-13687071D01*
X12498214Y-13672786D01*
X12526786Y-13658500D01*
X12598214Y-13658500D01*
X12626786Y-13672786D01*
X12641071Y-13687071D01*
X12655357Y-13715643D01*
X12655357Y-13787071D01*
X12641071Y-13815643D01*
X12626786Y-13829929D01*
X12598214Y-13844214D01*
X12526786Y-13844214D01*
X12498214Y-13829929D01*
X12483928Y-13815643D01*
X12841071Y-13544214D02*
X12869643Y-13544214D01*
X12898214Y-13558500D01*
X12912500Y-13572786D01*
X12926786Y-13601357D01*
X12941071Y-13658500D01*
X12941071Y-13729929D01*
X12926786Y-13787071D01*
X12912500Y-13815643D01*
X12898214Y-13829929D01*
X12869643Y-13844214D01*
X12841071Y-13844214D01*
X12812500Y-13829929D01*
X12798214Y-13815643D01*
X12783928Y-13787071D01*
X12769643Y-13729929D01*
X12769643Y-13658500D01*
X12783928Y-13601357D01*
X12798214Y-13572786D01*
X12812500Y-13558500D01*
X12841071Y-13544214D01*
X13069643Y-13844214D02*
X13069643Y-13644214D01*
X13069643Y-13672786D02*
X13083928Y-13658500D01*
X13112500Y-13644214D01*
X13155357Y-13644214D01*
X13183928Y-13658500D01*
X13198214Y-13687071D01*
X13198214Y-13844214D01*
X13198214Y-13687071D02*
X13212500Y-13658500D01*
X13241071Y-13644214D01*
X13283928Y-13644214D01*
X13312500Y-13658500D01*
X13326786Y-13687071D01*
X13326786Y-13844214D01*
X13469643Y-13844214D02*
X13469643Y-13644214D01*
X13469643Y-13672786D02*
X13483928Y-13658500D01*
X13512500Y-13644214D01*
X13555357Y-13644214D01*
X13583928Y-13658500D01*
X13598214Y-13687071D01*
X13598214Y-13844214D01*
X13598214Y-13687071D02*
X13612500Y-13658500D01*
X13641071Y-13644214D01*
X13683928Y-13644214D01*
X13712500Y-13658500D01*
X13726786Y-13687071D01*
X13726786Y-13844214D01*
X14312500Y-13529929D02*
X14055357Y-13915643D01*
X14698214Y-13544214D02*
X14726786Y-13544214D01*
X14755357Y-13558500D01*
X14769643Y-13572786D01*
X14783928Y-13601357D01*
X14798214Y-13658500D01*
X14798214Y-13729929D01*
X14783928Y-13787071D01*
X14769643Y-13815643D01*
X14755357Y-13829929D01*
X14726786Y-13844214D01*
X14698214Y-13844214D01*
X14669643Y-13829929D01*
X14655357Y-13815643D01*
X14641071Y-13787071D01*
X14626786Y-13729929D01*
X14626786Y-13658500D01*
X14641071Y-13601357D01*
X14655357Y-13572786D01*
X14669643Y-13558500D01*
X14698214Y-13544214D01*
X14926786Y-13815643D02*
X14941071Y-13829929D01*
X14926786Y-13844214D01*
X14912500Y-13829929D01*
X14926786Y-13815643D01*
X14926786Y-13844214D01*
X15126786Y-13544214D02*
X15155357Y-13544214D01*
X15183928Y-13558500D01*
X15198214Y-13572786D01*
X15212500Y-13601357D01*
X15226786Y-13658500D01*
X15226786Y-13729929D01*
X15212500Y-13787071D01*
X15198214Y-13815643D01*
X15183928Y-13829929D01*
X15155357Y-13844214D01*
X15126786Y-13844214D01*
X15098214Y-13829929D01*
X15083928Y-13815643D01*
X15069643Y-13787071D01*
X15055357Y-13729929D01*
X15055357Y-13658500D01*
X15069643Y-13601357D01*
X15083928Y-13572786D01*
X15098214Y-13558500D01*
X15126786Y-13544214D01*
X15341071Y-13572786D02*
X15355357Y-13558500D01*
X15383928Y-13544214D01*
X15455357Y-13544214D01*
X15483928Y-13558500D01*
X15498214Y-13572786D01*
X15512500Y-13601357D01*
X15512500Y-13629929D01*
X15498214Y-13672786D01*
X15326786Y-13844214D01*
X15512500Y-13844214D01*
X15655357Y-13844214D02*
X15712500Y-13844214D01*
X15741071Y-13829929D01*
X15755357Y-13815643D01*
X15783928Y-13772786D01*
X15798214Y-13715643D01*
X15798214Y-13601357D01*
X15783928Y-13572786D01*
X15769643Y-13558500D01*
X15741071Y-13544214D01*
X15683928Y-13544214D01*
X15655357Y-13558500D01*
X15641071Y-13572786D01*
X15626786Y-13601357D01*
X15626786Y-13672786D01*
X15641071Y-13701357D01*
X15655357Y-13715643D01*
X15683928Y-13729929D01*
X15741071Y-13729929D01*
X15769643Y-13715643D01*
X15783928Y-13701357D01*
X15798214Y-13672786D01*
X16069643Y-13544214D02*
X15926786Y-13544214D01*
X15912500Y-13687071D01*
X15926786Y-13672786D01*
X15955357Y-13658500D01*
X16026786Y-13658500D01*
X16055357Y-13672786D01*
X16069643Y-13687071D01*
X16083928Y-13715643D01*
X16083928Y-13787071D01*
X16069643Y-13815643D01*
X16055357Y-13829929D01*
X16026786Y-13844214D01*
X15955357Y-13844214D01*
X15926786Y-13829929D01*
X15912500Y-13815643D01*
X16198214Y-13544214D02*
X16198214Y-13601357D01*
X16312500Y-13544214D02*
X16312500Y-13601357D01*
X16755357Y-13958500D02*
X16741071Y-13944214D01*
X16712500Y-13901357D01*
X16698214Y-13872786D01*
X16683928Y-13829929D01*
X16669643Y-13758500D01*
X16669643Y-13701357D01*
X16683928Y-13629929D01*
X16698214Y-13587071D01*
X16712500Y-13558500D01*
X16741071Y-13515643D01*
X16755357Y-13501357D01*
X16998214Y-13544214D02*
X16941071Y-13544214D01*
X16912500Y-13558500D01*
X16898214Y-13572786D01*
X16869643Y-13615643D01*
X16855357Y-13672786D01*
X16855357Y-13787071D01*
X16869643Y-13815643D01*
X16883928Y-13829929D01*
X16912500Y-13844214D01*
X16969643Y-13844214D01*
X16998214Y-13829929D01*
X17012500Y-13815643D01*
X17026786Y-13787071D01*
X17026786Y-13715643D01*
X17012500Y-13687071D01*
X16998214Y-13672786D01*
X16969643Y-13658500D01*
X16912500Y-13658500D01*
X16883928Y-13672786D01*
X16869643Y-13687071D01*
X16855357Y-13715643D01*
X17383928Y-13844214D02*
X17383928Y-13544214D01*
X17512500Y-13844214D02*
X17512500Y-13687071D01*
X17498214Y-13658500D01*
X17469643Y-13644214D01*
X17426786Y-13644214D01*
X17398214Y-13658500D01*
X17383928Y-13672786D01*
X17698214Y-13844214D02*
X17669643Y-13829929D01*
X17655357Y-13815643D01*
X17641071Y-13787071D01*
X17641071Y-13701357D01*
X17655357Y-13672786D01*
X17669643Y-13658500D01*
X17698214Y-13644214D01*
X17741071Y-13644214D01*
X17769643Y-13658500D01*
X17783928Y-13672786D01*
X17798214Y-13701357D01*
X17798214Y-13787071D01*
X17783928Y-13815643D01*
X17769643Y-13829929D01*
X17741071Y-13844214D01*
X17698214Y-13844214D01*
X17969643Y-13844214D02*
X17941071Y-13829929D01*
X17926786Y-13801357D01*
X17926786Y-13544214D01*
X18198214Y-13829929D02*
X18169643Y-13844214D01*
X18112500Y-13844214D01*
X18083928Y-13829929D01*
X18069643Y-13801357D01*
X18069643Y-13687071D01*
X18083928Y-13658500D01*
X18112500Y-13644214D01*
X18169643Y-13644214D01*
X18198214Y-13658500D01*
X18212500Y-13687071D01*
X18212500Y-13715643D01*
X18069643Y-13744214D01*
X18326786Y-13829929D02*
X18355357Y-13844214D01*
X18412500Y-13844214D01*
X18441071Y-13829929D01*
X18455357Y-13801357D01*
X18455357Y-13787071D01*
X18441071Y-13758500D01*
X18412500Y-13744214D01*
X18369643Y-13744214D01*
X18341071Y-13729929D01*
X18326786Y-13701357D01*
X18326786Y-13687071D01*
X18341071Y-13658500D01*
X18369643Y-13644214D01*
X18412500Y-13644214D01*
X18441071Y-13658500D01*
X18555357Y-13958500D02*
X18569643Y-13944214D01*
X18598214Y-13901357D01*
X18612500Y-13872786D01*
X18626786Y-13829929D01*
X18641071Y-13758500D01*
X18641071Y-13701357D01*
X18626786Y-13629929D01*
X18612500Y-13587071D01*
X18598214Y-13558500D01*
X18569643Y-13515643D01*
X18555357Y-13501357D01*
X11457500Y-14064500D02*
X11457500Y-14144500D01*
X11417500Y-14104500D02*
X11497500Y-14104500D01*
X11841071Y-13940214D02*
X11869643Y-13940214D01*
X11898214Y-13954500D01*
X11912500Y-13968786D01*
X11926786Y-13997357D01*
X11941071Y-14054500D01*
X11941071Y-14125929D01*
X11926786Y-14183071D01*
X11912500Y-14211643D01*
X11898214Y-14225929D01*
X11869643Y-14240214D01*
X11841071Y-14240214D01*
X11812500Y-14225929D01*
X11798214Y-14211643D01*
X11783928Y-14183071D01*
X11769643Y-14125929D01*
X11769643Y-14054500D01*
X11783928Y-13997357D01*
X11798214Y-13968786D01*
X11812500Y-13954500D01*
X11841071Y-13940214D01*
X12069643Y-14211643D02*
X12083928Y-14225929D01*
X12069643Y-14240214D01*
X12055357Y-14225929D01*
X12069643Y-14211643D01*
X12069643Y-14240214D01*
X12255357Y-14068786D02*
X12226786Y-14054500D01*
X12212500Y-14040214D01*
X12198214Y-14011643D01*
X12198214Y-13997357D01*
X12212500Y-13968786D01*
X12226786Y-13954500D01*
X12255357Y-13940214D01*
X12312500Y-13940214D01*
X12341071Y-13954500D01*
X12355357Y-13968786D01*
X12369643Y-13997357D01*
X12369643Y-14011643D01*
X12355357Y-14040214D01*
X12341071Y-14054500D01*
X12312500Y-14068786D01*
X12255357Y-14068786D01*
X12226786Y-14083071D01*
X12212500Y-14097357D01*
X12198214Y-14125929D01*
X12198214Y-14183071D01*
X12212500Y-14211643D01*
X12226786Y-14225929D01*
X12255357Y-14240214D01*
X12312500Y-14240214D01*
X12341071Y-14225929D01*
X12355357Y-14211643D01*
X12369643Y-14183071D01*
X12369643Y-14125929D01*
X12355357Y-14097357D01*
X12341071Y-14083071D01*
X12312500Y-14068786D01*
X12555357Y-13940214D02*
X12583928Y-13940214D01*
X12612500Y-13954500D01*
X12626786Y-13968786D01*
X12641071Y-13997357D01*
X12655357Y-14054500D01*
X12655357Y-14125929D01*
X12641071Y-14183071D01*
X12626786Y-14211643D01*
X12612500Y-14225929D01*
X12583928Y-14240214D01*
X12555357Y-14240214D01*
X12526786Y-14225929D01*
X12512500Y-14211643D01*
X12498214Y-14183071D01*
X12483928Y-14125929D01*
X12483928Y-14054500D01*
X12498214Y-13997357D01*
X12512500Y-13968786D01*
X12526786Y-13954500D01*
X12555357Y-13940214D01*
X12841071Y-13940214D02*
X12869643Y-13940214D01*
X12898214Y-13954500D01*
X12912500Y-13968786D01*
X12926786Y-13997357D01*
X12941071Y-14054500D01*
X12941071Y-14125929D01*
X12926786Y-14183071D01*
X12912500Y-14211643D01*
X12898214Y-14225929D01*
X12869643Y-14240214D01*
X12841071Y-14240214D01*
X12812500Y-14225929D01*
X12798214Y-14211643D01*
X12783928Y-14183071D01*
X12769643Y-14125929D01*
X12769643Y-14054500D01*
X12783928Y-13997357D01*
X12798214Y-13968786D01*
X12812500Y-13954500D01*
X12841071Y-13940214D01*
X13069643Y-14240214D02*
X13069643Y-14040214D01*
X13069643Y-14068786D02*
X13083928Y-14054500D01*
X13112500Y-14040214D01*
X13155357Y-14040214D01*
X13183928Y-14054500D01*
X13198214Y-14083071D01*
X13198214Y-14240214D01*
X13198214Y-14083071D02*
X13212500Y-14054500D01*
X13241071Y-14040214D01*
X13283928Y-14040214D01*
X13312500Y-14054500D01*
X13326786Y-14083071D01*
X13326786Y-14240214D01*
X13469643Y-14240214D02*
X13469643Y-14040214D01*
X13469643Y-14068786D02*
X13483928Y-14054500D01*
X13512500Y-14040214D01*
X13555357Y-14040214D01*
X13583928Y-14054500D01*
X13598214Y-14083071D01*
X13598214Y-14240214D01*
X13598214Y-14083071D02*
X13612500Y-14054500D01*
X13641071Y-14040214D01*
X13683928Y-14040214D01*
X13712500Y-14054500D01*
X13726786Y-14083071D01*
X13726786Y-14240214D01*
X14312500Y-13925929D02*
X14055357Y-14311643D01*
X14698214Y-13940214D02*
X14726786Y-13940214D01*
X14755357Y-13954500D01*
X14769643Y-13968786D01*
X14783928Y-13997357D01*
X14798214Y-14054500D01*
X14798214Y-14125929D01*
X14783928Y-14183071D01*
X14769643Y-14211643D01*
X14755357Y-14225929D01*
X14726786Y-14240214D01*
X14698214Y-14240214D01*
X14669643Y-14225929D01*
X14655357Y-14211643D01*
X14641071Y-14183071D01*
X14626786Y-14125929D01*
X14626786Y-14054500D01*
X14641071Y-13997357D01*
X14655357Y-13968786D01*
X14669643Y-13954500D01*
X14698214Y-13940214D01*
X14926786Y-14211643D02*
X14941071Y-14225929D01*
X14926786Y-14240214D01*
X14912500Y-14225929D01*
X14926786Y-14211643D01*
X14926786Y-14240214D01*
X15126786Y-13940214D02*
X15155357Y-13940214D01*
X15183928Y-13954500D01*
X15198214Y-13968786D01*
X15212500Y-13997357D01*
X15226786Y-14054500D01*
X15226786Y-14125929D01*
X15212500Y-14183071D01*
X15198214Y-14211643D01*
X15183928Y-14225929D01*
X15155357Y-14240214D01*
X15126786Y-14240214D01*
X15098214Y-14225929D01*
X15083928Y-14211643D01*
X15069643Y-14183071D01*
X15055357Y-14125929D01*
X15055357Y-14054500D01*
X15069643Y-13997357D01*
X15083928Y-13968786D01*
X15098214Y-13954500D01*
X15126786Y-13940214D01*
X15326786Y-13940214D02*
X15512500Y-13940214D01*
X15412500Y-14054500D01*
X15455357Y-14054500D01*
X15483928Y-14068786D01*
X15498214Y-14083071D01*
X15512500Y-14111643D01*
X15512500Y-14183071D01*
X15498214Y-14211643D01*
X15483928Y-14225929D01*
X15455357Y-14240214D01*
X15369643Y-14240214D01*
X15341071Y-14225929D01*
X15326786Y-14211643D01*
X15798214Y-14240214D02*
X15626786Y-14240214D01*
X15712500Y-14240214D02*
X15712500Y-13940214D01*
X15683928Y-13983071D01*
X15655357Y-14011643D01*
X15626786Y-14025929D01*
X16069643Y-13940214D02*
X15926786Y-13940214D01*
X15912500Y-14083071D01*
X15926786Y-14068786D01*
X15955357Y-14054500D01*
X16026786Y-14054500D01*
X16055357Y-14068786D01*
X16069643Y-14083071D01*
X16083928Y-14111643D01*
X16083928Y-14183071D01*
X16069643Y-14211643D01*
X16055357Y-14225929D01*
X16026786Y-14240214D01*
X15955357Y-14240214D01*
X15926786Y-14225929D01*
X15912500Y-14211643D01*
X16198214Y-13940214D02*
X16198214Y-13997357D01*
X16312500Y-13940214D02*
X16312500Y-13997357D01*
X16755357Y-14354500D02*
X16741071Y-14340214D01*
X16712500Y-14297357D01*
X16698214Y-14268786D01*
X16683928Y-14225929D01*
X16669643Y-14154500D01*
X16669643Y-14097357D01*
X16683928Y-14025929D01*
X16698214Y-13983071D01*
X16712500Y-13954500D01*
X16741071Y-13911643D01*
X16755357Y-13897357D01*
X16998214Y-14040214D02*
X16998214Y-14240214D01*
X16926786Y-13925929D02*
X16855357Y-14140214D01*
X17041071Y-14140214D01*
X17212500Y-13940214D02*
X17241071Y-13940214D01*
X17269643Y-13954500D01*
X17283928Y-13968786D01*
X17298214Y-13997357D01*
X17312500Y-14054500D01*
X17312500Y-14125929D01*
X17298214Y-14183071D01*
X17283928Y-14211643D01*
X17269643Y-14225929D01*
X17241071Y-14240214D01*
X17212500Y-14240214D01*
X17183928Y-14225929D01*
X17169643Y-14211643D01*
X17155357Y-14183071D01*
X17141071Y-14125929D01*
X17141071Y-14054500D01*
X17155357Y-13997357D01*
X17169643Y-13968786D01*
X17183928Y-13954500D01*
X17212500Y-13940214D01*
X17669643Y-14240214D02*
X17669643Y-13940214D01*
X17798214Y-14240214D02*
X17798214Y-14083071D01*
X17783928Y-14054500D01*
X17755357Y-14040214D01*
X17712500Y-14040214D01*
X17683928Y-14054500D01*
X17669643Y-14068786D01*
X17983928Y-14240214D02*
X17955357Y-14225929D01*
X17941071Y-14211643D01*
X17926786Y-14183071D01*
X17926786Y-14097357D01*
X17941071Y-14068786D01*
X17955357Y-14054500D01*
X17983928Y-14040214D01*
X18026786Y-14040214D01*
X18055357Y-14054500D01*
X18069643Y-14068786D01*
X18083928Y-14097357D01*
X18083928Y-14183071D01*
X18069643Y-14211643D01*
X18055357Y-14225929D01*
X18026786Y-14240214D01*
X17983928Y-14240214D01*
X18255357Y-14240214D02*
X18226786Y-14225929D01*
X18212500Y-14197357D01*
X18212500Y-13940214D01*
X18483928Y-14225929D02*
X18455357Y-14240214D01*
X18398214Y-14240214D01*
X18369643Y-14225929D01*
X18355357Y-14197357D01*
X18355357Y-14083071D01*
X18369643Y-14054500D01*
X18398214Y-14040214D01*
X18455357Y-14040214D01*
X18483928Y-14054500D01*
X18498214Y-14083071D01*
X18498214Y-14111643D01*
X18355357Y-14140214D01*
X18612500Y-14225929D02*
X18641071Y-14240214D01*
X18698214Y-14240214D01*
X18726786Y-14225929D01*
X18741071Y-14197357D01*
X18741071Y-14183071D01*
X18726786Y-14154500D01*
X18698214Y-14140214D01*
X18655357Y-14140214D01*
X18626786Y-14125929D01*
X18612500Y-14097357D01*
X18612500Y-14083071D01*
X18626786Y-14054500D01*
X18655357Y-14040214D01*
X18698214Y-14040214D01*
X18726786Y-14054500D01*
X18841071Y-14354500D02*
X18855357Y-14340214D01*
X18883928Y-14297357D01*
X18898214Y-14268786D01*
X18912500Y-14225929D01*
X18926786Y-14154500D01*
X18926786Y-14097357D01*
X18912500Y-14025929D01*
X18898214Y-13983071D01*
X18883928Y-13954500D01*
X18855357Y-13911643D01*
X18841071Y-13897357D01*
X11482856Y-14535856D02*
X11482856Y-14465144D01*
X11412144Y-14465144D01*
X11412144Y-14535856D01*
X11482856Y-14535856D01*
X11941071Y-14636214D02*
X11769643Y-14636214D01*
X11855357Y-14636214D02*
X11855357Y-14336214D01*
X11826786Y-14379071D01*
X11798214Y-14407643D01*
X11769643Y-14421929D01*
X12069643Y-14607643D02*
X12083928Y-14621929D01*
X12069643Y-14636214D01*
X12055357Y-14621929D01*
X12069643Y-14607643D01*
X12069643Y-14636214D01*
X12269643Y-14336214D02*
X12298214Y-14336214D01*
X12326786Y-14350500D01*
X12341071Y-14364786D01*
X12355357Y-14393357D01*
X12369643Y-14450500D01*
X12369643Y-14521929D01*
X12355357Y-14579071D01*
X12341071Y-14607643D01*
X12326786Y-14621929D01*
X12298214Y-14636214D01*
X12269643Y-14636214D01*
X12241071Y-14621929D01*
X12226786Y-14607643D01*
X12212500Y-14579071D01*
X12198214Y-14521929D01*
X12198214Y-14450500D01*
X12212500Y-14393357D01*
X12226786Y-14364786D01*
X12241071Y-14350500D01*
X12269643Y-14336214D01*
X12555357Y-14336214D02*
X12583928Y-14336214D01*
X12612500Y-14350500D01*
X12626786Y-14364786D01*
X12641071Y-14393357D01*
X12655357Y-14450500D01*
X12655357Y-14521929D01*
X12641071Y-14579071D01*
X12626786Y-14607643D01*
X12612500Y-14621929D01*
X12583928Y-14636214D01*
X12555357Y-14636214D01*
X12526786Y-14621929D01*
X12512500Y-14607643D01*
X12498214Y-14579071D01*
X12483928Y-14521929D01*
X12483928Y-14450500D01*
X12498214Y-14393357D01*
X12512500Y-14364786D01*
X12526786Y-14350500D01*
X12555357Y-14336214D01*
X12841071Y-14336214D02*
X12869643Y-14336214D01*
X12898214Y-14350500D01*
X12912500Y-14364786D01*
X12926786Y-14393357D01*
X12941071Y-14450500D01*
X12941071Y-14521929D01*
X12926786Y-14579071D01*
X12912500Y-14607643D01*
X12898214Y-14621929D01*
X12869643Y-14636214D01*
X12841071Y-14636214D01*
X12812500Y-14621929D01*
X12798214Y-14607643D01*
X12783928Y-14579071D01*
X12769643Y-14521929D01*
X12769643Y-14450500D01*
X12783928Y-14393357D01*
X12798214Y-14364786D01*
X12812500Y-14350500D01*
X12841071Y-14336214D01*
X13069643Y-14636214D02*
X13069643Y-14436214D01*
X13069643Y-14464786D02*
X13083928Y-14450500D01*
X13112500Y-14436214D01*
X13155357Y-14436214D01*
X13183928Y-14450500D01*
X13198214Y-14479071D01*
X13198214Y-14636214D01*
X13198214Y-14479071D02*
X13212500Y-14450500D01*
X13241071Y-14436214D01*
X13283928Y-14436214D01*
X13312500Y-14450500D01*
X13326786Y-14479071D01*
X13326786Y-14636214D01*
X13469643Y-14636214D02*
X13469643Y-14436214D01*
X13469643Y-14464786D02*
X13483928Y-14450500D01*
X13512500Y-14436214D01*
X13555357Y-14436214D01*
X13583928Y-14450500D01*
X13598214Y-14479071D01*
X13598214Y-14636214D01*
X13598214Y-14479071D02*
X13612500Y-14450500D01*
X13641071Y-14436214D01*
X13683928Y-14436214D01*
X13712500Y-14450500D01*
X13726786Y-14479071D01*
X13726786Y-14636214D01*
X14312500Y-14321929D02*
X14055357Y-14707643D01*
X14698214Y-14336214D02*
X14726786Y-14336214D01*
X14755357Y-14350500D01*
X14769643Y-14364786D01*
X14783928Y-14393357D01*
X14798214Y-14450500D01*
X14798214Y-14521929D01*
X14783928Y-14579071D01*
X14769643Y-14607643D01*
X14755357Y-14621929D01*
X14726786Y-14636214D01*
X14698214Y-14636214D01*
X14669643Y-14621929D01*
X14655357Y-14607643D01*
X14641071Y-14579071D01*
X14626786Y-14521929D01*
X14626786Y-14450500D01*
X14641071Y-14393357D01*
X14655357Y-14364786D01*
X14669643Y-14350500D01*
X14698214Y-14336214D01*
X14926786Y-14607643D02*
X14941071Y-14621929D01*
X14926786Y-14636214D01*
X14912500Y-14621929D01*
X14926786Y-14607643D01*
X14926786Y-14636214D01*
X15126786Y-14336214D02*
X15155357Y-14336214D01*
X15183928Y-14350500D01*
X15198214Y-14364786D01*
X15212500Y-14393357D01*
X15226786Y-14450500D01*
X15226786Y-14521929D01*
X15212500Y-14579071D01*
X15198214Y-14607643D01*
X15183928Y-14621929D01*
X15155357Y-14636214D01*
X15126786Y-14636214D01*
X15098214Y-14621929D01*
X15083928Y-14607643D01*
X15069643Y-14579071D01*
X15055357Y-14521929D01*
X15055357Y-14450500D01*
X15069643Y-14393357D01*
X15083928Y-14364786D01*
X15098214Y-14350500D01*
X15126786Y-14336214D01*
X15326786Y-14336214D02*
X15512500Y-14336214D01*
X15412500Y-14450500D01*
X15455357Y-14450500D01*
X15483928Y-14464786D01*
X15498214Y-14479071D01*
X15512500Y-14507643D01*
X15512500Y-14579071D01*
X15498214Y-14607643D01*
X15483928Y-14621929D01*
X15455357Y-14636214D01*
X15369643Y-14636214D01*
X15341071Y-14621929D01*
X15326786Y-14607643D01*
X15655357Y-14636214D02*
X15712500Y-14636214D01*
X15741071Y-14621929D01*
X15755357Y-14607643D01*
X15783928Y-14564786D01*
X15798214Y-14507643D01*
X15798214Y-14393357D01*
X15783928Y-14364786D01*
X15769643Y-14350500D01*
X15741071Y-14336214D01*
X15683928Y-14336214D01*
X15655357Y-14350500D01*
X15641071Y-14364786D01*
X15626786Y-14393357D01*
X15626786Y-14464786D01*
X15641071Y-14493357D01*
X15655357Y-14507643D01*
X15683928Y-14521929D01*
X15741071Y-14521929D01*
X15769643Y-14507643D01*
X15783928Y-14493357D01*
X15798214Y-14464786D01*
X16055357Y-14436214D02*
X16055357Y-14636214D01*
X15983928Y-14321929D02*
X15912500Y-14536214D01*
X16098214Y-14536214D01*
X16198214Y-14336214D02*
X16198214Y-14393357D01*
X16312500Y-14336214D02*
X16312500Y-14393357D01*
X16755357Y-14750500D02*
X16741071Y-14736214D01*
X16712500Y-14693357D01*
X16698214Y-14664786D01*
X16683928Y-14621929D01*
X16669643Y-14550500D01*
X16669643Y-14493357D01*
X16683928Y-14421929D01*
X16698214Y-14379071D01*
X16712500Y-14350500D01*
X16741071Y-14307643D01*
X16755357Y-14293357D01*
X16855357Y-14364786D02*
X16869643Y-14350500D01*
X16898214Y-14336214D01*
X16969643Y-14336214D01*
X16998214Y-14350500D01*
X17012500Y-14364786D01*
X17026786Y-14393357D01*
X17026786Y-14421929D01*
X17012500Y-14464786D01*
X16841071Y-14636214D01*
X17026786Y-14636214D01*
X17212500Y-14336214D02*
X17241071Y-14336214D01*
X17269643Y-14350500D01*
X17283928Y-14364786D01*
X17298214Y-14393357D01*
X17312500Y-14450500D01*
X17312500Y-14521929D01*
X17298214Y-14579071D01*
X17283928Y-14607643D01*
X17269643Y-14621929D01*
X17241071Y-14636214D01*
X17212500Y-14636214D01*
X17183928Y-14621929D01*
X17169643Y-14607643D01*
X17155357Y-14579071D01*
X17141071Y-14521929D01*
X17141071Y-14450500D01*
X17155357Y-14393357D01*
X17169643Y-14364786D01*
X17183928Y-14350500D01*
X17212500Y-14336214D01*
X17669643Y-14636214D02*
X17669643Y-14336214D01*
X17798214Y-14636214D02*
X17798214Y-14479071D01*
X17783928Y-14450500D01*
X17755357Y-14436214D01*
X17712500Y-14436214D01*
X17683928Y-14450500D01*
X17669643Y-14464786D01*
X17983928Y-14636214D02*
X17955357Y-14621929D01*
X17941071Y-14607643D01*
X17926786Y-14579071D01*
X17926786Y-14493357D01*
X17941071Y-14464786D01*
X17955357Y-14450500D01*
X17983928Y-14436214D01*
X18026786Y-14436214D01*
X18055357Y-14450500D01*
X18069643Y-14464786D01*
X18083928Y-14493357D01*
X18083928Y-14579071D01*
X18069643Y-14607643D01*
X18055357Y-14621929D01*
X18026786Y-14636214D01*
X17983928Y-14636214D01*
X18255357Y-14636214D02*
X18226786Y-14621929D01*
X18212500Y-14593357D01*
X18212500Y-14336214D01*
X18483928Y-14621929D02*
X18455357Y-14636214D01*
X18398214Y-14636214D01*
X18369643Y-14621929D01*
X18355357Y-14593357D01*
X18355357Y-14479071D01*
X18369643Y-14450500D01*
X18398214Y-14436214D01*
X18455357Y-14436214D01*
X18483928Y-14450500D01*
X18498214Y-14479071D01*
X18498214Y-14507643D01*
X18355357Y-14536214D01*
X18612500Y-14621929D02*
X18641071Y-14636214D01*
X18698214Y-14636214D01*
X18726786Y-14621929D01*
X18741071Y-14593357D01*
X18741071Y-14579071D01*
X18726786Y-14550500D01*
X18698214Y-14536214D01*
X18655357Y-14536214D01*
X18626786Y-14521929D01*
X18612500Y-14493357D01*
X18612500Y-14479071D01*
X18626786Y-14450500D01*
X18655357Y-14436214D01*
X18698214Y-14436214D01*
X18726786Y-14450500D01*
X18841071Y-14750500D02*
X18855357Y-14736214D01*
X18883928Y-14693357D01*
X18898214Y-14664786D01*
X18912500Y-14621929D01*
X18926786Y-14550500D01*
X18926786Y-14493357D01*
X18912500Y-14421929D01*
X18898214Y-14379071D01*
X18883928Y-14350500D01*
X18855357Y-14307643D01*
X18841071Y-14293357D01*
X11446500Y-14947500D02*
X11497500Y-14896500D01*
X11446500Y-14845500D01*
X11395500Y-14896500D01*
X11446500Y-14947500D01*
X11941071Y-15032214D02*
X11769643Y-15032214D01*
X11855357Y-15032214D02*
X11855357Y-14732214D01*
X11826786Y-14775071D01*
X11798214Y-14803643D01*
X11769643Y-14817929D01*
X12069643Y-15003643D02*
X12083928Y-15017929D01*
X12069643Y-15032214D01*
X12055357Y-15017929D01*
X12069643Y-15003643D01*
X12069643Y-15032214D01*
X12269643Y-14732214D02*
X12298214Y-14732214D01*
X12326786Y-14746500D01*
X12341071Y-14760786D01*
X12355357Y-14789357D01*
X12369643Y-14846500D01*
X12369643Y-14917929D01*
X12355357Y-14975071D01*
X12341071Y-15003643D01*
X12326786Y-15017929D01*
X12298214Y-15032214D01*
X12269643Y-15032214D01*
X12241071Y-15017929D01*
X12226786Y-15003643D01*
X12212500Y-14975071D01*
X12198214Y-14917929D01*
X12198214Y-14846500D01*
X12212500Y-14789357D01*
X12226786Y-14760786D01*
X12241071Y-14746500D01*
X12269643Y-14732214D01*
X12483928Y-14760786D02*
X12498214Y-14746500D01*
X12526786Y-14732214D01*
X12598214Y-14732214D01*
X12626786Y-14746500D01*
X12641071Y-14760786D01*
X12655357Y-14789357D01*
X12655357Y-14817929D01*
X12641071Y-14860786D01*
X12469643Y-15032214D01*
X12655357Y-15032214D01*
X12841071Y-14732214D02*
X12869643Y-14732214D01*
X12898214Y-14746500D01*
X12912500Y-14760786D01*
X12926786Y-14789357D01*
X12941071Y-14846500D01*
X12941071Y-14917929D01*
X12926786Y-14975071D01*
X12912500Y-15003643D01*
X12898214Y-15017929D01*
X12869643Y-15032214D01*
X12841071Y-15032214D01*
X12812500Y-15017929D01*
X12798214Y-15003643D01*
X12783928Y-14975071D01*
X12769643Y-14917929D01*
X12769643Y-14846500D01*
X12783928Y-14789357D01*
X12798214Y-14760786D01*
X12812500Y-14746500D01*
X12841071Y-14732214D01*
X13069643Y-15032214D02*
X13069643Y-14832214D01*
X13069643Y-14860786D02*
X13083928Y-14846500D01*
X13112500Y-14832214D01*
X13155357Y-14832214D01*
X13183928Y-14846500D01*
X13198214Y-14875071D01*
X13198214Y-15032214D01*
X13198214Y-14875071D02*
X13212500Y-14846500D01*
X13241071Y-14832214D01*
X13283928Y-14832214D01*
X13312500Y-14846500D01*
X13326786Y-14875071D01*
X13326786Y-15032214D01*
X13469643Y-15032214D02*
X13469643Y-14832214D01*
X13469643Y-14860786D02*
X13483928Y-14846500D01*
X13512500Y-14832214D01*
X13555357Y-14832214D01*
X13583928Y-14846500D01*
X13598214Y-14875071D01*
X13598214Y-15032214D01*
X13598214Y-14875071D02*
X13612500Y-14846500D01*
X13641071Y-14832214D01*
X13683928Y-14832214D01*
X13712500Y-14846500D01*
X13726786Y-14875071D01*
X13726786Y-15032214D01*
X14312500Y-14717929D02*
X14055357Y-15103643D01*
X14698214Y-14732214D02*
X14726786Y-14732214D01*
X14755357Y-14746500D01*
X14769643Y-14760786D01*
X14783928Y-14789357D01*
X14798214Y-14846500D01*
X14798214Y-14917929D01*
X14783928Y-14975071D01*
X14769643Y-15003643D01*
X14755357Y-15017929D01*
X14726786Y-15032214D01*
X14698214Y-15032214D01*
X14669643Y-15017929D01*
X14655357Y-15003643D01*
X14641071Y-14975071D01*
X14626786Y-14917929D01*
X14626786Y-14846500D01*
X14641071Y-14789357D01*
X14655357Y-14760786D01*
X14669643Y-14746500D01*
X14698214Y-14732214D01*
X14926786Y-15003643D02*
X14941071Y-15017929D01*
X14926786Y-15032214D01*
X14912500Y-15017929D01*
X14926786Y-15003643D01*
X14926786Y-15032214D01*
X15126786Y-14732214D02*
X15155357Y-14732214D01*
X15183928Y-14746500D01*
X15198214Y-14760786D01*
X15212500Y-14789357D01*
X15226786Y-14846500D01*
X15226786Y-14917929D01*
X15212500Y-14975071D01*
X15198214Y-15003643D01*
X15183928Y-15017929D01*
X15155357Y-15032214D01*
X15126786Y-15032214D01*
X15098214Y-15017929D01*
X15083928Y-15003643D01*
X15069643Y-14975071D01*
X15055357Y-14917929D01*
X15055357Y-14846500D01*
X15069643Y-14789357D01*
X15083928Y-14760786D01*
X15098214Y-14746500D01*
X15126786Y-14732214D01*
X15483928Y-14832214D02*
X15483928Y-15032214D01*
X15412500Y-14717929D02*
X15341071Y-14932214D01*
X15526786Y-14932214D01*
X15698214Y-14732214D02*
X15726786Y-14732214D01*
X15755357Y-14746500D01*
X15769643Y-14760786D01*
X15783928Y-14789357D01*
X15798214Y-14846500D01*
X15798214Y-14917929D01*
X15783928Y-14975071D01*
X15769643Y-15003643D01*
X15755357Y-15017929D01*
X15726786Y-15032214D01*
X15698214Y-15032214D01*
X15669643Y-15017929D01*
X15655357Y-15003643D01*
X15641071Y-14975071D01*
X15626786Y-14917929D01*
X15626786Y-14846500D01*
X15641071Y-14789357D01*
X15655357Y-14760786D01*
X15669643Y-14746500D01*
X15698214Y-14732214D01*
X15912500Y-14760786D02*
X15926786Y-14746500D01*
X15955357Y-14732214D01*
X16026786Y-14732214D01*
X16055357Y-14746500D01*
X16069643Y-14760786D01*
X16083928Y-14789357D01*
X16083928Y-14817929D01*
X16069643Y-14860786D01*
X15898214Y-15032214D01*
X16083928Y-15032214D01*
X16198214Y-14732214D02*
X16198214Y-14789357D01*
X16312500Y-14732214D02*
X16312500Y-14789357D01*
X16755357Y-15146500D02*
X16741071Y-15132214D01*
X16712500Y-15089357D01*
X16698214Y-15060786D01*
X16683928Y-15017929D01*
X16669643Y-14946500D01*
X16669643Y-14889357D01*
X16683928Y-14817929D01*
X16698214Y-14775071D01*
X16712500Y-14746500D01*
X16741071Y-14703643D01*
X16755357Y-14689357D01*
X16841071Y-14732214D02*
X17026786Y-14732214D01*
X16926786Y-14846500D01*
X16969643Y-14846500D01*
X16998214Y-14860786D01*
X17012500Y-14875071D01*
X17026786Y-14903643D01*
X17026786Y-14975071D01*
X17012500Y-15003643D01*
X16998214Y-15017929D01*
X16969643Y-15032214D01*
X16883928Y-15032214D01*
X16855357Y-15017929D01*
X16841071Y-15003643D01*
X17212500Y-14732214D02*
X17241071Y-14732214D01*
X17269643Y-14746500D01*
X17283928Y-14760786D01*
X17298214Y-14789357D01*
X17312500Y-14846500D01*
X17312500Y-14917929D01*
X17298214Y-14975071D01*
X17283928Y-15003643D01*
X17269643Y-15017929D01*
X17241071Y-15032214D01*
X17212500Y-15032214D01*
X17183928Y-15017929D01*
X17169643Y-15003643D01*
X17155357Y-14975071D01*
X17141071Y-14917929D01*
X17141071Y-14846500D01*
X17155357Y-14789357D01*
X17169643Y-14760786D01*
X17183928Y-14746500D01*
X17212500Y-14732214D01*
X17669643Y-15032214D02*
X17669643Y-14732214D01*
X17798214Y-15032214D02*
X17798214Y-14875071D01*
X17783928Y-14846500D01*
X17755357Y-14832214D01*
X17712500Y-14832214D01*
X17683928Y-14846500D01*
X17669643Y-14860786D01*
X17983928Y-15032214D02*
X17955357Y-15017929D01*
X17941071Y-15003643D01*
X17926786Y-14975071D01*
X17926786Y-14889357D01*
X17941071Y-14860786D01*
X17955357Y-14846500D01*
X17983928Y-14832214D01*
X18026786Y-14832214D01*
X18055357Y-14846500D01*
X18069643Y-14860786D01*
X18083928Y-14889357D01*
X18083928Y-14975071D01*
X18069643Y-15003643D01*
X18055357Y-15017929D01*
X18026786Y-15032214D01*
X17983928Y-15032214D01*
X18255357Y-15032214D02*
X18226786Y-15017929D01*
X18212500Y-14989357D01*
X18212500Y-14732214D01*
X18483928Y-15017929D02*
X18455357Y-15032214D01*
X18398214Y-15032214D01*
X18369643Y-15017929D01*
X18355357Y-14989357D01*
X18355357Y-14875071D01*
X18369643Y-14846500D01*
X18398214Y-14832214D01*
X18455357Y-14832214D01*
X18483928Y-14846500D01*
X18498214Y-14875071D01*
X18498214Y-14903643D01*
X18355357Y-14932214D01*
X18612500Y-15017929D02*
X18641071Y-15032214D01*
X18698214Y-15032214D01*
X18726786Y-15017929D01*
X18741071Y-14989357D01*
X18741071Y-14975071D01*
X18726786Y-14946500D01*
X18698214Y-14932214D01*
X18655357Y-14932214D01*
X18626786Y-14917929D01*
X18612500Y-14889357D01*
X18612500Y-14875071D01*
X18626786Y-14846500D01*
X18655357Y-14832214D01*
X18698214Y-14832214D01*
X18726786Y-14846500D01*
X18841071Y-15146500D02*
X18855357Y-15132214D01*
X18883928Y-15089357D01*
X18898214Y-15060786D01*
X18912500Y-15017929D01*
X18926786Y-14946500D01*
X18926786Y-14889357D01*
X18912500Y-14817929D01*
X18898214Y-14775071D01*
X18883928Y-14746500D01*
X18855357Y-14703643D01*
X18841071Y-14689357D01*
X11387500Y-15237500D02*
X11497500Y-15347500D01*
X11497500Y-15237500D02*
X11387500Y-15347500D01*
X11497500Y-15292500D02*
G75*
G03*
X11497500Y-15292500I-55000J0D01*
G01*
X11941071Y-15428214D02*
X11769643Y-15428214D01*
X11855357Y-15428214D02*
X11855357Y-15128214D01*
X11826786Y-15171071D01*
X11798214Y-15199643D01*
X11769643Y-15213929D01*
X12069643Y-15399643D02*
X12083928Y-15413929D01*
X12069643Y-15428214D01*
X12055357Y-15413929D01*
X12069643Y-15399643D01*
X12069643Y-15428214D01*
X12369643Y-15428214D02*
X12198214Y-15428214D01*
X12283928Y-15428214D02*
X12283928Y-15128214D01*
X12255357Y-15171071D01*
X12226786Y-15199643D01*
X12198214Y-15213929D01*
X12555357Y-15128214D02*
X12583928Y-15128214D01*
X12612500Y-15142500D01*
X12626786Y-15156786D01*
X12641071Y-15185357D01*
X12655357Y-15242500D01*
X12655357Y-15313929D01*
X12641071Y-15371071D01*
X12626786Y-15399643D01*
X12612500Y-15413929D01*
X12583928Y-15428214D01*
X12555357Y-15428214D01*
X12526786Y-15413929D01*
X12512500Y-15399643D01*
X12498214Y-15371071D01*
X12483928Y-15313929D01*
X12483928Y-15242500D01*
X12498214Y-15185357D01*
X12512500Y-15156786D01*
X12526786Y-15142500D01*
X12555357Y-15128214D01*
X12841071Y-15128214D02*
X12869643Y-15128214D01*
X12898214Y-15142500D01*
X12912500Y-15156786D01*
X12926786Y-15185357D01*
X12941071Y-15242500D01*
X12941071Y-15313929D01*
X12926786Y-15371071D01*
X12912500Y-15399643D01*
X12898214Y-15413929D01*
X12869643Y-15428214D01*
X12841071Y-15428214D01*
X12812500Y-15413929D01*
X12798214Y-15399643D01*
X12783928Y-15371071D01*
X12769643Y-15313929D01*
X12769643Y-15242500D01*
X12783928Y-15185357D01*
X12798214Y-15156786D01*
X12812500Y-15142500D01*
X12841071Y-15128214D01*
X13069643Y-15428214D02*
X13069643Y-15228214D01*
X13069643Y-15256786D02*
X13083928Y-15242500D01*
X13112500Y-15228214D01*
X13155357Y-15228214D01*
X13183928Y-15242500D01*
X13198214Y-15271071D01*
X13198214Y-15428214D01*
X13198214Y-15271071D02*
X13212500Y-15242500D01*
X13241071Y-15228214D01*
X13283928Y-15228214D01*
X13312500Y-15242500D01*
X13326786Y-15271071D01*
X13326786Y-15428214D01*
X13469643Y-15428214D02*
X13469643Y-15228214D01*
X13469643Y-15256786D02*
X13483928Y-15242500D01*
X13512500Y-15228214D01*
X13555357Y-15228214D01*
X13583928Y-15242500D01*
X13598214Y-15271071D01*
X13598214Y-15428214D01*
X13598214Y-15271071D02*
X13612500Y-15242500D01*
X13641071Y-15228214D01*
X13683928Y-15228214D01*
X13712500Y-15242500D01*
X13726786Y-15271071D01*
X13726786Y-15428214D01*
X14312500Y-15113929D02*
X14055357Y-15499643D01*
X14698214Y-15128214D02*
X14726786Y-15128214D01*
X14755357Y-15142500D01*
X14769643Y-15156786D01*
X14783928Y-15185357D01*
X14798214Y-15242500D01*
X14798214Y-15313929D01*
X14783928Y-15371071D01*
X14769643Y-15399643D01*
X14755357Y-15413929D01*
X14726786Y-15428214D01*
X14698214Y-15428214D01*
X14669643Y-15413929D01*
X14655357Y-15399643D01*
X14641071Y-15371071D01*
X14626786Y-15313929D01*
X14626786Y-15242500D01*
X14641071Y-15185357D01*
X14655357Y-15156786D01*
X14669643Y-15142500D01*
X14698214Y-15128214D01*
X14926786Y-15399643D02*
X14941071Y-15413929D01*
X14926786Y-15428214D01*
X14912500Y-15413929D01*
X14926786Y-15399643D01*
X14926786Y-15428214D01*
X15126786Y-15128214D02*
X15155357Y-15128214D01*
X15183928Y-15142500D01*
X15198214Y-15156786D01*
X15212500Y-15185357D01*
X15226786Y-15242500D01*
X15226786Y-15313929D01*
X15212500Y-15371071D01*
X15198214Y-15399643D01*
X15183928Y-15413929D01*
X15155357Y-15428214D01*
X15126786Y-15428214D01*
X15098214Y-15413929D01*
X15083928Y-15399643D01*
X15069643Y-15371071D01*
X15055357Y-15313929D01*
X15055357Y-15242500D01*
X15069643Y-15185357D01*
X15083928Y-15156786D01*
X15098214Y-15142500D01*
X15126786Y-15128214D01*
X15483928Y-15228214D02*
X15483928Y-15428214D01*
X15412500Y-15113929D02*
X15341071Y-15328214D01*
X15526786Y-15328214D01*
X15612500Y-15128214D02*
X15798214Y-15128214D01*
X15698214Y-15242500D01*
X15741071Y-15242500D01*
X15769643Y-15256786D01*
X15783928Y-15271071D01*
X15798214Y-15299643D01*
X15798214Y-15371071D01*
X15783928Y-15399643D01*
X15769643Y-15413929D01*
X15741071Y-15428214D01*
X15655357Y-15428214D01*
X15626786Y-15413929D01*
X15612500Y-15399643D01*
X15898214Y-15128214D02*
X16083928Y-15128214D01*
X15983928Y-15242500D01*
X16026786Y-15242500D01*
X16055357Y-15256786D01*
X16069643Y-15271071D01*
X16083928Y-15299643D01*
X16083928Y-15371071D01*
X16069643Y-15399643D01*
X16055357Y-15413929D01*
X16026786Y-15428214D01*
X15941071Y-15428214D01*
X15912500Y-15413929D01*
X15898214Y-15399643D01*
X16198214Y-15128214D02*
X16198214Y-15185357D01*
X16312500Y-15128214D02*
X16312500Y-15185357D01*
X16755357Y-15542500D02*
X16741071Y-15528214D01*
X16712500Y-15485357D01*
X16698214Y-15456786D01*
X16683928Y-15413929D01*
X16669643Y-15342500D01*
X16669643Y-15285357D01*
X16683928Y-15213929D01*
X16698214Y-15171071D01*
X16712500Y-15142500D01*
X16741071Y-15099643D01*
X16755357Y-15085357D01*
X16855357Y-15156786D02*
X16869643Y-15142500D01*
X16898214Y-15128214D01*
X16969643Y-15128214D01*
X16998214Y-15142500D01*
X17012500Y-15156786D01*
X17026786Y-15185357D01*
X17026786Y-15213929D01*
X17012500Y-15256786D01*
X16841071Y-15428214D01*
X17026786Y-15428214D01*
X17283928Y-15228214D02*
X17283928Y-15428214D01*
X17212500Y-15113929D02*
X17141071Y-15328214D01*
X17326786Y-15328214D01*
X17669643Y-15428214D02*
X17669643Y-15128214D01*
X17798214Y-15428214D02*
X17798214Y-15271071D01*
X17783928Y-15242500D01*
X17755357Y-15228214D01*
X17712500Y-15228214D01*
X17683928Y-15242500D01*
X17669643Y-15256786D01*
X17983928Y-15428214D02*
X17955357Y-15413929D01*
X17941071Y-15399643D01*
X17926786Y-15371071D01*
X17926786Y-15285357D01*
X17941071Y-15256786D01*
X17955357Y-15242500D01*
X17983928Y-15228214D01*
X18026786Y-15228214D01*
X18055357Y-15242500D01*
X18069643Y-15256786D01*
X18083928Y-15285357D01*
X18083928Y-15371071D01*
X18069643Y-15399643D01*
X18055357Y-15413929D01*
X18026786Y-15428214D01*
X17983928Y-15428214D01*
X18255357Y-15428214D02*
X18226786Y-15413929D01*
X18212500Y-15385357D01*
X18212500Y-15128214D01*
X18483928Y-15413929D02*
X18455357Y-15428214D01*
X18398214Y-15428214D01*
X18369643Y-15413929D01*
X18355357Y-15385357D01*
X18355357Y-15271071D01*
X18369643Y-15242500D01*
X18398214Y-15228214D01*
X18455357Y-15228214D01*
X18483928Y-15242500D01*
X18498214Y-15271071D01*
X18498214Y-15299643D01*
X18355357Y-15328214D01*
X18612500Y-15413929D02*
X18641071Y-15428214D01*
X18698214Y-15428214D01*
X18726786Y-15413929D01*
X18741071Y-15385357D01*
X18741071Y-15371071D01*
X18726786Y-15342500D01*
X18698214Y-15328214D01*
X18655357Y-15328214D01*
X18626786Y-15313929D01*
X18612500Y-15285357D01*
X18612500Y-15271071D01*
X18626786Y-15242500D01*
X18655357Y-15228214D01*
X18698214Y-15228214D01*
X18726786Y-15242500D01*
X18841071Y-15542500D02*
X18855357Y-15528214D01*
X18883928Y-15485357D01*
X18898214Y-15456786D01*
X18912500Y-15413929D01*
X18926786Y-15342500D01*
X18926786Y-15285357D01*
X18912500Y-15213929D01*
X18898214Y-15171071D01*
X18883928Y-15142500D01*
X18855357Y-15099643D01*
X18841071Y-15085357D01*
X11337500Y-15608500D02*
X11497500Y-15768500D01*
X11497500Y-15608500D02*
X11337500Y-15768500D01*
X11417500Y-15608500D02*
X11417500Y-15768500D01*
X11337500Y-15688500D02*
X11497500Y-15688500D01*
X11941071Y-15824214D02*
X11769643Y-15824214D01*
X11855357Y-15824214D02*
X11855357Y-15524214D01*
X11826786Y-15567071D01*
X11798214Y-15595643D01*
X11769643Y-15609929D01*
X12069643Y-15795643D02*
X12083928Y-15809929D01*
X12069643Y-15824214D01*
X12055357Y-15809929D01*
X12069643Y-15795643D01*
X12069643Y-15824214D01*
X12341071Y-15524214D02*
X12283928Y-15524214D01*
X12255357Y-15538500D01*
X12241071Y-15552786D01*
X12212500Y-15595643D01*
X12198214Y-15652786D01*
X12198214Y-15767071D01*
X12212500Y-15795643D01*
X12226786Y-15809929D01*
X12255357Y-15824214D01*
X12312500Y-15824214D01*
X12341071Y-15809929D01*
X12355357Y-15795643D01*
X12369643Y-15767071D01*
X12369643Y-15695643D01*
X12355357Y-15667071D01*
X12341071Y-15652786D01*
X12312500Y-15638500D01*
X12255357Y-15638500D01*
X12226786Y-15652786D01*
X12212500Y-15667071D01*
X12198214Y-15695643D01*
X12555357Y-15524214D02*
X12583928Y-15524214D01*
X12612500Y-15538500D01*
X12626786Y-15552786D01*
X12641071Y-15581357D01*
X12655357Y-15638500D01*
X12655357Y-15709929D01*
X12641071Y-15767071D01*
X12626786Y-15795643D01*
X12612500Y-15809929D01*
X12583928Y-15824214D01*
X12555357Y-15824214D01*
X12526786Y-15809929D01*
X12512500Y-15795643D01*
X12498214Y-15767071D01*
X12483928Y-15709929D01*
X12483928Y-15638500D01*
X12498214Y-15581357D01*
X12512500Y-15552786D01*
X12526786Y-15538500D01*
X12555357Y-15524214D01*
X12841071Y-15524214D02*
X12869643Y-15524214D01*
X12898214Y-15538500D01*
X12912500Y-15552786D01*
X12926786Y-15581357D01*
X12941071Y-15638500D01*
X12941071Y-15709929D01*
X12926786Y-15767071D01*
X12912500Y-15795643D01*
X12898214Y-15809929D01*
X12869643Y-15824214D01*
X12841071Y-15824214D01*
X12812500Y-15809929D01*
X12798214Y-15795643D01*
X12783928Y-15767071D01*
X12769643Y-15709929D01*
X12769643Y-15638500D01*
X12783928Y-15581357D01*
X12798214Y-15552786D01*
X12812500Y-15538500D01*
X12841071Y-15524214D01*
X13069643Y-15824214D02*
X13069643Y-15624214D01*
X13069643Y-15652786D02*
X13083928Y-15638500D01*
X13112500Y-15624214D01*
X13155357Y-15624214D01*
X13183928Y-15638500D01*
X13198214Y-15667071D01*
X13198214Y-15824214D01*
X13198214Y-15667071D02*
X13212500Y-15638500D01*
X13241071Y-15624214D01*
X13283928Y-15624214D01*
X13312500Y-15638500D01*
X13326786Y-15667071D01*
X13326786Y-15824214D01*
X13469643Y-15824214D02*
X13469643Y-15624214D01*
X13469643Y-15652786D02*
X13483928Y-15638500D01*
X13512500Y-15624214D01*
X13555357Y-15624214D01*
X13583928Y-15638500D01*
X13598214Y-15667071D01*
X13598214Y-15824214D01*
X13598214Y-15667071D02*
X13612500Y-15638500D01*
X13641071Y-15624214D01*
X13683928Y-15624214D01*
X13712500Y-15638500D01*
X13726786Y-15667071D01*
X13726786Y-15824214D01*
X14312500Y-15509929D02*
X14055357Y-15895643D01*
X14698214Y-15524214D02*
X14726786Y-15524214D01*
X14755357Y-15538500D01*
X14769643Y-15552786D01*
X14783928Y-15581357D01*
X14798214Y-15638500D01*
X14798214Y-15709929D01*
X14783928Y-15767071D01*
X14769643Y-15795643D01*
X14755357Y-15809929D01*
X14726786Y-15824214D01*
X14698214Y-15824214D01*
X14669643Y-15809929D01*
X14655357Y-15795643D01*
X14641071Y-15767071D01*
X14626786Y-15709929D01*
X14626786Y-15638500D01*
X14641071Y-15581357D01*
X14655357Y-15552786D01*
X14669643Y-15538500D01*
X14698214Y-15524214D01*
X14926786Y-15795643D02*
X14941071Y-15809929D01*
X14926786Y-15824214D01*
X14912500Y-15809929D01*
X14926786Y-15795643D01*
X14926786Y-15824214D01*
X15126786Y-15524214D02*
X15155357Y-15524214D01*
X15183928Y-15538500D01*
X15198214Y-15552786D01*
X15212500Y-15581357D01*
X15226786Y-15638500D01*
X15226786Y-15709929D01*
X15212500Y-15767071D01*
X15198214Y-15795643D01*
X15183928Y-15809929D01*
X15155357Y-15824214D01*
X15126786Y-15824214D01*
X15098214Y-15809929D01*
X15083928Y-15795643D01*
X15069643Y-15767071D01*
X15055357Y-15709929D01*
X15055357Y-15638500D01*
X15069643Y-15581357D01*
X15083928Y-15552786D01*
X15098214Y-15538500D01*
X15126786Y-15524214D01*
X15483928Y-15524214D02*
X15426786Y-15524214D01*
X15398214Y-15538500D01*
X15383928Y-15552786D01*
X15355357Y-15595643D01*
X15341071Y-15652786D01*
X15341071Y-15767071D01*
X15355357Y-15795643D01*
X15369643Y-15809929D01*
X15398214Y-15824214D01*
X15455357Y-15824214D01*
X15483928Y-15809929D01*
X15498214Y-15795643D01*
X15512500Y-15767071D01*
X15512500Y-15695643D01*
X15498214Y-15667071D01*
X15483928Y-15652786D01*
X15455357Y-15638500D01*
X15398214Y-15638500D01*
X15369643Y-15652786D01*
X15355357Y-15667071D01*
X15341071Y-15695643D01*
X15612500Y-15524214D02*
X15798214Y-15524214D01*
X15698214Y-15638500D01*
X15741071Y-15638500D01*
X15769643Y-15652786D01*
X15783928Y-15667071D01*
X15798214Y-15695643D01*
X15798214Y-15767071D01*
X15783928Y-15795643D01*
X15769643Y-15809929D01*
X15741071Y-15824214D01*
X15655357Y-15824214D01*
X15626786Y-15809929D01*
X15612500Y-15795643D01*
X15983928Y-15524214D02*
X16012500Y-15524214D01*
X16041071Y-15538500D01*
X16055357Y-15552786D01*
X16069643Y-15581357D01*
X16083928Y-15638500D01*
X16083928Y-15709929D01*
X16069643Y-15767071D01*
X16055357Y-15795643D01*
X16041071Y-15809929D01*
X16012500Y-15824214D01*
X15983928Y-15824214D01*
X15955357Y-15809929D01*
X15941071Y-15795643D01*
X15926786Y-15767071D01*
X15912500Y-15709929D01*
X15912500Y-15638500D01*
X15926786Y-15581357D01*
X15941071Y-15552786D01*
X15955357Y-15538500D01*
X15983928Y-15524214D01*
X16198214Y-15524214D02*
X16198214Y-15581357D01*
X16312500Y-15524214D02*
X16312500Y-15581357D01*
X16755357Y-15938500D02*
X16741071Y-15924214D01*
X16712500Y-15881357D01*
X16698214Y-15852786D01*
X16683928Y-15809929D01*
X16669643Y-15738500D01*
X16669643Y-15681357D01*
X16683928Y-15609929D01*
X16698214Y-15567071D01*
X16712500Y-15538500D01*
X16741071Y-15495643D01*
X16755357Y-15481357D01*
X17026786Y-15824214D02*
X16855357Y-15824214D01*
X16941071Y-15824214D02*
X16941071Y-15524214D01*
X16912500Y-15567071D01*
X16883928Y-15595643D01*
X16855357Y-15609929D01*
X17383928Y-15824214D02*
X17383928Y-15524214D01*
X17512500Y-15824214D02*
X17512500Y-15667071D01*
X17498214Y-15638500D01*
X17469643Y-15624214D01*
X17426786Y-15624214D01*
X17398214Y-15638500D01*
X17383928Y-15652786D01*
X17698214Y-15824214D02*
X17669643Y-15809929D01*
X17655357Y-15795643D01*
X17641071Y-15767071D01*
X17641071Y-15681357D01*
X17655357Y-15652786D01*
X17669643Y-15638500D01*
X17698214Y-15624214D01*
X17741071Y-15624214D01*
X17769643Y-15638500D01*
X17783928Y-15652786D01*
X17798214Y-15681357D01*
X17798214Y-15767071D01*
X17783928Y-15795643D01*
X17769643Y-15809929D01*
X17741071Y-15824214D01*
X17698214Y-15824214D01*
X17969643Y-15824214D02*
X17941071Y-15809929D01*
X17926786Y-15781357D01*
X17926786Y-15524214D01*
X18198214Y-15809929D02*
X18169643Y-15824214D01*
X18112500Y-15824214D01*
X18083928Y-15809929D01*
X18069643Y-15781357D01*
X18069643Y-15667071D01*
X18083928Y-15638500D01*
X18112500Y-15624214D01*
X18169643Y-15624214D01*
X18198214Y-15638500D01*
X18212500Y-15667071D01*
X18212500Y-15695643D01*
X18069643Y-15724214D01*
X18312500Y-15938500D02*
X18326786Y-15924214D01*
X18355357Y-15881357D01*
X18369643Y-15852786D01*
X18383928Y-15809929D01*
X18398214Y-15738500D01*
X18398214Y-15681357D01*
X18383928Y-15609929D01*
X18369643Y-15567071D01*
X18355357Y-15538500D01*
X18326786Y-15495643D01*
X18312500Y-15481357D01*
X11067500Y-15869500D02*
X11497500Y-16299500D01*
X11497500Y-15869500D02*
X11067500Y-16299500D01*
X11434529Y-16236529D02*
X11434529Y-15932471D01*
X11130471Y-15932471D01*
X11130471Y-16236529D01*
X11434529Y-16236529D01*
X11912500Y-16020214D02*
X11912500Y-16220214D01*
X11841071Y-15905929D02*
X11769643Y-16120214D01*
X11955357Y-16120214D01*
X12069643Y-16191643D02*
X12083928Y-16205929D01*
X12069643Y-16220214D01*
X12055357Y-16205929D01*
X12069643Y-16191643D01*
X12069643Y-16220214D01*
X12183928Y-15920214D02*
X12369643Y-15920214D01*
X12269643Y-16034500D01*
X12312500Y-16034500D01*
X12341071Y-16048786D01*
X12355357Y-16063071D01*
X12369643Y-16091643D01*
X12369643Y-16163071D01*
X12355357Y-16191643D01*
X12341071Y-16205929D01*
X12312500Y-16220214D01*
X12226786Y-16220214D01*
X12198214Y-16205929D01*
X12183928Y-16191643D01*
X12555357Y-15920214D02*
X12583928Y-15920214D01*
X12612500Y-15934500D01*
X12626786Y-15948786D01*
X12641071Y-15977357D01*
X12655357Y-16034500D01*
X12655357Y-16105929D01*
X12641071Y-16163071D01*
X12626786Y-16191643D01*
X12612500Y-16205929D01*
X12583928Y-16220214D01*
X12555357Y-16220214D01*
X12526786Y-16205929D01*
X12512500Y-16191643D01*
X12498214Y-16163071D01*
X12483928Y-16105929D01*
X12483928Y-16034500D01*
X12498214Y-15977357D01*
X12512500Y-15948786D01*
X12526786Y-15934500D01*
X12555357Y-15920214D01*
X12841071Y-15920214D02*
X12869643Y-15920214D01*
X12898214Y-15934500D01*
X12912500Y-15948786D01*
X12926786Y-15977357D01*
X12941071Y-16034500D01*
X12941071Y-16105929D01*
X12926786Y-16163071D01*
X12912500Y-16191643D01*
X12898214Y-16205929D01*
X12869643Y-16220214D01*
X12841071Y-16220214D01*
X12812500Y-16205929D01*
X12798214Y-16191643D01*
X12783928Y-16163071D01*
X12769643Y-16105929D01*
X12769643Y-16034500D01*
X12783928Y-15977357D01*
X12798214Y-15948786D01*
X12812500Y-15934500D01*
X12841071Y-15920214D01*
X13069643Y-16220214D02*
X13069643Y-16020214D01*
X13069643Y-16048786D02*
X13083928Y-16034500D01*
X13112500Y-16020214D01*
X13155357Y-16020214D01*
X13183928Y-16034500D01*
X13198214Y-16063071D01*
X13198214Y-16220214D01*
X13198214Y-16063071D02*
X13212500Y-16034500D01*
X13241071Y-16020214D01*
X13283928Y-16020214D01*
X13312500Y-16034500D01*
X13326786Y-16063071D01*
X13326786Y-16220214D01*
X13469643Y-16220214D02*
X13469643Y-16020214D01*
X13469643Y-16048786D02*
X13483928Y-16034500D01*
X13512500Y-16020214D01*
X13555357Y-16020214D01*
X13583928Y-16034500D01*
X13598214Y-16063071D01*
X13598214Y-16220214D01*
X13598214Y-16063071D02*
X13612500Y-16034500D01*
X13641071Y-16020214D01*
X13683928Y-16020214D01*
X13712500Y-16034500D01*
X13726786Y-16063071D01*
X13726786Y-16220214D01*
X14312500Y-15905929D02*
X14055357Y-16291643D01*
X14698214Y-15920214D02*
X14726786Y-15920214D01*
X14755357Y-15934500D01*
X14769643Y-15948786D01*
X14783928Y-15977357D01*
X14798214Y-16034500D01*
X14798214Y-16105929D01*
X14783928Y-16163071D01*
X14769643Y-16191643D01*
X14755357Y-16205929D01*
X14726786Y-16220214D01*
X14698214Y-16220214D01*
X14669643Y-16205929D01*
X14655357Y-16191643D01*
X14641071Y-16163071D01*
X14626786Y-16105929D01*
X14626786Y-16034500D01*
X14641071Y-15977357D01*
X14655357Y-15948786D01*
X14669643Y-15934500D01*
X14698214Y-15920214D01*
X14926786Y-16191643D02*
X14941071Y-16205929D01*
X14926786Y-16220214D01*
X14912500Y-16205929D01*
X14926786Y-16191643D01*
X14926786Y-16220214D01*
X15226786Y-16220214D02*
X15055357Y-16220214D01*
X15141071Y-16220214D02*
X15141071Y-15920214D01*
X15112500Y-15963071D01*
X15083928Y-15991643D01*
X15055357Y-16005929D01*
X15483928Y-15920214D02*
X15426786Y-15920214D01*
X15398214Y-15934500D01*
X15383928Y-15948786D01*
X15355357Y-15991643D01*
X15341071Y-16048786D01*
X15341071Y-16163071D01*
X15355357Y-16191643D01*
X15369643Y-16205929D01*
X15398214Y-16220214D01*
X15455357Y-16220214D01*
X15483928Y-16205929D01*
X15498214Y-16191643D01*
X15512500Y-16163071D01*
X15512500Y-16091643D01*
X15498214Y-16063071D01*
X15483928Y-16048786D01*
X15455357Y-16034500D01*
X15398214Y-16034500D01*
X15369643Y-16048786D01*
X15355357Y-16063071D01*
X15341071Y-16091643D01*
X15655357Y-16220214D02*
X15712500Y-16220214D01*
X15741071Y-16205929D01*
X15755357Y-16191643D01*
X15783928Y-16148786D01*
X15798214Y-16091643D01*
X15798214Y-15977357D01*
X15783928Y-15948786D01*
X15769643Y-15934500D01*
X15741071Y-15920214D01*
X15683928Y-15920214D01*
X15655357Y-15934500D01*
X15641071Y-15948786D01*
X15626786Y-15977357D01*
X15626786Y-16048786D01*
X15641071Y-16077357D01*
X15655357Y-16091643D01*
X15683928Y-16105929D01*
X15741071Y-16105929D01*
X15769643Y-16091643D01*
X15783928Y-16077357D01*
X15798214Y-16048786D01*
X15898214Y-15920214D02*
X16083928Y-15920214D01*
X15983928Y-16034500D01*
X16026786Y-16034500D01*
X16055357Y-16048786D01*
X16069643Y-16063071D01*
X16083928Y-16091643D01*
X16083928Y-16163071D01*
X16069643Y-16191643D01*
X16055357Y-16205929D01*
X16026786Y-16220214D01*
X15941071Y-16220214D01*
X15912500Y-16205929D01*
X15898214Y-16191643D01*
X16198214Y-15920214D02*
X16198214Y-15977357D01*
X16312500Y-15920214D02*
X16312500Y-15977357D01*
X16755357Y-16334500D02*
X16741071Y-16320214D01*
X16712500Y-16277357D01*
X16698214Y-16248786D01*
X16683928Y-16205929D01*
X16669643Y-16134500D01*
X16669643Y-16077357D01*
X16683928Y-16005929D01*
X16698214Y-15963071D01*
X16712500Y-15934500D01*
X16741071Y-15891643D01*
X16755357Y-15877357D01*
X16998214Y-16020214D02*
X16998214Y-16220214D01*
X16926786Y-15905929D02*
X16855357Y-16120214D01*
X17041071Y-16120214D01*
X17383928Y-16220214D02*
X17383928Y-15920214D01*
X17512500Y-16220214D02*
X17512500Y-16063071D01*
X17498214Y-16034500D01*
X17469643Y-16020214D01*
X17426786Y-16020214D01*
X17398214Y-16034500D01*
X17383928Y-16048786D01*
X17698214Y-16220214D02*
X17669643Y-16205929D01*
X17655357Y-16191643D01*
X17641071Y-16163071D01*
X17641071Y-16077357D01*
X17655357Y-16048786D01*
X17669643Y-16034500D01*
X17698214Y-16020214D01*
X17741071Y-16020214D01*
X17769643Y-16034500D01*
X17783928Y-16048786D01*
X17798214Y-16077357D01*
X17798214Y-16163071D01*
X17783928Y-16191643D01*
X17769643Y-16205929D01*
X17741071Y-16220214D01*
X17698214Y-16220214D01*
X17969643Y-16220214D02*
X17941071Y-16205929D01*
X17926786Y-16177357D01*
X17926786Y-15920214D01*
X18198214Y-16205929D02*
X18169643Y-16220214D01*
X18112500Y-16220214D01*
X18083928Y-16205929D01*
X18069643Y-16177357D01*
X18069643Y-16063071D01*
X18083928Y-16034500D01*
X18112500Y-16020214D01*
X18169643Y-16020214D01*
X18198214Y-16034500D01*
X18212500Y-16063071D01*
X18212500Y-16091643D01*
X18069643Y-16120214D01*
X18326786Y-16205929D02*
X18355357Y-16220214D01*
X18412500Y-16220214D01*
X18441071Y-16205929D01*
X18455357Y-16177357D01*
X18455357Y-16163071D01*
X18441071Y-16134500D01*
X18412500Y-16120214D01*
X18369643Y-16120214D01*
X18341071Y-16105929D01*
X18326786Y-16077357D01*
X18326786Y-16063071D01*
X18341071Y-16034500D01*
X18369643Y-16020214D01*
X18412500Y-16020214D01*
X18441071Y-16034500D01*
X18555357Y-16334500D02*
X18569643Y-16320214D01*
X18598214Y-16277357D01*
X18612500Y-16248786D01*
X18626786Y-16205929D01*
X18641071Y-16134500D01*
X18641071Y-16077357D01*
X18626786Y-16005929D01*
X18612500Y-15963071D01*
X18598214Y-15934500D01*
X18569643Y-15891643D01*
X18555357Y-15877357D01*
M02*
