M48
; DRILL file {KiCad (5.1.10)-1} date 09/09/21 16:44:14
; FORMAT={-:-/ absolute / metric / decimal}
; #@! TF.CreationDate,2021-09-09T16:44:14+02:00
; #@! TF.GenerationSoftware,Kicad,Pcbnew,(5.1.10)-1
; #@! TF.FileFunction,Plated,1,4,PTH
FMAT,2
METRIC
T1C0.400
T2C0.750
T3C0.800
T4C1.000
T5C1.020
T6C1.100
T7C1.600
T8C4.300
%
G90
G05
T1
X151.765Y-107.95
T2
X127.508Y-101.6
X128.778Y-101.6
X130.048Y-101.6
X165.1Y-114.3
X166.37Y-114.3
X167.64Y-114.3
T3
X124.46Y-83.82
X124.46Y-91.44
X127.0Y-83.82
X127.0Y-86.36
X127.0Y-88.9
X127.0Y-91.44
X127.0Y-94.615
X130.81Y-83.82
X130.81Y-91.44
X133.985Y-97.155
X133.985Y-104.775
X134.62Y-83.82
X134.62Y-86.36
X134.62Y-88.9
X134.62Y-91.44
X134.62Y-94.615
X139.065Y-91.44
X139.065Y-99.06
X142.24Y-98.425
X142.24Y-106.045
X145.415Y-98.425
X145.415Y-106.045
X148.59Y-98.425
X148.59Y-106.045
X151.765Y-98.425
X151.765Y-106.045
X154.94Y-98.425
X154.94Y-106.045
X158.115Y-98.425
X158.115Y-106.045
X161.29Y-98.425
X161.29Y-106.045
X164.465Y-98.425
X164.465Y-106.045
X165.1Y-83.185
X165.1Y-90.805
X167.64Y-98.425
X167.64Y-106.045
X170.815Y-98.425
X170.815Y-106.045
T4
X132.842Y-75.565
X132.842Y-78.105
X132.969Y-80.645
X142.24Y-91.44
X142.24Y-114.935
X144.78Y-91.44
X144.78Y-114.935
X147.32Y-91.44
X147.32Y-114.935
X149.86Y-91.44
X149.86Y-114.935
X152.4Y-91.44
X152.4Y-114.935
X154.94Y-91.44
X154.94Y-114.935
X157.48Y-91.44
X157.48Y-114.935
X160.02Y-91.44
X160.02Y-114.935
X162.56Y-114.935
T5
X142.24Y-94.615
X142.24Y-109.855
X144.78Y-94.615
X144.78Y-109.855
X147.32Y-94.615
X147.32Y-109.855
X149.86Y-94.615
X149.86Y-109.855
X152.4Y-94.615
X152.4Y-109.855
X154.94Y-94.615
X154.94Y-109.855
X157.48Y-94.615
X157.48Y-109.855
X160.02Y-94.615
X160.02Y-109.855
X162.56Y-94.615
X162.56Y-109.855
X165.1Y-94.615
X165.1Y-109.855
X167.64Y-94.615
X167.64Y-109.855
X170.18Y-94.615
X170.18Y-109.855
X172.72Y-94.615
X172.72Y-109.855
X175.26Y-94.615
X175.26Y-109.855
X177.8Y-94.615
X177.8Y-109.855
T6
X118.618Y-86.36
X118.618Y-88.9
X118.618Y-91.44
X118.618Y-93.98
X118.618Y-96.52
X118.618Y-99.06
X118.618Y-101.6
X118.618Y-104.14
X118.618Y-106.68
X118.618Y-109.22
X135.255Y-75.565
X135.255Y-78.105
X135.255Y-80.645
X144.78Y-120.015
X147.32Y-120.015
X149.86Y-120.015
X152.4Y-120.015
X154.94Y-120.015
X157.48Y-120.015
X160.02Y-120.015
X161.45Y-85.65
X162.56Y-120.015
X165.1Y-120.015
X167.64Y-120.015
T7
X140.45Y-85.65
T8
X127.0Y-78.0
X127.0Y-116.0
X173.0Y-78.0
X173.0Y-116.0
T0
M30
