G04 #@! TF.GenerationSoftware,KiCad,Pcbnew,(5.1.10)-1*
G04 #@! TF.CreationDate,2021-09-02T16:04:07+02:00*
G04 #@! TF.ProjectId,Motorrumsstyrning,4d6f746f-7272-4756-9d73-737479726e69,rev?*
G04 #@! TF.SameCoordinates,Original*
G04 #@! TF.FileFunction,Soldermask,Bot*
G04 #@! TF.FilePolarity,Negative*
%FSLAX46Y46*%
G04 Gerber Fmt 4.6, Leading zero omitted, Abs format (unit mm)*
G04 Created by KiCad (PCBNEW (5.1.10)-1) date 2021-09-02 16:04:07*
%MOMM*%
%LPD*%
G01*
G04 APERTURE LIST*
%ADD10O,2.102000X2.007000*%
%ADD11C,1.752000*%
%ADD12C,2.302000*%
%ADD13C,1.632000*%
%ADD14O,1.802000X1.802000*%
%ADD15C,1.802000*%
%ADD16C,0.100000*%
%ADD17O,1.702000X1.702000*%
%ADD18C,1.702000*%
%ADD19O,1.152000X1.602000*%
%ADD20C,7.102000*%
G04 APERTURE END LIST*
D10*
X135255000Y-75565000D03*
X135255000Y-78105000D03*
G36*
G01*
X136255000Y-81648500D02*
X134255000Y-81648500D01*
G75*
G02*
X134204000Y-81597500I0J51000D01*
G01*
X134204000Y-79692500D01*
G75*
G02*
X134255000Y-79641500I51000J0D01*
G01*
X136255000Y-79641500D01*
G75*
G02*
X136306000Y-79692500I0J-51000D01*
G01*
X136306000Y-81597500D01*
G75*
G02*
X136255000Y-81648500I-51000J0D01*
G01*
G37*
D11*
X161450000Y-85650000D03*
D12*
X140450000Y-85650000D03*
G36*
G01*
X136501894Y-72261500D02*
X137818106Y-72261500D01*
G75*
G02*
X138086000Y-72529394I0J-267894D01*
G01*
X138086000Y-73520606D01*
G75*
G02*
X137818106Y-73788500I-267894J0D01*
G01*
X136501894Y-73788500D01*
G75*
G02*
X136234000Y-73520606I0J267894D01*
G01*
X136234000Y-72529394D01*
G75*
G02*
X136501894Y-72261500I267894J0D01*
G01*
G37*
G36*
G01*
X136501894Y-69286500D02*
X137818106Y-69286500D01*
G75*
G02*
X138086000Y-69554394I0J-267894D01*
G01*
X138086000Y-70545606D01*
G75*
G02*
X137818106Y-70813500I-267894J0D01*
G01*
X136501894Y-70813500D01*
G75*
G02*
X136234000Y-70545606I0J267894D01*
G01*
X136234000Y-69554394D01*
G75*
G02*
X136501894Y-69286500I267894J0D01*
G01*
G37*
G36*
G01*
X133856500Y-73683106D02*
X133856500Y-72366894D01*
G75*
G02*
X134124394Y-72099000I267894J0D01*
G01*
X135115606Y-72099000D01*
G75*
G02*
X135383500Y-72366894I0J-267894D01*
G01*
X135383500Y-73683106D01*
G75*
G02*
X135115606Y-73951000I-267894J0D01*
G01*
X134124394Y-73951000D01*
G75*
G02*
X133856500Y-73683106I0J267894D01*
G01*
G37*
G36*
G01*
X130881500Y-73683106D02*
X130881500Y-72366894D01*
G75*
G02*
X131149394Y-72099000I267894J0D01*
G01*
X132140606Y-72099000D01*
G75*
G02*
X132408500Y-72366894I0J-267894D01*
G01*
X132408500Y-73683106D01*
G75*
G02*
X132140606Y-73951000I-267894J0D01*
G01*
X131149394Y-73951000D01*
G75*
G02*
X130881500Y-73683106I0J267894D01*
G01*
G37*
D13*
X142240000Y-94615000D03*
X144780000Y-94615000D03*
X147320000Y-94615000D03*
X149860000Y-94615000D03*
X152400000Y-94615000D03*
X154940000Y-94615000D03*
X157480000Y-94615000D03*
X160020000Y-94615000D03*
X162560000Y-94615000D03*
X165100000Y-94615000D03*
X167640000Y-94615000D03*
X170180000Y-94615000D03*
X172720000Y-94615000D03*
X175260000Y-94615000D03*
G36*
G01*
X177035000Y-93799000D02*
X178565000Y-93799000D01*
G75*
G02*
X178616000Y-93850000I0J-51000D01*
G01*
X178616000Y-95380000D01*
G75*
G02*
X178565000Y-95431000I-51000J0D01*
G01*
X177035000Y-95431000D01*
G75*
G02*
X176984000Y-95380000I0J51000D01*
G01*
X176984000Y-93850000D01*
G75*
G02*
X177035000Y-93799000I51000J0D01*
G01*
G37*
X142240000Y-109855000D03*
X144780000Y-109855000D03*
X147320000Y-109855000D03*
X149860000Y-109855000D03*
X152400000Y-109855000D03*
X154940000Y-109855000D03*
X157480000Y-109855000D03*
X160020000Y-109855000D03*
X162560000Y-109855000D03*
X165100000Y-109855000D03*
X167640000Y-109855000D03*
X170180000Y-109855000D03*
X172720000Y-109855000D03*
X175260000Y-109855000D03*
G36*
G01*
X177035000Y-109039000D02*
X178565000Y-109039000D01*
G75*
G02*
X178616000Y-109090000I0J-51000D01*
G01*
X178616000Y-110620000D01*
G75*
G02*
X178565000Y-110671000I-51000J0D01*
G01*
X177035000Y-110671000D01*
G75*
G02*
X176984000Y-110620000I0J51000D01*
G01*
X176984000Y-109090000D01*
G75*
G02*
X177035000Y-109039000I51000J0D01*
G01*
G37*
D14*
X162560000Y-114935000D03*
X160020000Y-114935000D03*
X157480000Y-114935000D03*
X154940000Y-114935000D03*
X152400000Y-114935000D03*
X149860000Y-114935000D03*
X147320000Y-114935000D03*
X144780000Y-114935000D03*
G36*
G01*
X143090000Y-115836000D02*
X141390000Y-115836000D01*
G75*
G02*
X141339000Y-115785000I0J51000D01*
G01*
X141339000Y-114085000D01*
G75*
G02*
X141390000Y-114034000I51000J0D01*
G01*
X143090000Y-114034000D01*
G75*
G02*
X143141000Y-114085000I0J-51000D01*
G01*
X143141000Y-115785000D01*
G75*
G02*
X143090000Y-115836000I-51000J0D01*
G01*
G37*
D15*
X132842000Y-78105000D03*
X132969000Y-80645000D03*
X132842000Y-75565000D03*
D16*
G36*
X163360020Y-112381950D02*
G01*
X163357118Y-112391517D01*
X163352405Y-112400334D01*
X163346062Y-112408062D01*
X163338334Y-112414405D01*
X163329517Y-112419118D01*
X163319950Y-112422020D01*
X163310000Y-112423000D01*
X161810000Y-112423000D01*
X161800050Y-112422020D01*
X161790483Y-112419118D01*
X161781666Y-112414405D01*
X161773938Y-112408062D01*
X161767595Y-112400334D01*
X161762882Y-112391517D01*
X161759980Y-112381950D01*
X161759000Y-112372000D01*
X161759000Y-111872000D01*
X161759602Y-111865888D01*
X161759602Y-111847466D01*
X161759848Y-111842467D01*
X161764658Y-111793636D01*
X161765392Y-111788686D01*
X161774964Y-111740561D01*
X161776180Y-111735705D01*
X161790424Y-111688750D01*
X161792110Y-111684039D01*
X161810887Y-111638706D01*
X161813027Y-111634180D01*
X161836158Y-111590907D01*
X161838731Y-111586616D01*
X161865991Y-111545817D01*
X161868973Y-111541796D01*
X161900101Y-111503867D01*
X161903462Y-111500159D01*
X161938159Y-111465462D01*
X161941867Y-111462101D01*
X161979796Y-111430973D01*
X161983817Y-111427991D01*
X162024616Y-111400731D01*
X162028907Y-111398158D01*
X162072180Y-111375027D01*
X162076706Y-111372887D01*
X162122039Y-111354110D01*
X162126750Y-111352424D01*
X162173705Y-111338180D01*
X162178561Y-111336964D01*
X162226686Y-111327392D01*
X162231636Y-111326658D01*
X162280467Y-111321848D01*
X162285466Y-111321602D01*
X162303888Y-111321602D01*
X162310000Y-111321000D01*
X162810000Y-111321000D01*
X162816112Y-111321602D01*
X162834534Y-111321602D01*
X162839533Y-111321848D01*
X162888364Y-111326658D01*
X162893314Y-111327392D01*
X162941439Y-111336964D01*
X162946295Y-111338180D01*
X162993250Y-111352424D01*
X162997961Y-111354110D01*
X163043294Y-111372887D01*
X163047820Y-111375027D01*
X163091093Y-111398158D01*
X163095384Y-111400731D01*
X163136183Y-111427991D01*
X163140204Y-111430973D01*
X163178133Y-111462101D01*
X163181841Y-111465462D01*
X163216538Y-111500159D01*
X163219899Y-111503867D01*
X163251027Y-111541796D01*
X163254009Y-111545817D01*
X163281269Y-111586616D01*
X163283842Y-111590907D01*
X163306973Y-111634180D01*
X163309113Y-111638706D01*
X163327890Y-111684039D01*
X163329576Y-111688750D01*
X163343820Y-111735705D01*
X163345036Y-111740561D01*
X163354608Y-111788686D01*
X163355342Y-111793636D01*
X163360152Y-111842467D01*
X163360398Y-111847466D01*
X163360398Y-111865888D01*
X163361000Y-111872000D01*
X163361000Y-112372000D01*
X163360020Y-112381950D01*
G37*
G36*
X163360398Y-113178112D02*
G01*
X163360398Y-113196534D01*
X163360152Y-113201533D01*
X163355342Y-113250364D01*
X163354608Y-113255314D01*
X163345036Y-113303439D01*
X163343820Y-113308295D01*
X163329576Y-113355250D01*
X163327890Y-113359961D01*
X163309113Y-113405294D01*
X163306973Y-113409820D01*
X163283842Y-113453093D01*
X163281269Y-113457384D01*
X163254009Y-113498183D01*
X163251027Y-113502204D01*
X163219899Y-113540133D01*
X163216538Y-113543841D01*
X163181841Y-113578538D01*
X163178133Y-113581899D01*
X163140204Y-113613027D01*
X163136183Y-113616009D01*
X163095384Y-113643269D01*
X163091093Y-113645842D01*
X163047820Y-113668973D01*
X163043294Y-113671113D01*
X162997961Y-113689890D01*
X162993250Y-113691576D01*
X162946295Y-113705820D01*
X162941439Y-113707036D01*
X162893314Y-113716608D01*
X162888364Y-113717342D01*
X162839533Y-113722152D01*
X162834534Y-113722398D01*
X162816112Y-113722398D01*
X162810000Y-113723000D01*
X162310000Y-113723000D01*
X162303888Y-113722398D01*
X162285466Y-113722398D01*
X162280467Y-113722152D01*
X162231636Y-113717342D01*
X162226686Y-113716608D01*
X162178561Y-113707036D01*
X162173705Y-113705820D01*
X162126750Y-113691576D01*
X162122039Y-113689890D01*
X162076706Y-113671113D01*
X162072180Y-113668973D01*
X162028907Y-113645842D01*
X162024616Y-113643269D01*
X161983817Y-113616009D01*
X161979796Y-113613027D01*
X161941867Y-113581899D01*
X161938159Y-113578538D01*
X161903462Y-113543841D01*
X161900101Y-113540133D01*
X161868973Y-113502204D01*
X161865991Y-113498183D01*
X161838731Y-113457384D01*
X161836158Y-113453093D01*
X161813027Y-113409820D01*
X161810887Y-113405294D01*
X161792110Y-113359961D01*
X161790424Y-113355250D01*
X161776180Y-113308295D01*
X161774964Y-113303439D01*
X161765392Y-113255314D01*
X161764658Y-113250364D01*
X161759848Y-113201533D01*
X161759602Y-113196534D01*
X161759602Y-113178112D01*
X161759000Y-113172000D01*
X161759000Y-112672000D01*
X161759980Y-112662050D01*
X161762882Y-112652483D01*
X161767595Y-112643666D01*
X161773938Y-112635938D01*
X161781666Y-112629595D01*
X161790483Y-112624882D01*
X161800050Y-112621980D01*
X161810000Y-112621000D01*
X163310000Y-112621000D01*
X163319950Y-112621980D01*
X163329517Y-112624882D01*
X163338334Y-112629595D01*
X163346062Y-112635938D01*
X163352405Y-112643666D01*
X163357118Y-112652483D01*
X163360020Y-112662050D01*
X163361000Y-112672000D01*
X163361000Y-113172000D01*
X163360398Y-113178112D01*
G37*
G36*
X160820020Y-112381950D02*
G01*
X160817118Y-112391517D01*
X160812405Y-112400334D01*
X160806062Y-112408062D01*
X160798334Y-112414405D01*
X160789517Y-112419118D01*
X160779950Y-112422020D01*
X160770000Y-112423000D01*
X159270000Y-112423000D01*
X159260050Y-112422020D01*
X159250483Y-112419118D01*
X159241666Y-112414405D01*
X159233938Y-112408062D01*
X159227595Y-112400334D01*
X159222882Y-112391517D01*
X159219980Y-112381950D01*
X159219000Y-112372000D01*
X159219000Y-111872000D01*
X159219602Y-111865888D01*
X159219602Y-111847466D01*
X159219848Y-111842467D01*
X159224658Y-111793636D01*
X159225392Y-111788686D01*
X159234964Y-111740561D01*
X159236180Y-111735705D01*
X159250424Y-111688750D01*
X159252110Y-111684039D01*
X159270887Y-111638706D01*
X159273027Y-111634180D01*
X159296158Y-111590907D01*
X159298731Y-111586616D01*
X159325991Y-111545817D01*
X159328973Y-111541796D01*
X159360101Y-111503867D01*
X159363462Y-111500159D01*
X159398159Y-111465462D01*
X159401867Y-111462101D01*
X159439796Y-111430973D01*
X159443817Y-111427991D01*
X159484616Y-111400731D01*
X159488907Y-111398158D01*
X159532180Y-111375027D01*
X159536706Y-111372887D01*
X159582039Y-111354110D01*
X159586750Y-111352424D01*
X159633705Y-111338180D01*
X159638561Y-111336964D01*
X159686686Y-111327392D01*
X159691636Y-111326658D01*
X159740467Y-111321848D01*
X159745466Y-111321602D01*
X159763888Y-111321602D01*
X159770000Y-111321000D01*
X160270000Y-111321000D01*
X160276112Y-111321602D01*
X160294534Y-111321602D01*
X160299533Y-111321848D01*
X160348364Y-111326658D01*
X160353314Y-111327392D01*
X160401439Y-111336964D01*
X160406295Y-111338180D01*
X160453250Y-111352424D01*
X160457961Y-111354110D01*
X160503294Y-111372887D01*
X160507820Y-111375027D01*
X160551093Y-111398158D01*
X160555384Y-111400731D01*
X160596183Y-111427991D01*
X160600204Y-111430973D01*
X160638133Y-111462101D01*
X160641841Y-111465462D01*
X160676538Y-111500159D01*
X160679899Y-111503867D01*
X160711027Y-111541796D01*
X160714009Y-111545817D01*
X160741269Y-111586616D01*
X160743842Y-111590907D01*
X160766973Y-111634180D01*
X160769113Y-111638706D01*
X160787890Y-111684039D01*
X160789576Y-111688750D01*
X160803820Y-111735705D01*
X160805036Y-111740561D01*
X160814608Y-111788686D01*
X160815342Y-111793636D01*
X160820152Y-111842467D01*
X160820398Y-111847466D01*
X160820398Y-111865888D01*
X160821000Y-111872000D01*
X160821000Y-112372000D01*
X160820020Y-112381950D01*
G37*
G36*
X160820398Y-113178112D02*
G01*
X160820398Y-113196534D01*
X160820152Y-113201533D01*
X160815342Y-113250364D01*
X160814608Y-113255314D01*
X160805036Y-113303439D01*
X160803820Y-113308295D01*
X160789576Y-113355250D01*
X160787890Y-113359961D01*
X160769113Y-113405294D01*
X160766973Y-113409820D01*
X160743842Y-113453093D01*
X160741269Y-113457384D01*
X160714009Y-113498183D01*
X160711027Y-113502204D01*
X160679899Y-113540133D01*
X160676538Y-113543841D01*
X160641841Y-113578538D01*
X160638133Y-113581899D01*
X160600204Y-113613027D01*
X160596183Y-113616009D01*
X160555384Y-113643269D01*
X160551093Y-113645842D01*
X160507820Y-113668973D01*
X160503294Y-113671113D01*
X160457961Y-113689890D01*
X160453250Y-113691576D01*
X160406295Y-113705820D01*
X160401439Y-113707036D01*
X160353314Y-113716608D01*
X160348364Y-113717342D01*
X160299533Y-113722152D01*
X160294534Y-113722398D01*
X160276112Y-113722398D01*
X160270000Y-113723000D01*
X159770000Y-113723000D01*
X159763888Y-113722398D01*
X159745466Y-113722398D01*
X159740467Y-113722152D01*
X159691636Y-113717342D01*
X159686686Y-113716608D01*
X159638561Y-113707036D01*
X159633705Y-113705820D01*
X159586750Y-113691576D01*
X159582039Y-113689890D01*
X159536706Y-113671113D01*
X159532180Y-113668973D01*
X159488907Y-113645842D01*
X159484616Y-113643269D01*
X159443817Y-113616009D01*
X159439796Y-113613027D01*
X159401867Y-113581899D01*
X159398159Y-113578538D01*
X159363462Y-113543841D01*
X159360101Y-113540133D01*
X159328973Y-113502204D01*
X159325991Y-113498183D01*
X159298731Y-113457384D01*
X159296158Y-113453093D01*
X159273027Y-113409820D01*
X159270887Y-113405294D01*
X159252110Y-113359961D01*
X159250424Y-113355250D01*
X159236180Y-113308295D01*
X159234964Y-113303439D01*
X159225392Y-113255314D01*
X159224658Y-113250364D01*
X159219848Y-113201533D01*
X159219602Y-113196534D01*
X159219602Y-113178112D01*
X159219000Y-113172000D01*
X159219000Y-112672000D01*
X159219980Y-112662050D01*
X159222882Y-112652483D01*
X159227595Y-112643666D01*
X159233938Y-112635938D01*
X159241666Y-112629595D01*
X159250483Y-112624882D01*
X159260050Y-112621980D01*
X159270000Y-112621000D01*
X160770000Y-112621000D01*
X160779950Y-112621980D01*
X160789517Y-112624882D01*
X160798334Y-112629595D01*
X160806062Y-112635938D01*
X160812405Y-112643666D01*
X160817118Y-112652483D01*
X160820020Y-112662050D01*
X160821000Y-112672000D01*
X160821000Y-113172000D01*
X160820398Y-113178112D01*
G37*
G36*
X158280020Y-112381950D02*
G01*
X158277118Y-112391517D01*
X158272405Y-112400334D01*
X158266062Y-112408062D01*
X158258334Y-112414405D01*
X158249517Y-112419118D01*
X158239950Y-112422020D01*
X158230000Y-112423000D01*
X156730000Y-112423000D01*
X156720050Y-112422020D01*
X156710483Y-112419118D01*
X156701666Y-112414405D01*
X156693938Y-112408062D01*
X156687595Y-112400334D01*
X156682882Y-112391517D01*
X156679980Y-112381950D01*
X156679000Y-112372000D01*
X156679000Y-111872000D01*
X156679602Y-111865888D01*
X156679602Y-111847466D01*
X156679848Y-111842467D01*
X156684658Y-111793636D01*
X156685392Y-111788686D01*
X156694964Y-111740561D01*
X156696180Y-111735705D01*
X156710424Y-111688750D01*
X156712110Y-111684039D01*
X156730887Y-111638706D01*
X156733027Y-111634180D01*
X156756158Y-111590907D01*
X156758731Y-111586616D01*
X156785991Y-111545817D01*
X156788973Y-111541796D01*
X156820101Y-111503867D01*
X156823462Y-111500159D01*
X156858159Y-111465462D01*
X156861867Y-111462101D01*
X156899796Y-111430973D01*
X156903817Y-111427991D01*
X156944616Y-111400731D01*
X156948907Y-111398158D01*
X156992180Y-111375027D01*
X156996706Y-111372887D01*
X157042039Y-111354110D01*
X157046750Y-111352424D01*
X157093705Y-111338180D01*
X157098561Y-111336964D01*
X157146686Y-111327392D01*
X157151636Y-111326658D01*
X157200467Y-111321848D01*
X157205466Y-111321602D01*
X157223888Y-111321602D01*
X157230000Y-111321000D01*
X157730000Y-111321000D01*
X157736112Y-111321602D01*
X157754534Y-111321602D01*
X157759533Y-111321848D01*
X157808364Y-111326658D01*
X157813314Y-111327392D01*
X157861439Y-111336964D01*
X157866295Y-111338180D01*
X157913250Y-111352424D01*
X157917961Y-111354110D01*
X157963294Y-111372887D01*
X157967820Y-111375027D01*
X158011093Y-111398158D01*
X158015384Y-111400731D01*
X158056183Y-111427991D01*
X158060204Y-111430973D01*
X158098133Y-111462101D01*
X158101841Y-111465462D01*
X158136538Y-111500159D01*
X158139899Y-111503867D01*
X158171027Y-111541796D01*
X158174009Y-111545817D01*
X158201269Y-111586616D01*
X158203842Y-111590907D01*
X158226973Y-111634180D01*
X158229113Y-111638706D01*
X158247890Y-111684039D01*
X158249576Y-111688750D01*
X158263820Y-111735705D01*
X158265036Y-111740561D01*
X158274608Y-111788686D01*
X158275342Y-111793636D01*
X158280152Y-111842467D01*
X158280398Y-111847466D01*
X158280398Y-111865888D01*
X158281000Y-111872000D01*
X158281000Y-112372000D01*
X158280020Y-112381950D01*
G37*
G36*
X158280398Y-113178112D02*
G01*
X158280398Y-113196534D01*
X158280152Y-113201533D01*
X158275342Y-113250364D01*
X158274608Y-113255314D01*
X158265036Y-113303439D01*
X158263820Y-113308295D01*
X158249576Y-113355250D01*
X158247890Y-113359961D01*
X158229113Y-113405294D01*
X158226973Y-113409820D01*
X158203842Y-113453093D01*
X158201269Y-113457384D01*
X158174009Y-113498183D01*
X158171027Y-113502204D01*
X158139899Y-113540133D01*
X158136538Y-113543841D01*
X158101841Y-113578538D01*
X158098133Y-113581899D01*
X158060204Y-113613027D01*
X158056183Y-113616009D01*
X158015384Y-113643269D01*
X158011093Y-113645842D01*
X157967820Y-113668973D01*
X157963294Y-113671113D01*
X157917961Y-113689890D01*
X157913250Y-113691576D01*
X157866295Y-113705820D01*
X157861439Y-113707036D01*
X157813314Y-113716608D01*
X157808364Y-113717342D01*
X157759533Y-113722152D01*
X157754534Y-113722398D01*
X157736112Y-113722398D01*
X157730000Y-113723000D01*
X157230000Y-113723000D01*
X157223888Y-113722398D01*
X157205466Y-113722398D01*
X157200467Y-113722152D01*
X157151636Y-113717342D01*
X157146686Y-113716608D01*
X157098561Y-113707036D01*
X157093705Y-113705820D01*
X157046750Y-113691576D01*
X157042039Y-113689890D01*
X156996706Y-113671113D01*
X156992180Y-113668973D01*
X156948907Y-113645842D01*
X156944616Y-113643269D01*
X156903817Y-113616009D01*
X156899796Y-113613027D01*
X156861867Y-113581899D01*
X156858159Y-113578538D01*
X156823462Y-113543841D01*
X156820101Y-113540133D01*
X156788973Y-113502204D01*
X156785991Y-113498183D01*
X156758731Y-113457384D01*
X156756158Y-113453093D01*
X156733027Y-113409820D01*
X156730887Y-113405294D01*
X156712110Y-113359961D01*
X156710424Y-113355250D01*
X156696180Y-113308295D01*
X156694964Y-113303439D01*
X156685392Y-113255314D01*
X156684658Y-113250364D01*
X156679848Y-113201533D01*
X156679602Y-113196534D01*
X156679602Y-113178112D01*
X156679000Y-113172000D01*
X156679000Y-112672000D01*
X156679980Y-112662050D01*
X156682882Y-112652483D01*
X156687595Y-112643666D01*
X156693938Y-112635938D01*
X156701666Y-112629595D01*
X156710483Y-112624882D01*
X156720050Y-112621980D01*
X156730000Y-112621000D01*
X158230000Y-112621000D01*
X158239950Y-112621980D01*
X158249517Y-112624882D01*
X158258334Y-112629595D01*
X158266062Y-112635938D01*
X158272405Y-112643666D01*
X158277118Y-112652483D01*
X158280020Y-112662050D01*
X158281000Y-112672000D01*
X158281000Y-113172000D01*
X158280398Y-113178112D01*
G37*
G36*
X155740020Y-112381950D02*
G01*
X155737118Y-112391517D01*
X155732405Y-112400334D01*
X155726062Y-112408062D01*
X155718334Y-112414405D01*
X155709517Y-112419118D01*
X155699950Y-112422020D01*
X155690000Y-112423000D01*
X154190000Y-112423000D01*
X154180050Y-112422020D01*
X154170483Y-112419118D01*
X154161666Y-112414405D01*
X154153938Y-112408062D01*
X154147595Y-112400334D01*
X154142882Y-112391517D01*
X154139980Y-112381950D01*
X154139000Y-112372000D01*
X154139000Y-111872000D01*
X154139602Y-111865888D01*
X154139602Y-111847466D01*
X154139848Y-111842467D01*
X154144658Y-111793636D01*
X154145392Y-111788686D01*
X154154964Y-111740561D01*
X154156180Y-111735705D01*
X154170424Y-111688750D01*
X154172110Y-111684039D01*
X154190887Y-111638706D01*
X154193027Y-111634180D01*
X154216158Y-111590907D01*
X154218731Y-111586616D01*
X154245991Y-111545817D01*
X154248973Y-111541796D01*
X154280101Y-111503867D01*
X154283462Y-111500159D01*
X154318159Y-111465462D01*
X154321867Y-111462101D01*
X154359796Y-111430973D01*
X154363817Y-111427991D01*
X154404616Y-111400731D01*
X154408907Y-111398158D01*
X154452180Y-111375027D01*
X154456706Y-111372887D01*
X154502039Y-111354110D01*
X154506750Y-111352424D01*
X154553705Y-111338180D01*
X154558561Y-111336964D01*
X154606686Y-111327392D01*
X154611636Y-111326658D01*
X154660467Y-111321848D01*
X154665466Y-111321602D01*
X154683888Y-111321602D01*
X154690000Y-111321000D01*
X155190000Y-111321000D01*
X155196112Y-111321602D01*
X155214534Y-111321602D01*
X155219533Y-111321848D01*
X155268364Y-111326658D01*
X155273314Y-111327392D01*
X155321439Y-111336964D01*
X155326295Y-111338180D01*
X155373250Y-111352424D01*
X155377961Y-111354110D01*
X155423294Y-111372887D01*
X155427820Y-111375027D01*
X155471093Y-111398158D01*
X155475384Y-111400731D01*
X155516183Y-111427991D01*
X155520204Y-111430973D01*
X155558133Y-111462101D01*
X155561841Y-111465462D01*
X155596538Y-111500159D01*
X155599899Y-111503867D01*
X155631027Y-111541796D01*
X155634009Y-111545817D01*
X155661269Y-111586616D01*
X155663842Y-111590907D01*
X155686973Y-111634180D01*
X155689113Y-111638706D01*
X155707890Y-111684039D01*
X155709576Y-111688750D01*
X155723820Y-111735705D01*
X155725036Y-111740561D01*
X155734608Y-111788686D01*
X155735342Y-111793636D01*
X155740152Y-111842467D01*
X155740398Y-111847466D01*
X155740398Y-111865888D01*
X155741000Y-111872000D01*
X155741000Y-112372000D01*
X155740020Y-112381950D01*
G37*
G36*
X155740398Y-113178112D02*
G01*
X155740398Y-113196534D01*
X155740152Y-113201533D01*
X155735342Y-113250364D01*
X155734608Y-113255314D01*
X155725036Y-113303439D01*
X155723820Y-113308295D01*
X155709576Y-113355250D01*
X155707890Y-113359961D01*
X155689113Y-113405294D01*
X155686973Y-113409820D01*
X155663842Y-113453093D01*
X155661269Y-113457384D01*
X155634009Y-113498183D01*
X155631027Y-113502204D01*
X155599899Y-113540133D01*
X155596538Y-113543841D01*
X155561841Y-113578538D01*
X155558133Y-113581899D01*
X155520204Y-113613027D01*
X155516183Y-113616009D01*
X155475384Y-113643269D01*
X155471093Y-113645842D01*
X155427820Y-113668973D01*
X155423294Y-113671113D01*
X155377961Y-113689890D01*
X155373250Y-113691576D01*
X155326295Y-113705820D01*
X155321439Y-113707036D01*
X155273314Y-113716608D01*
X155268364Y-113717342D01*
X155219533Y-113722152D01*
X155214534Y-113722398D01*
X155196112Y-113722398D01*
X155190000Y-113723000D01*
X154690000Y-113723000D01*
X154683888Y-113722398D01*
X154665466Y-113722398D01*
X154660467Y-113722152D01*
X154611636Y-113717342D01*
X154606686Y-113716608D01*
X154558561Y-113707036D01*
X154553705Y-113705820D01*
X154506750Y-113691576D01*
X154502039Y-113689890D01*
X154456706Y-113671113D01*
X154452180Y-113668973D01*
X154408907Y-113645842D01*
X154404616Y-113643269D01*
X154363817Y-113616009D01*
X154359796Y-113613027D01*
X154321867Y-113581899D01*
X154318159Y-113578538D01*
X154283462Y-113543841D01*
X154280101Y-113540133D01*
X154248973Y-113502204D01*
X154245991Y-113498183D01*
X154218731Y-113457384D01*
X154216158Y-113453093D01*
X154193027Y-113409820D01*
X154190887Y-113405294D01*
X154172110Y-113359961D01*
X154170424Y-113355250D01*
X154156180Y-113308295D01*
X154154964Y-113303439D01*
X154145392Y-113255314D01*
X154144658Y-113250364D01*
X154139848Y-113201533D01*
X154139602Y-113196534D01*
X154139602Y-113178112D01*
X154139000Y-113172000D01*
X154139000Y-112672000D01*
X154139980Y-112662050D01*
X154142882Y-112652483D01*
X154147595Y-112643666D01*
X154153938Y-112635938D01*
X154161666Y-112629595D01*
X154170483Y-112624882D01*
X154180050Y-112621980D01*
X154190000Y-112621000D01*
X155690000Y-112621000D01*
X155699950Y-112621980D01*
X155709517Y-112624882D01*
X155718334Y-112629595D01*
X155726062Y-112635938D01*
X155732405Y-112643666D01*
X155737118Y-112652483D01*
X155740020Y-112662050D01*
X155741000Y-112672000D01*
X155741000Y-113172000D01*
X155740398Y-113178112D01*
G37*
G36*
X153200020Y-112381950D02*
G01*
X153197118Y-112391517D01*
X153192405Y-112400334D01*
X153186062Y-112408062D01*
X153178334Y-112414405D01*
X153169517Y-112419118D01*
X153159950Y-112422020D01*
X153150000Y-112423000D01*
X151650000Y-112423000D01*
X151640050Y-112422020D01*
X151630483Y-112419118D01*
X151621666Y-112414405D01*
X151613938Y-112408062D01*
X151607595Y-112400334D01*
X151602882Y-112391517D01*
X151599980Y-112381950D01*
X151599000Y-112372000D01*
X151599000Y-111872000D01*
X151599602Y-111865888D01*
X151599602Y-111847466D01*
X151599848Y-111842467D01*
X151604658Y-111793636D01*
X151605392Y-111788686D01*
X151614964Y-111740561D01*
X151616180Y-111735705D01*
X151630424Y-111688750D01*
X151632110Y-111684039D01*
X151650887Y-111638706D01*
X151653027Y-111634180D01*
X151676158Y-111590907D01*
X151678731Y-111586616D01*
X151705991Y-111545817D01*
X151708973Y-111541796D01*
X151740101Y-111503867D01*
X151743462Y-111500159D01*
X151778159Y-111465462D01*
X151781867Y-111462101D01*
X151819796Y-111430973D01*
X151823817Y-111427991D01*
X151864616Y-111400731D01*
X151868907Y-111398158D01*
X151912180Y-111375027D01*
X151916706Y-111372887D01*
X151962039Y-111354110D01*
X151966750Y-111352424D01*
X152013705Y-111338180D01*
X152018561Y-111336964D01*
X152066686Y-111327392D01*
X152071636Y-111326658D01*
X152120467Y-111321848D01*
X152125466Y-111321602D01*
X152143888Y-111321602D01*
X152150000Y-111321000D01*
X152650000Y-111321000D01*
X152656112Y-111321602D01*
X152674534Y-111321602D01*
X152679533Y-111321848D01*
X152728364Y-111326658D01*
X152733314Y-111327392D01*
X152781439Y-111336964D01*
X152786295Y-111338180D01*
X152833250Y-111352424D01*
X152837961Y-111354110D01*
X152883294Y-111372887D01*
X152887820Y-111375027D01*
X152931093Y-111398158D01*
X152935384Y-111400731D01*
X152976183Y-111427991D01*
X152980204Y-111430973D01*
X153018133Y-111462101D01*
X153021841Y-111465462D01*
X153056538Y-111500159D01*
X153059899Y-111503867D01*
X153091027Y-111541796D01*
X153094009Y-111545817D01*
X153121269Y-111586616D01*
X153123842Y-111590907D01*
X153146973Y-111634180D01*
X153149113Y-111638706D01*
X153167890Y-111684039D01*
X153169576Y-111688750D01*
X153183820Y-111735705D01*
X153185036Y-111740561D01*
X153194608Y-111788686D01*
X153195342Y-111793636D01*
X153200152Y-111842467D01*
X153200398Y-111847466D01*
X153200398Y-111865888D01*
X153201000Y-111872000D01*
X153201000Y-112372000D01*
X153200020Y-112381950D01*
G37*
G36*
X153200398Y-113178112D02*
G01*
X153200398Y-113196534D01*
X153200152Y-113201533D01*
X153195342Y-113250364D01*
X153194608Y-113255314D01*
X153185036Y-113303439D01*
X153183820Y-113308295D01*
X153169576Y-113355250D01*
X153167890Y-113359961D01*
X153149113Y-113405294D01*
X153146973Y-113409820D01*
X153123842Y-113453093D01*
X153121269Y-113457384D01*
X153094009Y-113498183D01*
X153091027Y-113502204D01*
X153059899Y-113540133D01*
X153056538Y-113543841D01*
X153021841Y-113578538D01*
X153018133Y-113581899D01*
X152980204Y-113613027D01*
X152976183Y-113616009D01*
X152935384Y-113643269D01*
X152931093Y-113645842D01*
X152887820Y-113668973D01*
X152883294Y-113671113D01*
X152837961Y-113689890D01*
X152833250Y-113691576D01*
X152786295Y-113705820D01*
X152781439Y-113707036D01*
X152733314Y-113716608D01*
X152728364Y-113717342D01*
X152679533Y-113722152D01*
X152674534Y-113722398D01*
X152656112Y-113722398D01*
X152650000Y-113723000D01*
X152150000Y-113723000D01*
X152143888Y-113722398D01*
X152125466Y-113722398D01*
X152120467Y-113722152D01*
X152071636Y-113717342D01*
X152066686Y-113716608D01*
X152018561Y-113707036D01*
X152013705Y-113705820D01*
X151966750Y-113691576D01*
X151962039Y-113689890D01*
X151916706Y-113671113D01*
X151912180Y-113668973D01*
X151868907Y-113645842D01*
X151864616Y-113643269D01*
X151823817Y-113616009D01*
X151819796Y-113613027D01*
X151781867Y-113581899D01*
X151778159Y-113578538D01*
X151743462Y-113543841D01*
X151740101Y-113540133D01*
X151708973Y-113502204D01*
X151705991Y-113498183D01*
X151678731Y-113457384D01*
X151676158Y-113453093D01*
X151653027Y-113409820D01*
X151650887Y-113405294D01*
X151632110Y-113359961D01*
X151630424Y-113355250D01*
X151616180Y-113308295D01*
X151614964Y-113303439D01*
X151605392Y-113255314D01*
X151604658Y-113250364D01*
X151599848Y-113201533D01*
X151599602Y-113196534D01*
X151599602Y-113178112D01*
X151599000Y-113172000D01*
X151599000Y-112672000D01*
X151599980Y-112662050D01*
X151602882Y-112652483D01*
X151607595Y-112643666D01*
X151613938Y-112635938D01*
X151621666Y-112629595D01*
X151630483Y-112624882D01*
X151640050Y-112621980D01*
X151650000Y-112621000D01*
X153150000Y-112621000D01*
X153159950Y-112621980D01*
X153169517Y-112624882D01*
X153178334Y-112629595D01*
X153186062Y-112635938D01*
X153192405Y-112643666D01*
X153197118Y-112652483D01*
X153200020Y-112662050D01*
X153201000Y-112672000D01*
X153201000Y-113172000D01*
X153200398Y-113178112D01*
G37*
G36*
X150660020Y-112381950D02*
G01*
X150657118Y-112391517D01*
X150652405Y-112400334D01*
X150646062Y-112408062D01*
X150638334Y-112414405D01*
X150629517Y-112419118D01*
X150619950Y-112422020D01*
X150610000Y-112423000D01*
X149110000Y-112423000D01*
X149100050Y-112422020D01*
X149090483Y-112419118D01*
X149081666Y-112414405D01*
X149073938Y-112408062D01*
X149067595Y-112400334D01*
X149062882Y-112391517D01*
X149059980Y-112381950D01*
X149059000Y-112372000D01*
X149059000Y-111872000D01*
X149059602Y-111865888D01*
X149059602Y-111847466D01*
X149059848Y-111842467D01*
X149064658Y-111793636D01*
X149065392Y-111788686D01*
X149074964Y-111740561D01*
X149076180Y-111735705D01*
X149090424Y-111688750D01*
X149092110Y-111684039D01*
X149110887Y-111638706D01*
X149113027Y-111634180D01*
X149136158Y-111590907D01*
X149138731Y-111586616D01*
X149165991Y-111545817D01*
X149168973Y-111541796D01*
X149200101Y-111503867D01*
X149203462Y-111500159D01*
X149238159Y-111465462D01*
X149241867Y-111462101D01*
X149279796Y-111430973D01*
X149283817Y-111427991D01*
X149324616Y-111400731D01*
X149328907Y-111398158D01*
X149372180Y-111375027D01*
X149376706Y-111372887D01*
X149422039Y-111354110D01*
X149426750Y-111352424D01*
X149473705Y-111338180D01*
X149478561Y-111336964D01*
X149526686Y-111327392D01*
X149531636Y-111326658D01*
X149580467Y-111321848D01*
X149585466Y-111321602D01*
X149603888Y-111321602D01*
X149610000Y-111321000D01*
X150110000Y-111321000D01*
X150116112Y-111321602D01*
X150134534Y-111321602D01*
X150139533Y-111321848D01*
X150188364Y-111326658D01*
X150193314Y-111327392D01*
X150241439Y-111336964D01*
X150246295Y-111338180D01*
X150293250Y-111352424D01*
X150297961Y-111354110D01*
X150343294Y-111372887D01*
X150347820Y-111375027D01*
X150391093Y-111398158D01*
X150395384Y-111400731D01*
X150436183Y-111427991D01*
X150440204Y-111430973D01*
X150478133Y-111462101D01*
X150481841Y-111465462D01*
X150516538Y-111500159D01*
X150519899Y-111503867D01*
X150551027Y-111541796D01*
X150554009Y-111545817D01*
X150581269Y-111586616D01*
X150583842Y-111590907D01*
X150606973Y-111634180D01*
X150609113Y-111638706D01*
X150627890Y-111684039D01*
X150629576Y-111688750D01*
X150643820Y-111735705D01*
X150645036Y-111740561D01*
X150654608Y-111788686D01*
X150655342Y-111793636D01*
X150660152Y-111842467D01*
X150660398Y-111847466D01*
X150660398Y-111865888D01*
X150661000Y-111872000D01*
X150661000Y-112372000D01*
X150660020Y-112381950D01*
G37*
G36*
X150660398Y-113178112D02*
G01*
X150660398Y-113196534D01*
X150660152Y-113201533D01*
X150655342Y-113250364D01*
X150654608Y-113255314D01*
X150645036Y-113303439D01*
X150643820Y-113308295D01*
X150629576Y-113355250D01*
X150627890Y-113359961D01*
X150609113Y-113405294D01*
X150606973Y-113409820D01*
X150583842Y-113453093D01*
X150581269Y-113457384D01*
X150554009Y-113498183D01*
X150551027Y-113502204D01*
X150519899Y-113540133D01*
X150516538Y-113543841D01*
X150481841Y-113578538D01*
X150478133Y-113581899D01*
X150440204Y-113613027D01*
X150436183Y-113616009D01*
X150395384Y-113643269D01*
X150391093Y-113645842D01*
X150347820Y-113668973D01*
X150343294Y-113671113D01*
X150297961Y-113689890D01*
X150293250Y-113691576D01*
X150246295Y-113705820D01*
X150241439Y-113707036D01*
X150193314Y-113716608D01*
X150188364Y-113717342D01*
X150139533Y-113722152D01*
X150134534Y-113722398D01*
X150116112Y-113722398D01*
X150110000Y-113723000D01*
X149610000Y-113723000D01*
X149603888Y-113722398D01*
X149585466Y-113722398D01*
X149580467Y-113722152D01*
X149531636Y-113717342D01*
X149526686Y-113716608D01*
X149478561Y-113707036D01*
X149473705Y-113705820D01*
X149426750Y-113691576D01*
X149422039Y-113689890D01*
X149376706Y-113671113D01*
X149372180Y-113668973D01*
X149328907Y-113645842D01*
X149324616Y-113643269D01*
X149283817Y-113616009D01*
X149279796Y-113613027D01*
X149241867Y-113581899D01*
X149238159Y-113578538D01*
X149203462Y-113543841D01*
X149200101Y-113540133D01*
X149168973Y-113502204D01*
X149165991Y-113498183D01*
X149138731Y-113457384D01*
X149136158Y-113453093D01*
X149113027Y-113409820D01*
X149110887Y-113405294D01*
X149092110Y-113359961D01*
X149090424Y-113355250D01*
X149076180Y-113308295D01*
X149074964Y-113303439D01*
X149065392Y-113255314D01*
X149064658Y-113250364D01*
X149059848Y-113201533D01*
X149059602Y-113196534D01*
X149059602Y-113178112D01*
X149059000Y-113172000D01*
X149059000Y-112672000D01*
X149059980Y-112662050D01*
X149062882Y-112652483D01*
X149067595Y-112643666D01*
X149073938Y-112635938D01*
X149081666Y-112629595D01*
X149090483Y-112624882D01*
X149100050Y-112621980D01*
X149110000Y-112621000D01*
X150610000Y-112621000D01*
X150619950Y-112621980D01*
X150629517Y-112624882D01*
X150638334Y-112629595D01*
X150646062Y-112635938D01*
X150652405Y-112643666D01*
X150657118Y-112652483D01*
X150660020Y-112662050D01*
X150661000Y-112672000D01*
X150661000Y-113172000D01*
X150660398Y-113178112D01*
G37*
D17*
X133985000Y-97155000D03*
D18*
X133985000Y-104775000D03*
D17*
X164465000Y-98425000D03*
D18*
X164465000Y-106045000D03*
D17*
X145415000Y-98425000D03*
D18*
X145415000Y-106045000D03*
D17*
X142240000Y-98425000D03*
D18*
X142240000Y-106045000D03*
D15*
X154940000Y-91440000D03*
X152400000Y-91440000D03*
X144780000Y-91440000D03*
X142240000Y-91440000D03*
X160020000Y-91440000D03*
X157480000Y-91440000D03*
X149860000Y-91440000D03*
X147320000Y-91440000D03*
D17*
X165100000Y-83185000D03*
D18*
X165100000Y-90805000D03*
D17*
X158115000Y-98425000D03*
D18*
X158115000Y-106045000D03*
X139065000Y-99060000D03*
D17*
X139065000Y-91440000D03*
X170815000Y-98425000D03*
D18*
X170815000Y-106045000D03*
D17*
X127000000Y-94615000D03*
D18*
X134620000Y-94615000D03*
D17*
X161290000Y-98425000D03*
D18*
X161290000Y-106045000D03*
D17*
X124460000Y-83820000D03*
D18*
X124460000Y-91440000D03*
D17*
X154940000Y-106045000D03*
D18*
X154940000Y-98425000D03*
D17*
X151765000Y-98425000D03*
D18*
X151765000Y-106045000D03*
D17*
X167640000Y-98425000D03*
D18*
X167640000Y-106045000D03*
D17*
X130810000Y-91440000D03*
D18*
X130810000Y-83820000D03*
D17*
X148590000Y-106045000D03*
D18*
X148590000Y-98425000D03*
G36*
G01*
X143629000Y-121115000D02*
X143629000Y-118915000D01*
G75*
G02*
X143680000Y-118864000I51000J0D01*
G01*
X145880000Y-118864000D01*
G75*
G02*
X145931000Y-118915000I0J-51000D01*
G01*
X145931000Y-121115000D01*
G75*
G02*
X145880000Y-121166000I-51000J0D01*
G01*
X143680000Y-121166000D01*
G75*
G02*
X143629000Y-121115000I0J51000D01*
G01*
G37*
D12*
X147320000Y-120015000D03*
X149860000Y-120015000D03*
X152400000Y-120015000D03*
X154940000Y-120015000D03*
X157480000Y-120015000D03*
X160020000Y-120015000D03*
X162560000Y-120015000D03*
X165100000Y-120015000D03*
X167640000Y-120015000D03*
G36*
G01*
X117518000Y-85209000D02*
X119718000Y-85209000D01*
G75*
G02*
X119769000Y-85260000I0J-51000D01*
G01*
X119769000Y-87460000D01*
G75*
G02*
X119718000Y-87511000I-51000J0D01*
G01*
X117518000Y-87511000D01*
G75*
G02*
X117467000Y-87460000I0J51000D01*
G01*
X117467000Y-85260000D01*
G75*
G02*
X117518000Y-85209000I51000J0D01*
G01*
G37*
X118618000Y-88900000D03*
X118618000Y-91440000D03*
X118618000Y-93980000D03*
X118618000Y-96520000D03*
X118618000Y-99060000D03*
X118618000Y-101600000D03*
X118618000Y-104140000D03*
X118618000Y-106680000D03*
X118618000Y-109220000D03*
D17*
X127000000Y-91440000D03*
X134620000Y-83820000D03*
X127000000Y-88900000D03*
X134620000Y-86360000D03*
X127000000Y-86360000D03*
X134620000Y-88900000D03*
X127000000Y-83820000D03*
G36*
G01*
X135471000Y-90640000D02*
X135471000Y-92240000D01*
G75*
G02*
X135420000Y-92291000I-51000J0D01*
G01*
X133820000Y-92291000D01*
G75*
G02*
X133769000Y-92240000I0J51000D01*
G01*
X133769000Y-90640000D01*
G75*
G02*
X133820000Y-90589000I51000J0D01*
G01*
X135420000Y-90589000D01*
G75*
G02*
X135471000Y-90640000I0J-51000D01*
G01*
G37*
G36*
G01*
X126932000Y-102350000D02*
X126932000Y-100850000D01*
G75*
G02*
X126983000Y-100799000I51000J0D01*
G01*
X128033000Y-100799000D01*
G75*
G02*
X128084000Y-100850000I0J-51000D01*
G01*
X128084000Y-102350000D01*
G75*
G02*
X128033000Y-102401000I-51000J0D01*
G01*
X126983000Y-102401000D01*
G75*
G02*
X126932000Y-102350000I0J51000D01*
G01*
G37*
D19*
X130048000Y-101600000D03*
X128778000Y-101600000D03*
G36*
G01*
X164524000Y-115050000D02*
X164524000Y-113550000D01*
G75*
G02*
X164575000Y-113499000I51000J0D01*
G01*
X165625000Y-113499000D01*
G75*
G02*
X165676000Y-113550000I0J-51000D01*
G01*
X165676000Y-115050000D01*
G75*
G02*
X165625000Y-115101000I-51000J0D01*
G01*
X164575000Y-115101000D01*
G75*
G02*
X164524000Y-115050000I0J51000D01*
G01*
G37*
X167640000Y-114300000D03*
X166370000Y-114300000D03*
D20*
X173000000Y-116000000D03*
X173000000Y-78000000D03*
X127000000Y-116000000D03*
X127000000Y-78000000D03*
D16*
G36*
X145932990Y-119860304D02*
G01*
X145935372Y-119884491D01*
X145942372Y-119907566D01*
X145953737Y-119928830D01*
X145969032Y-119947467D01*
X145987669Y-119962762D01*
X146008933Y-119974127D01*
X146032008Y-119981127D01*
X146055999Y-119983490D01*
X146079990Y-119981127D01*
X146103065Y-119974127D01*
X146124329Y-119962762D01*
X146142966Y-119947467D01*
X146158261Y-119928830D01*
X146169626Y-119907566D01*
X146174900Y-119890181D01*
X146176360Y-119888814D01*
X146178274Y-119889395D01*
X146178776Y-119891152D01*
X146176542Y-119902381D01*
X146176542Y-120127619D01*
X146178776Y-120138848D01*
X146178133Y-120140742D01*
X146176171Y-120141132D01*
X146174900Y-120139819D01*
X146169626Y-120122434D01*
X146158261Y-120101170D01*
X146142966Y-120082533D01*
X146124329Y-120067238D01*
X146103065Y-120055873D01*
X146079990Y-120048873D01*
X146055999Y-120046510D01*
X146032008Y-120048873D01*
X146008933Y-120055873D01*
X145987669Y-120067238D01*
X145969032Y-120082533D01*
X145953737Y-120101170D01*
X145942372Y-120122434D01*
X145935372Y-120145509D01*
X145932990Y-120169696D01*
X145931825Y-120171322D01*
X145929835Y-120171126D01*
X145929000Y-120169500D01*
X145929000Y-119860500D01*
X145930000Y-119858768D01*
X145932000Y-119858768D01*
X145932990Y-119860304D01*
G37*
G36*
X165677990Y-113668465D02*
G01*
X165680372Y-113692652D01*
X165687372Y-113715727D01*
X165698737Y-113736991D01*
X165714032Y-113755628D01*
X165732669Y-113770923D01*
X165753933Y-113782288D01*
X165777008Y-113789288D01*
X165800999Y-113791651D01*
X165824990Y-113789288D01*
X165848065Y-113782288D01*
X165869329Y-113770923D01*
X165888005Y-113755596D01*
X165889339Y-113754124D01*
X165891243Y-113753512D01*
X165892725Y-113754855D01*
X165892585Y-113756410D01*
X165839702Y-113855344D01*
X165807038Y-113963024D01*
X165796000Y-114075094D01*
X165796000Y-114524906D01*
X165807038Y-114636977D01*
X165839702Y-114744657D01*
X165892746Y-114843892D01*
X165894836Y-114846438D01*
X165895162Y-114848412D01*
X165893616Y-114849680D01*
X165891876Y-114849121D01*
X165879023Y-114836268D01*
X165858976Y-114822873D01*
X165836702Y-114813647D01*
X165813051Y-114808943D01*
X165788945Y-114808943D01*
X165765295Y-114813648D01*
X165743021Y-114822874D01*
X165722974Y-114836269D01*
X165705927Y-114853316D01*
X165692532Y-114873363D01*
X165683323Y-114895594D01*
X165677978Y-114931633D01*
X165676735Y-114933200D01*
X165674757Y-114932907D01*
X165674000Y-114931340D01*
X165674000Y-113668661D01*
X165675000Y-113666929D01*
X165677000Y-113666929D01*
X165677990Y-113668465D01*
G37*
G36*
X167113621Y-113846240D02*
G01*
X167113591Y-113848068D01*
X167109702Y-113855344D01*
X167077038Y-113963024D01*
X167066000Y-114075094D01*
X167066000Y-114524906D01*
X167077038Y-114636977D01*
X167109702Y-114744657D01*
X167113591Y-114751933D01*
X167113525Y-114753932D01*
X167111762Y-114754875D01*
X167110164Y-114753987D01*
X167100071Y-114738882D01*
X167083024Y-114721835D01*
X167062976Y-114708440D01*
X167040702Y-114699214D01*
X167017052Y-114694510D01*
X166992946Y-114694510D01*
X166969296Y-114699215D01*
X166947022Y-114708441D01*
X166926975Y-114721836D01*
X166909928Y-114738883D01*
X166899836Y-114753987D01*
X166898042Y-114754872D01*
X166896379Y-114753761D01*
X166896409Y-114751933D01*
X166900298Y-114744657D01*
X166932962Y-114636977D01*
X166944000Y-114524905D01*
X166944000Y-114075094D01*
X166932962Y-113963023D01*
X166900298Y-113855343D01*
X166896411Y-113848072D01*
X166896477Y-113846073D01*
X166898240Y-113845130D01*
X166899838Y-113846018D01*
X166909929Y-113861119D01*
X166926976Y-113878166D01*
X166947023Y-113891561D01*
X166969297Y-113900787D01*
X166992947Y-113905491D01*
X167017054Y-113905491D01*
X167040704Y-113900786D01*
X167062978Y-113891560D01*
X167083025Y-113878165D01*
X167100072Y-113861118D01*
X167110164Y-113846014D01*
X167111958Y-113845129D01*
X167113621Y-113846240D01*
G37*
G36*
X151625333Y-112414097D02*
G01*
X151631252Y-112417261D01*
X151640445Y-112420050D01*
X151650094Y-112421000D01*
X153149906Y-112421000D01*
X153159555Y-112420050D01*
X153168748Y-112417261D01*
X153174671Y-112414095D01*
X153176670Y-112414161D01*
X153177613Y-112415924D01*
X153176883Y-112417405D01*
X153175751Y-112418334D01*
X153175593Y-112418451D01*
X153162904Y-112426929D01*
X153145857Y-112443976D01*
X153132462Y-112464024D01*
X153123236Y-112486298D01*
X153118532Y-112509948D01*
X153118532Y-112534054D01*
X153123237Y-112557704D01*
X153132463Y-112579978D01*
X153145858Y-112600025D01*
X153162905Y-112617072D01*
X153175593Y-112625550D01*
X153175751Y-112625667D01*
X153176879Y-112626593D01*
X153177583Y-112628465D01*
X153176314Y-112630011D01*
X153174667Y-112629903D01*
X153168748Y-112626739D01*
X153159555Y-112623950D01*
X153149906Y-112623000D01*
X151650094Y-112623000D01*
X151640445Y-112623950D01*
X151631252Y-112626739D01*
X151625329Y-112629905D01*
X151623330Y-112629839D01*
X151622387Y-112628076D01*
X151623117Y-112626595D01*
X151624249Y-112625666D01*
X151624407Y-112625549D01*
X151637096Y-112617071D01*
X151654143Y-112600024D01*
X151667538Y-112579976D01*
X151676764Y-112557702D01*
X151681468Y-112534052D01*
X151681468Y-112509946D01*
X151676763Y-112486296D01*
X151667537Y-112464022D01*
X151654142Y-112443975D01*
X151637095Y-112426928D01*
X151624407Y-112418450D01*
X151624249Y-112418333D01*
X151623121Y-112417407D01*
X151622417Y-112415535D01*
X151623686Y-112413989D01*
X151625333Y-112414097D01*
G37*
G36*
X161785333Y-112414097D02*
G01*
X161791252Y-112417261D01*
X161800445Y-112420050D01*
X161810094Y-112421000D01*
X163309906Y-112421000D01*
X163319555Y-112420050D01*
X163328748Y-112417261D01*
X163334671Y-112414095D01*
X163336670Y-112414161D01*
X163337613Y-112415924D01*
X163336883Y-112417405D01*
X163335751Y-112418334D01*
X163335593Y-112418451D01*
X163322904Y-112426929D01*
X163305857Y-112443976D01*
X163292462Y-112464024D01*
X163283236Y-112486298D01*
X163278532Y-112509948D01*
X163278532Y-112534054D01*
X163283237Y-112557704D01*
X163292463Y-112579978D01*
X163305858Y-112600025D01*
X163322905Y-112617072D01*
X163335593Y-112625550D01*
X163335751Y-112625667D01*
X163336879Y-112626593D01*
X163337583Y-112628465D01*
X163336314Y-112630011D01*
X163334667Y-112629903D01*
X163328748Y-112626739D01*
X163319555Y-112623950D01*
X163309906Y-112623000D01*
X161810094Y-112623000D01*
X161800445Y-112623950D01*
X161791252Y-112626739D01*
X161785329Y-112629905D01*
X161783330Y-112629839D01*
X161782387Y-112628076D01*
X161783117Y-112626595D01*
X161784249Y-112625666D01*
X161784407Y-112625549D01*
X161797096Y-112617071D01*
X161814143Y-112600024D01*
X161827538Y-112579976D01*
X161836764Y-112557702D01*
X161841468Y-112534052D01*
X161841468Y-112509946D01*
X161836763Y-112486296D01*
X161827537Y-112464022D01*
X161814142Y-112443975D01*
X161797095Y-112426928D01*
X161784407Y-112418450D01*
X161784249Y-112418333D01*
X161783121Y-112417407D01*
X161782417Y-112415535D01*
X161783686Y-112413989D01*
X161785333Y-112414097D01*
G37*
G36*
X156705333Y-112414097D02*
G01*
X156711252Y-112417261D01*
X156720445Y-112420050D01*
X156730094Y-112421000D01*
X158229906Y-112421000D01*
X158239555Y-112420050D01*
X158248748Y-112417261D01*
X158254671Y-112414095D01*
X158256670Y-112414161D01*
X158257613Y-112415924D01*
X158256883Y-112417405D01*
X158255751Y-112418334D01*
X158255593Y-112418451D01*
X158242904Y-112426929D01*
X158225857Y-112443976D01*
X158212462Y-112464024D01*
X158203236Y-112486298D01*
X158198532Y-112509948D01*
X158198532Y-112534054D01*
X158203237Y-112557704D01*
X158212463Y-112579978D01*
X158225858Y-112600025D01*
X158242905Y-112617072D01*
X158255593Y-112625550D01*
X158255751Y-112625667D01*
X158256879Y-112626593D01*
X158257583Y-112628465D01*
X158256314Y-112630011D01*
X158254667Y-112629903D01*
X158248748Y-112626739D01*
X158239555Y-112623950D01*
X158229906Y-112623000D01*
X156730094Y-112623000D01*
X156720445Y-112623950D01*
X156711252Y-112626739D01*
X156705329Y-112629905D01*
X156703330Y-112629839D01*
X156702387Y-112628076D01*
X156703117Y-112626595D01*
X156704249Y-112625666D01*
X156704407Y-112625549D01*
X156717096Y-112617071D01*
X156734143Y-112600024D01*
X156747538Y-112579976D01*
X156756764Y-112557702D01*
X156761468Y-112534052D01*
X156761468Y-112509946D01*
X156756763Y-112486296D01*
X156747537Y-112464022D01*
X156734142Y-112443975D01*
X156717095Y-112426928D01*
X156704407Y-112418450D01*
X156704249Y-112418333D01*
X156703121Y-112417407D01*
X156702417Y-112415535D01*
X156703686Y-112413989D01*
X156705333Y-112414097D01*
G37*
G36*
X154165333Y-112414097D02*
G01*
X154171252Y-112417261D01*
X154180445Y-112420050D01*
X154190094Y-112421000D01*
X155689906Y-112421000D01*
X155699555Y-112420050D01*
X155708748Y-112417261D01*
X155714671Y-112414095D01*
X155716670Y-112414161D01*
X155717613Y-112415924D01*
X155716883Y-112417405D01*
X155715751Y-112418334D01*
X155715593Y-112418451D01*
X155702904Y-112426929D01*
X155685857Y-112443976D01*
X155672462Y-112464024D01*
X155663236Y-112486298D01*
X155658532Y-112509948D01*
X155658532Y-112534054D01*
X155663237Y-112557704D01*
X155672463Y-112579978D01*
X155685858Y-112600025D01*
X155702905Y-112617072D01*
X155715593Y-112625550D01*
X155715751Y-112625667D01*
X155716879Y-112626593D01*
X155717583Y-112628465D01*
X155716314Y-112630011D01*
X155714667Y-112629903D01*
X155708748Y-112626739D01*
X155699555Y-112623950D01*
X155689906Y-112623000D01*
X154190094Y-112623000D01*
X154180445Y-112623950D01*
X154171252Y-112626739D01*
X154165329Y-112629905D01*
X154163330Y-112629839D01*
X154162387Y-112628076D01*
X154163117Y-112626595D01*
X154164249Y-112625666D01*
X154164407Y-112625549D01*
X154177096Y-112617071D01*
X154194143Y-112600024D01*
X154207538Y-112579976D01*
X154216764Y-112557702D01*
X154221468Y-112534052D01*
X154221468Y-112509946D01*
X154216763Y-112486296D01*
X154207537Y-112464022D01*
X154194142Y-112443975D01*
X154177095Y-112426928D01*
X154164407Y-112418450D01*
X154164249Y-112418333D01*
X154163121Y-112417407D01*
X154162417Y-112415535D01*
X154163686Y-112413989D01*
X154165333Y-112414097D01*
G37*
G36*
X159245333Y-112414097D02*
G01*
X159251252Y-112417261D01*
X159260445Y-112420050D01*
X159270094Y-112421000D01*
X160769906Y-112421000D01*
X160779555Y-112420050D01*
X160788748Y-112417261D01*
X160794671Y-112414095D01*
X160796670Y-112414161D01*
X160797613Y-112415924D01*
X160796883Y-112417405D01*
X160795751Y-112418334D01*
X160795593Y-112418451D01*
X160782904Y-112426929D01*
X160765857Y-112443976D01*
X160752462Y-112464024D01*
X160743236Y-112486298D01*
X160738532Y-112509948D01*
X160738532Y-112534054D01*
X160743237Y-112557704D01*
X160752463Y-112579978D01*
X160765858Y-112600025D01*
X160782905Y-112617072D01*
X160795593Y-112625550D01*
X160795751Y-112625667D01*
X160796879Y-112626593D01*
X160797583Y-112628465D01*
X160796314Y-112630011D01*
X160794667Y-112629903D01*
X160788748Y-112626739D01*
X160779555Y-112623950D01*
X160769906Y-112623000D01*
X159270094Y-112623000D01*
X159260445Y-112623950D01*
X159251252Y-112626739D01*
X159245329Y-112629905D01*
X159243330Y-112629839D01*
X159242387Y-112628076D01*
X159243117Y-112626595D01*
X159244249Y-112625666D01*
X159244407Y-112625549D01*
X159257096Y-112617071D01*
X159274143Y-112600024D01*
X159287538Y-112579976D01*
X159296764Y-112557702D01*
X159301468Y-112534052D01*
X159301468Y-112509946D01*
X159296763Y-112486296D01*
X159287537Y-112464022D01*
X159274142Y-112443975D01*
X159257095Y-112426928D01*
X159244407Y-112418450D01*
X159244249Y-112418333D01*
X159243121Y-112417407D01*
X159242417Y-112415535D01*
X159243686Y-112413989D01*
X159245333Y-112414097D01*
G37*
G36*
X149085333Y-112414097D02*
G01*
X149091252Y-112417261D01*
X149100445Y-112420050D01*
X149110094Y-112421000D01*
X150609906Y-112421000D01*
X150619555Y-112420050D01*
X150628748Y-112417261D01*
X150634671Y-112414095D01*
X150636670Y-112414161D01*
X150637613Y-112415924D01*
X150636883Y-112417405D01*
X150635751Y-112418334D01*
X150635593Y-112418451D01*
X150622904Y-112426929D01*
X150605857Y-112443976D01*
X150592462Y-112464024D01*
X150583236Y-112486298D01*
X150578532Y-112509948D01*
X150578532Y-112534054D01*
X150583237Y-112557704D01*
X150592463Y-112579978D01*
X150605858Y-112600025D01*
X150622905Y-112617072D01*
X150635593Y-112625550D01*
X150635751Y-112625667D01*
X150636879Y-112626593D01*
X150637583Y-112628465D01*
X150636314Y-112630011D01*
X150634667Y-112629903D01*
X150628748Y-112626739D01*
X150619555Y-112623950D01*
X150609906Y-112623000D01*
X149110094Y-112623000D01*
X149100445Y-112623950D01*
X149091252Y-112626739D01*
X149085329Y-112629905D01*
X149083330Y-112629839D01*
X149082387Y-112628076D01*
X149083117Y-112626595D01*
X149084249Y-112625666D01*
X149084407Y-112625549D01*
X149097096Y-112617071D01*
X149114143Y-112600024D01*
X149127538Y-112579976D01*
X149136764Y-112557702D01*
X149141468Y-112534052D01*
X149141468Y-112509946D01*
X149136763Y-112486296D01*
X149127537Y-112464022D01*
X149114142Y-112443975D01*
X149097095Y-112426928D01*
X149084407Y-112418450D01*
X149084249Y-112418333D01*
X149083121Y-112417407D01*
X149082417Y-112415535D01*
X149083686Y-112413989D01*
X149085333Y-112414097D01*
G37*
G36*
X128085990Y-100968465D02*
G01*
X128088372Y-100992652D01*
X128095372Y-101015727D01*
X128106737Y-101036991D01*
X128122032Y-101055628D01*
X128140669Y-101070923D01*
X128161933Y-101082288D01*
X128185008Y-101089288D01*
X128208999Y-101091651D01*
X128232990Y-101089288D01*
X128256065Y-101082288D01*
X128277329Y-101070923D01*
X128296005Y-101055596D01*
X128297339Y-101054124D01*
X128299243Y-101053512D01*
X128300725Y-101054855D01*
X128300585Y-101056410D01*
X128247702Y-101155344D01*
X128215038Y-101263024D01*
X128204000Y-101375094D01*
X128204000Y-101824906D01*
X128215038Y-101936977D01*
X128247702Y-102044657D01*
X128300746Y-102143892D01*
X128302836Y-102146438D01*
X128303162Y-102148412D01*
X128301616Y-102149680D01*
X128299876Y-102149121D01*
X128287023Y-102136268D01*
X128266976Y-102122873D01*
X128244702Y-102113647D01*
X128221051Y-102108943D01*
X128196945Y-102108943D01*
X128173295Y-102113648D01*
X128151021Y-102122874D01*
X128130974Y-102136269D01*
X128113927Y-102153316D01*
X128100532Y-102173363D01*
X128091323Y-102195594D01*
X128085978Y-102231633D01*
X128084735Y-102233200D01*
X128082757Y-102232907D01*
X128082000Y-102231340D01*
X128082000Y-100968661D01*
X128083000Y-100966929D01*
X128085000Y-100966929D01*
X128085990Y-100968465D01*
G37*
G36*
X129521621Y-101146240D02*
G01*
X129521591Y-101148068D01*
X129517702Y-101155344D01*
X129485038Y-101263024D01*
X129474000Y-101375094D01*
X129474000Y-101824906D01*
X129485038Y-101936977D01*
X129517702Y-102044657D01*
X129521591Y-102051933D01*
X129521525Y-102053932D01*
X129519762Y-102054875D01*
X129518164Y-102053987D01*
X129508071Y-102038882D01*
X129491024Y-102021835D01*
X129470976Y-102008440D01*
X129448702Y-101999214D01*
X129425052Y-101994510D01*
X129400946Y-101994510D01*
X129377296Y-101999215D01*
X129355022Y-102008441D01*
X129334975Y-102021836D01*
X129317928Y-102038883D01*
X129307836Y-102053987D01*
X129306042Y-102054872D01*
X129304379Y-102053761D01*
X129304409Y-102051933D01*
X129308298Y-102044657D01*
X129340962Y-101936977D01*
X129352000Y-101824905D01*
X129352000Y-101375094D01*
X129340962Y-101263023D01*
X129308298Y-101155343D01*
X129304411Y-101148072D01*
X129304477Y-101146073D01*
X129306240Y-101145130D01*
X129307838Y-101146018D01*
X129317929Y-101161119D01*
X129334976Y-101178166D01*
X129355023Y-101191561D01*
X129377297Y-101200787D01*
X129400947Y-101205491D01*
X129425054Y-101205491D01*
X129448704Y-101200786D01*
X129470978Y-101191560D01*
X129491025Y-101178165D01*
X129508072Y-101161118D01*
X129518164Y-101146014D01*
X129519958Y-101145129D01*
X129521621Y-101146240D01*
G37*
G36*
X118774232Y-87510000D02*
G01*
X118774232Y-87512000D01*
X118772696Y-87512990D01*
X118748509Y-87515372D01*
X118725434Y-87522372D01*
X118704170Y-87533737D01*
X118685533Y-87549032D01*
X118670238Y-87567669D01*
X118658873Y-87588933D01*
X118651873Y-87612008D01*
X118649510Y-87635999D01*
X118651873Y-87659990D01*
X118658873Y-87683065D01*
X118670238Y-87704329D01*
X118685533Y-87722966D01*
X118704170Y-87738261D01*
X118725434Y-87749626D01*
X118742819Y-87754900D01*
X118744186Y-87756360D01*
X118743605Y-87758274D01*
X118741848Y-87758776D01*
X118730619Y-87756542D01*
X118505381Y-87756542D01*
X118494152Y-87758776D01*
X118492258Y-87758133D01*
X118491868Y-87756171D01*
X118493181Y-87754900D01*
X118510566Y-87749626D01*
X118531830Y-87738261D01*
X118550467Y-87722966D01*
X118565762Y-87704329D01*
X118577127Y-87683065D01*
X118584127Y-87659990D01*
X118586490Y-87635999D01*
X118584127Y-87612008D01*
X118577127Y-87588933D01*
X118565762Y-87567669D01*
X118550467Y-87549032D01*
X118531830Y-87533737D01*
X118510566Y-87522372D01*
X118487491Y-87515372D01*
X118463304Y-87512990D01*
X118461678Y-87511825D01*
X118461874Y-87509835D01*
X118463500Y-87509000D01*
X118772500Y-87509000D01*
X118774232Y-87510000D01*
G37*
M02*
